<?xml version="1.0" standalone="no"?>
<!DOCTYPE svg PUBLIC "-//W3C//DTD SVG 20010904//EN"
 "http://www.w3.org/TR/2001/REC-SVG-20010904/DTD/svg10.dtd">
<svg version="1.0" xmlns="http://www.w3.org/2000/svg"
 width="1168.000000pt" height="1168.000000pt" viewBox="0 0 1168.000000 1168.000000"
 preserveAspectRatio="xMidYMid meet">
<metadata>
Created by potrace 1.14, written by Peter Selinger 2001-2017
</metadata>
<g transform="translate(0.000000,1168.000000) scale(0.100000,-0.100000)"
fill="#000000" stroke="none">
<path d="M10049 9996 c-2 -2 -40 -7 -84 -10 -110 -9 -202 -21 -234 -30 -9 -3
-38 -7 -65 -11 -27 -3 -53 -8 -56 -10 -4 -2 -22 -7 -41 -10 -70 -11 -275 -69
-309 -86 -39 -21 -85 -57 -79 -63 3 -4 140 -41 189 -51 8 -2 53 -13 100 -25
47 -11 94 -23 105 -25 11 -3 78 -20 148 -38 l129 -33 -73 -64 c-225 -200 -264
-249 -253 -319 7 -40 109 -224 208 -373 89 -135 101 -150 145 -191 19 -18 42
-39 50 -47 21 -19 108 -62 156 -76 62 -18 180 -23 243 -10 274 56 561 283 702
556 13 25 25 50 26 55 1 6 10 28 20 50 10 22 18 45 20 50 1 6 7 30 14 55 7 25
14 54 16 65 2 11 7 34 10 50 14 70 3 211 -22 280 -9 22 -18 48 -21 58 -3 9 -9
17 -14 17 -5 0 -9 6 -9 14 0 23 -101 105 -167 136 -72 34 -156 60 -221 66 -26
3 -63 8 -82 10 -42 7 -545 15 -551 10z"/>
<path d="M8897 9114 c-1 -1 -56 -5 -122 -8 -66 -4 -158 -9 -205 -11 -47 -3
-141 -7 -210 -10 -209 -8 -483 -20 -680 -30 -166 -9 -438 -23 -555 -30 -44 -2
-134 -7 -200 -10 -66 -3 -156 -8 -200 -10 -44 -3 -125 -7 -180 -10 -55 -3
-143 -8 -195 -11 -52 -3 -135 -7 -185 -9 -88 -4 -169 -9 -370 -21 -55 -3 -138
-7 -185 -9 -79 -4 -137 -7 -365 -20 -49 -3 -137 -7 -195 -10 -58 -4 -139 -8
-180 -10 -70 -4 -208 -11 -375 -20 -38 -2 -122 -7 -185 -10 -63 -3 -149 -7
-190 -10 -41 -2 -127 -7 -190 -10 -63 -4 -149 -8 -190 -11 -41 -2 -109 -6
-150 -8 -102 -6 -231 -15 -314 -22 -38 -3 -99 -7 -135 -9 -36 -2 -66 -5 -66
-5 0 -1 -18 -3 -40 -5 -22 -1 -87 -6 -145 -10 -58 -4 -116 -9 -130 -10 -14 -2
-51 -3 -82 -4 -72 -1 -77 -17 -5 -18 28 0 106 -4 172 -7 172 -9 473 -19 1295
-41 113 -3 284 -7 380 -10 96 -3 263 -8 370 -10 412 -10 581 -14 745 -19 94
-3 260 -8 370 -11 391 -11 445 -14 455 -20 5 -3 10 -2 10 4 0 7 8 7 23 2 12
-4 30 -7 40 -6 29 5 19 -26 -13 -38 -16 -6 -30 -15 -30 -19 0 -4 -5 -8 -11 -8
-11 0 -66 -26 -435 -206 -227 -110 -503 -255 -600 -314 -38 -24 -78 -48 -89
-54 -48 -27 -312 -210 -325 -226 -3 -3 -43 -37 -90 -75 -181 -148 -421 -388
-439 -439 -2 -6 -7 -13 -11 -16 -14 -11 -68 -99 -101 -165 -19 -38 -38 -73
-44 -77 -5 -4 -7 -8 -2 -8 4 0 1 -13 -7 -28 -35 -68 -40 -224 -10 -319 38
-119 108 -203 279 -334 85 -64 275 -179 305 -184 3 0 15 -6 27 -13 13 -7 103
-42 200 -78 98 -35 185 -67 193 -71 8 -3 17 -7 20 -8 20 -5 147 -49 155 -54 6
-3 15 -6 20 -8 25 -5 192 -64 207 -73 10 -6 25 -10 33 -10 9 0 29 -7 44 -15
16 -8 39 -16 52 -19 28 -7 255 -82 284 -95 20 -9 131 -43 150 -47 6 -1 33 -9
60 -19 28 -9 55 -18 60 -19 26 -6 102 -29 120 -36 11 -5 52 -18 90 -30 200
-61 387 -125 443 -152 64 -30 132 -86 132 -108 0 -30 -172 -153 -430 -309 -74
-45 -142 -86 -150 -92 -8 -5 -23 -12 -32 -15 -10 -4 -18 -10 -18 -15 0 -5 -5
-9 -10 -9 -6 0 -40 -18 -76 -40 -36 -22 -68 -40 -71 -40 -3 0 -37 -20 -77 -44
-71 -43 -386 -221 -461 -260 -22 -12 -42 -23 -45 -26 -4 -5 -91 -53 -310 -172
-97 -53 -384 -211 -415 -228 -65 -37 -173 -95 -230 -124 -33 -17 -62 -33 -65
-36 -3 -3 -23 -14 -45 -25 -22 -11 -42 -22 -45 -25 -3 -3 -25 -15 -50 -27 -25
-12 -72 -37 -105 -56 -33 -18 -105 -57 -160 -87 -55 -29 -127 -69 -160 -87
-33 -19 -68 -36 -77 -40 -10 -3 -18 -9 -18 -14 0 -5 -6 -9 -13 -9 -8 0 -49
-20 -92 -44 -43 -25 -103 -58 -134 -73 -31 -15 -59 -32 -63 -38 -4 -5 -11 -10
-15 -10 -12 -1 -73 -35 -73 -41 0 -3 8 -3 18 0 63 18 291 89 307 96 11 4 92
31 180 59 88 29 167 55 175 58 8 3 20 7 25 9 6 1 71 23 145 48 74 26 140 48
145 50 6 2 13 4 18 5 4 0 20 7 37 16 16 8 37 17 47 18 10 2 27 7 38 11 89 34
131 49 205 74 47 17 110 40 140 52 30 12 60 23 65 25 6 1 19 6 30 10 52 21
121 47 130 50 6 1 19 6 30 10 29 12 227 88 325 125 47 18 104 41 127 51 23 11
45 19 48 19 4 0 21 6 38 14 18 8 104 45 192 82 88 37 175 73 192 80 18 8 34
14 35 13 2 0 36 16 75 35 40 20 75 36 78 36 3 0 34 13 68 29 34 16 94 43 132
61 243 111 673 339 713 377 7 7 18 13 23 13 13 0 174 112 236 165 135 114 263
247 307 319 65 106 82 243 43 346 -41 111 -135 223 -287 340 -25 19 -47 37
-50 40 -3 3 -34 24 -70 45 -36 22 -75 45 -85 52 -49 30 -535 253 -551 253 -4
0 -29 12 -58 26 -28 14 -52 25 -54 25 -1 -1 -18 6 -38 14 -20 8 -38 15 -40 15
-2 0 -28 11 -58 25 -55 25 -107 47 -116 50 -3 0 -27 11 -54 23 -27 12 -50 22
-52 22 -2 0 -26 10 -52 21 -26 12 -60 27 -77 34 -105 45 -132 57 -147 65 -10
6 -22 10 -28 10 -6 0 -43 16 -83 35 -39 19 -75 35 -79 35 -4 0 -38 14 -75 31
-276 127 -315 150 -395 231 -73 73 -65 129 25 188 29 18 63 41 77 50 22 15
153 79 205 101 74 31 459 128 571 144 17 3 44 9 58 15 15 5 30 9 34 9 4 -1 10
0 15 1 12 4 20 6 67 14 74 14 84 16 110 22 14 3 36 7 50 10 36 6 65 12 65 14
0 1 16 3 35 6 19 2 69 11 110 19 151 30 195 39 210 42 8 1 31 5 50 8 19 2 46
7 60 10 14 3 39 7 55 10 17 2 55 9 85 15 30 7 66 13 80 14 14 2 39 6 55 9 17
4 46 9 65 12 19 3 42 8 50 10 8 2 35 7 60 10 25 3 81 12 125 20 111 20 145 26
180 30 17 2 44 6 60 9 17 3 44 8 60 11 17 3 39 7 51 9 12 2 45 7 75 11 30 3
61 8 69 10 19 5 76 16 115 21 28 3 89 13 125 19 8 1 35 6 60 10 25 3 59 9 75
12 17 3 41 6 55 8 14 2 39 6 55 9 17 3 50 8 75 11 25 3 52 7 60 10 8 2 38 6
65 10 28 3 57 8 65 10 8 2 38 6 65 10 28 3 64 8 80 11 17 3 44 7 60 9 17 2 31
4 33 6 3 2 34 6 65 8 56 3 56 -3 -10 256 -14 55 -26 105 -28 110 -1 6 -4 17
-7 25 -3 8 -32 96 -66 195 -79 235 -103 299 -114 303 -4 2 -6 7 -3 11 2 4 -18
32 -44 62 -46 52 -125 102 -182 115 -22 6 -187 12 -192 8z"/>
<path d="M5010 8097 c-3 -3 -39 -8 -80 -11 -41 -4 -95 -8 -120 -11 -25 -2 -79
-7 -120 -11 -41 -3 -88 -7 -105 -9 -16 -1 -66 -6 -110 -9 -44 -4 -91 -9 -105
-11 -14 -2 -63 -7 -110 -10 -47 -3 -98 -8 -115 -9 -16 -2 -61 -6 -100 -10 -38
-3 -90 -8 -115 -11 -25 -2 -79 -7 -120 -10 -41 -4 -91 -8 -110 -10 -51 -5
-213 -20 -330 -29 -36 -3 -92 -8 -124 -12 -70 -7 -117 -11 -211 -19 -38 -4
-86 -8 -105 -10 -19 -2 -78 -7 -130 -11 -88 -6 -125 -10 -125 -14 0 -1 -25 -3
-55 -5 -66 -4 -175 -13 -250 -21 -30 -3 -63 -6 -74 -5 -10 0 -15 -3 -12 -7 12
-11 2736 -9 2737 3 8 93 1 263 -11 252z"/>
<path d="M3785 7082 c-2 -2 -50 -5 -108 -7 -161 -6 -352 -14 -462 -21 -55 -3
-152 -7 -215 -10 -63 -2 -153 -6 -200 -8 -47 -3 -147 -7 -223 -10 -75 -4 -177
-8 -225 -11 -48 -2 -136 -7 -195 -10 -60 -3 -112 -7 -117 -10 -5 -3 -11 -1
-15 5 -4 6 -11 7 -17 4 -6 -4 -45 -8 -87 -10 -78 -2 -259 -11 -411 -19 -47 -2
-145 -7 -219 -10 -74 -3 -138 -8 -142 -11 -5 -3 -9 0 -9 6 0 6 -5 8 -12 4 -7
-5 -38 -9 -68 -10 -49 -2 -144 -6 -390 -18 -41 -2 -145 -7 -230 -11 -85 -4
-177 -9 -205 -10 -27 -2 -76 -4 -108 -6 -105 -4 -67 -14 61 -16 70 -1 208 -4
307 -7 195 -7 416 -14 700 -21 99 -2 190 -6 203 -9 12 -3 22 0 22 5 0 6 5 7
11 3 6 -3 72 -8 147 -10 76 -2 220 -6 322 -9 191 -5 449 -12 747 -19 95 -3
177 -7 183 -11 5 -3 10 -1 10 5 0 6 5 8 11 4 6 -3 90 -8 187 -10 412 -9 491
-12 501 -18 6 -4 11 -2 11 4 0 6 4 9 9 5 5 -3 115 -8 243 -11 l233 -6 0 152 0
151 -123 -3 c-68 -2 -125 -4 -127 -6z"/>
<path d="M9206 6993 c19 -54 35 -100 36 -103 0 -3 2 -9 4 -15 39 -113 71 -208
73 -217 1 -9 29 -83 41 -113 5 -11 21 -56 35 -100 14 -44 29 -87 32 -95 3 -8
7 -19 9 -25 2 -5 30 -88 63 -183 57 -164 60 -174 41 -179 -11 -3 -20 -10 -20
-16 0 -6 -3 -7 -6 -4 -7 7 -107 -43 -112 -55 -2 -5 -8 -8 -14 -8 -6 0 -35 -16
-64 -35 -29 -19 -56 -35 -61 -35 -4 0 -19 -10 -33 -22 -14 -13 -44 -35 -67
-50 -159 -104 -436 -393 -549 -573 -10 -16 -24 -36 -31 -43 -7 -7 -13 -18 -13
-24 0 -5 -8 -22 -19 -36 -32 -47 -82 -142 -74 -142 4 0 3 -4 -3 -8 -35 -23
-175 -428 -189 -542 -1 -14 -8 -54 -15 -90 -13 -69 -17 -101 -24 -218 -3 -39
-8 -77 -11 -82 -3 -6 -3 -10 2 -10 4 0 8 -11 8 -25 0 -14 -4 -25 -8 -25 -5 0
-6 -4 -2 -10 3 -5 7 -55 10 -112 2 -57 7 -121 10 -143 19 -125 50 -282 62
-315 3 -8 8 -24 10 -35 2 -11 6 -27 10 -35 3 -8 7 -21 9 -28 1 -8 6 -21 10
-30 4 -9 8 -22 10 -29 11 -55 126 -303 181 -391 18 -29 33 -54 33 -57 0 -7
121 -179 134 -190 6 -5 23 -26 36 -45 39 -57 233 -249 322 -321 207 -166 435
-292 695 -383 74 -26 183 -57 218 -62 11 -1 20 -3 20 -4 0 -2 24 -7 75 -15 24
-4 47 -8 51 -11 29 -18 453 -26 564 -11 33 5 71 10 85 12 58 7 223 47 330 80
3 1 19 7 35 14 17 6 44 16 60 22 62 23 281 127 302 144 6 6 41 28 77 50 36 22
66 43 66 47 0 4 -19 0 -42 -8 -24 -9 -54 -18 -68 -20 -14 -3 -34 -8 -45 -11
-24 -8 -28 -9 -80 -17 -82 -13 -101 -16 -130 -22 -51 -10 -357 -12 -425 -3
-143 19 -130 17 -255 44 -11 2 -35 8 -52 14 -18 5 -33 8 -33 5 0 -2 -13 2 -30
11 -16 9 -30 13 -30 9 0 -4 -7 -1 -15 6 -8 7 -15 10 -15 7 0 -10 -276 108
-290 123 -3 3 -25 16 -50 29 -51 26 -191 119 -232 153 -14 13 -41 34 -59 48
-36 28 -205 195 -229 226 -8 10 -33 42 -55 69 -151 188 -299 483 -350 700 -39
163 -48 216 -60 360 -18 200 8 471 63 655 9 30 16 57 17 60 4 27 40 130 45
130 4 0 7 6 7 13 0 6 9 33 21 60 12 26 22 51 23 55 1 4 13 27 26 52 50 95 86
157 119 203 19 26 34 49 34 52 0 5 25 37 48 60 6 8 12 16 12 20 0 3 11 16 25
29 14 13 25 26 25 30 0 15 181 189 189 180 4 -5 24 -56 44 -114 19 -58 63
-184 97 -280 34 -96 77 -222 96 -280 20 -58 40 -114 44 -125 9 -20 90 -251 94
-270 2 -5 6 -17 9 -25 3 -8 15 -44 27 -80 12 -36 25 -72 28 -80 3 -8 6 -17 7
-20 1 -3 4 -12 8 -20 3 -8 18 -51 32 -95 14 -44 30 -89 35 -100 5 -11 14 -38
21 -60 17 -60 25 -65 90 -65 63 0 61 -3 46 60 -9 36 -66 300 -71 330 -4 23
-23 109 -46 208 -20 84 -59 263 -76 342 -2 14 -9 45 -15 70 -5 25 -12 56 -14
70 -2 14 -8 43 -14 65 -14 55 -24 97 -27 115 -5 24 -17 84 -20 95 -1 6 -4 21
-7 35 -3 14 -20 88 -37 165 -17 77 -33 149 -36 160 -2 11 -6 31 -9 45 -18 78
-18 90 -1 90 9 0 16 5 16 11 0 5 4 8 9 4 5 -3 15 1 23 8 18 18 158 83 253 119
150 56 306 95 470 115 76 10 385 9 445 0 25 -4 59 -9 75 -12 56 -7 130 -24
160 -35 17 -6 30 -11 30 -10 0 3 61 -12 83 -20 42 -18 22 -3 -80 58 -114 68
-280 148 -376 182 -146 51 -301 90 -422 106 -25 3 -58 8 -75 11 -60 9 -371 10
-387 1 -12 -6 -18 -5 -18 2 0 6 -4 9 -8 6 -7 -4 -157 -31 -233 -42 -14 -2 -37
-8 -52 -13 -36 -14 -44 0 -63 109 -2 8 -7 33 -13 55 -5 22 -12 51 -15 65 -3
14 -8 36 -10 50 -3 14 -8 34 -10 45 -8 39 -77 351 -97 440 -11 50 -25 117 -33
150 l-13 60 -276 3 -276 2 35 -97z"/>
<path d="M3317 6164 c-2 -2 -26 -6 -53 -9 -50 -5 -106 -12 -159 -22 -16 -3
-37 -6 -45 -7 -9 -1 -21 -5 -28 -10 -6 -4 -12 -5 -12 -2 0 10 -257 -68 -327
-100 -17 -8 -34 -14 -38 -14 -16 0 -185 -85 -285 -144 -96 -56 -283 -189 -336
-240 -12 -12 -48 -46 -80 -77 -94 -89 -175 -182 -256 -292 -20 -29 -41 -56
-45 -62 -37 -46 -208 -365 -220 -411 -2 -5 -19 -54 -39 -109 -19 -55 -37 -107
-39 -115 -2 -8 -10 -42 -18 -75 -9 -33 -18 -71 -21 -85 -3 -14 -7 -34 -9 -45
-3 -11 -8 -42 -11 -70 -4 -27 -10 -64 -12 -81 -3 -17 -7 -48 -9 -70 -6 -48 -6
-322 -1 -384 9 -92 18 -157 32 -230 8 -41 17 -86 20 -100 19 -96 113 -369 135
-394 5 -6 9 -17 9 -26 0 -9 5 -21 12 -28 6 -6 13 -17 14 -24 1 -7 18 -42 38
-76 20 -35 36 -68 36 -73 0 -5 5 -9 10 -9 6 0 10 -5 10 -11 0 -22 131 -206
224 -314 108 -127 329 -324 425 -381 17 -10 31 -22 31 -27 0 -4 5 -5 10 -2 6
3 10 1 10 -4 0 -6 7 -11 15 -11 8 0 15 -4 15 -9 0 -5 8 -11 18 -14 17 -6 72
-37 82 -47 6 -6 115 -59 190 -93 60 -27 186 -75 216 -82 10 -3 70 -19 133 -35
136 -36 154 -40 206 -45 22 -3 54 -7 70 -11 51 -10 406 -13 470 -3 33 5 80 11
105 15 25 3 47 8 50 9 3 2 25 6 50 10 25 4 48 9 52 12 5 2 21 7 35 9 51 9 184
53 258 84 69 29 80 33 88 32 4 -1 7 2 7 6 0 4 17 14 37 21 47 17 207 109 211
122 2 5 7 7 11 5 3 -2 24 9 45 25 45 33 44 34 -13 14 -22 -8 -41 -12 -41 -9 0
2 -8 0 -18 -5 -11 -6 -30 -12 -43 -15 -70 -16 -128 -27 -164 -32 -22 -2 -67
-8 -100 -13 -61 -9 -369 -7 -415 2 -14 3 -43 8 -65 11 -76 11 -189 33 -215 43
-8 3 -23 8 -33 10 -34 6 -202 67 -222 79 -11 7 -22 13 -25 12 -12 -2 -130 58
-223 114 -138 82 -322 228 -401 316 -11 12 -35 38 -52 58 -18 19 -43 48 -56
65 -12 17 -30 38 -39 47 -28 30 -145 215 -187 298 -65 129 -159 380 -147 392
3 3 1 10 -4 16 -9 11 -25 81 -37 160 -3 21 -8 48 -10 60 -16 74 -22 351 -9
451 3 28 8 64 9 80 9 75 17 116 41 205 13 52 27 103 29 113 28 107 142 351
217 466 27 41 49 77 49 82 0 4 6 12 13 16 6 4 23 25 37 45 61 88 208 238 326
333 27 22 55 46 62 53 7 6 17 12 22 12 5 0 15 6 22 13 20 20 144 97 156 97 6
0 12 4 14 8 5 13 250 128 289 136 8 2 21 6 29 10 17 7 145 45 175 51 92 20
162 33 240 42 73 10 371 9 440 -1 111 -15 185 -29 233 -44 17 -6 32 -8 32 -5
0 3 7 0 15 -7 8 -7 15 -10 15 -7 0 3 16 -1 35 -9 19 -8 35 -12 35 -10 0 15
-283 172 -395 217 -39 16 -190 69 -210 73 -5 2 -28 8 -50 14 -47 13 -221 48
-285 57 -51 7 -407 15 -413 9z"/>
</g>
</svg>
