<svg width="28" height="28" viewBox="0 0 28 28" fill="none" xmlns="http://www.w3.org/2000/svg">
<g clip-path="url(#clip0)">
<path d="M7.18945 7.49097C7.18931 7.49106 7.18906 7.49116 7.18896 7.49126C7.18911 7.49116 7.18926 7.49106 7.18945 7.49097Z" fill="white"/>
<path d="M7.18887 7.49121C7.18862 7.49131 7.18843 7.49146 7.18823 7.49155C7.18843 7.49141 7.18862 7.49131 7.18887 7.49121Z" fill="white"/>
<path d="M18.9038 12.3282L17.8171 11.2292L18.1861 9.88067C18.4217 10.0354 18.6926 10.1139 18.9639 10.1139C19.4918 10.1139 19.7965 9.82505 19.8606 9.78923C20.731 9.09186 20.3581 8.04471 19.57 8.04471C18.9526 8.04471 18.4549 8.04471 17.3015 8.04471C17.0109 8.07698 16.4859 7.92003 16.0552 8.36436C15.8976 8.527 15.9016 8.78665 16.0642 8.94431C16.2268 9.10192 16.4865 9.09799 16.6442 8.93535C16.7551 8.82089 16.8748 8.88208 17.2487 8.86502C17.302 8.89892 17.4043 8.99392 17.5374 9.15738C17.5156 9.20889 17.5866 8.96794 16.5552 12.7318L9.38286 8.86852L9.62573 8.17667C9.6785 8.02634 9.6394 7.85899 9.52554 7.7476L8.53478 6.77838L8.7322 6.67425C8.93257 6.5686 9.00935 6.32054 8.9037 6.12016C8.79804 5.91985 8.54998 5.84301 8.34961 5.94867C6.78709 6.76711 8.35628 5.93931 6.80005 6.76903C6.60039 6.87599 6.52525 7.1246 6.63216 7.32426C6.73918 7.52387 6.98779 7.59901 7.1874 7.4921C7.1927 7.48931 7.19522 7.48794 7.19626 7.4874C7.195 7.48805 7.19183 7.48975 7.18964 7.49095C7.20473 7.48291 7.30612 7.42888 7.7726 7.18022L8.76523 8.1513L7.85786 10.736L7.54062 11.4026C5.848 10.7432 3.85482 10.9388 2.27726 12.0921C2.09439 12.2258 2.05452 12.4825 2.18823 12.6653C2.322 12.8482 2.57859 12.888 2.76141 12.7544C4.08833 11.7842 5.75766 11.6106 7.18685 12.146L6.83368 12.8881C4.30736 11.9944 1.64038 13.876 1.64038 16.5629C1.64038 19.4572 4.70132 21.3412 7.27949 20.0479C7.48194 19.9464 7.56375 19.6998 7.46214 19.4974C7.36059 19.2949 7.11406 19.2132 6.91161 19.3147C4.88102 20.3334 2.46068 18.8521 2.46068 16.5629C2.46068 14.4838 4.49455 12.9947 6.47882 13.6338L5.22539 16.2675L4.95015 16.4143C4.75032 16.521 4.67474 16.7695 4.78138 16.9693C4.85521 17.1076 4.99701 17.1865 5.14358 17.1865C5.20871 17.1864 5.27483 17.1709 5.33635 17.1381L5.73075 16.9276C5.80813 16.8862 5.87026 16.8212 5.90799 16.7419L7.21879 13.9878C8.62999 14.9122 9.02297 16.7699 8.15897 18.1718C8.04013 18.3646 8.10007 18.6173 8.29295 18.7361C8.48578 18.855 8.73843 18.795 8.85732 18.6022C9.97458 16.7894 9.43071 14.3841 7.57403 13.2415L7.92687 12.5002C9.31746 13.3211 10.2529 14.8344 10.2529 16.5628C10.2529 19.1628 8.13775 21.278 5.53776 21.278C1.80001 21.278 -0.412357 17.1357 1.55594 14.0403C1.67751 13.8492 1.62107 13.5957 1.42994 13.4742C1.2387 13.3526 0.985281 13.409 0.863766 13.6002C-1.45371 17.2447 1.15864 22.0983 5.53782 22.0983C8.59007 22.0983 11.0733 19.6151 11.0733 16.5628C11.0733 14.508 9.94778 12.7112 8.28103 11.7562C8.6348 11.0108 8.60499 11.0794 8.62036 11.0394L14.1063 16.4432C13.7405 17.1857 13.9343 18.094 14.5999 18.622L14.0886 19.7168L13.732 19.5366C13.5299 19.4344 13.2832 19.5155 13.1809 19.7176C13.0787 19.9198 13.1598 20.1665 13.3619 20.2687C14.7847 20.9712 14.7551 21.0107 14.927 21.0107C15.358 21.0107 15.4959 20.4282 15.1124 20.2344L14.8211 20.0871L15.3426 18.9703C16.0483 19.1164 16.7746 18.8236 17.182 18.218C18.2639 21.6633 22.3231 23.1731 25.3864 21.2623C25.5785 21.1425 25.6372 20.8894 25.5173 20.6972C25.3974 20.505 25.1445 20.4464 24.9522 20.5664C22.1929 22.2876 18.5363 20.7384 17.8542 17.55L18.6717 17.4558C19.0766 19.1756 20.6229 20.46 22.4645 20.46C24.6135 20.46 26.3618 18.7117 26.3618 16.5628C26.3618 13.3098 22.5985 11.5037 20.061 13.4983L19.4826 12.9134C22.5306 10.4182 27.1798 12.5762 27.1798 16.5627C27.1798 17.5824 26.858 18.5537 26.2493 19.3716C26.114 19.5533 26.1517 19.8103 26.3334 19.9455C26.5151 20.0808 26.7721 20.0431 26.9073 19.8613C27.6222 18.9008 28.0001 17.7601 28.0001 16.5627C28 11.8373 22.4646 9.32931 18.9038 12.3282ZM19.5403 8.86513C19.5269 9.13058 18.8658 9.61811 18.4198 8.9704C18.3947 8.93387 18.37 8.89876 18.3457 8.86507L19.5403 8.86513ZM8.92081 10.1844L9.10768 9.65207L16.333 13.5438L15.8113 15.4508C15.3699 15.4242 14.9577 15.56 14.6303 15.8084L8.92081 10.1844ZM15.7081 18.1868L16.0752 17.4008C16.171 17.1956 16.0824 16.9514 15.8771 16.8556C15.6719 16.7598 15.4278 16.8485 15.3319 17.0536L14.9649 17.8393C14.4497 17.2186 14.8903 16.2675 15.7035 16.2675C16.2327 16.2675 16.6633 16.6981 16.6633 17.2273C16.6633 17.7549 16.2352 18.1844 15.7081 18.1868ZM16.9607 15.9682C16.8523 15.86 16.7299 15.766 16.5967 15.6885L17.5667 12.143L18.3165 12.9013C17.577 13.738 17.0861 14.7991 16.9607 15.9682ZM18.5689 16.642L17.7534 16.736C17.7084 15.4973 18.1423 14.3589 18.8952 13.4865L19.4716 14.0694C18.8839 14.7735 18.5493 15.6712 18.5689 16.642ZM25.5411 16.5628C25.5411 18.2594 24.1608 19.6398 22.4641 19.6398C21.0435 19.6398 19.8452 18.6719 19.4927 17.3611L22.1341 17.0564C22.6602 16.9957 22.8854 16.3553 22.5131 15.9787L20.6414 14.0858C22.6507 12.6033 25.5411 14.0319 25.5411 16.5628ZM20.0518 14.6561L21.6625 16.285L19.3875 16.5475C19.391 15.8337 19.6391 15.1771 20.0518 14.6561Z" fill="white"/>
<path d="M7.18824 7.49158C7.18687 7.4923 7.18716 7.49216 7.18824 7.49158V7.49158Z" fill="white"/>
</g>
<defs>
<clipPath id="clip0">
<rect width="28" height="28" fill="white"/>
</clipPath>
</defs>
</svg>
