<svg width="25" height="25" viewBox="0 0 25 25" fill="none" xmlns="http://www.w3.org/2000/svg">
<path d="M10.2903 9.95298C10.2854 9.92954 10.2786 9.9066 10.2693 9.88462C10.26 9.86265 10.2488 9.84117 10.2356 9.82115C10.2219 9.80113 10.2068 9.78257 10.1898 9.76548C10.1731 9.74888 10.1546 9.73326 10.134 9.72007C10.1146 9.70689 10.093 9.69566 10.0711 9.68638C10.0491 9.6771 10.0261 9.67027 10.0027 9.66539C9.88361 9.64146 9.75714 9.68052 9.67218 9.76548C9.60387 9.83384 9.56476 9.92808 9.56476 10.0248C9.56476 10.121 9.60387 10.2152 9.67218 10.2835C9.74005 10.3519 9.83473 10.391 9.93092 10.391C9.95485 10.391 9.97877 10.3885 10.0027 10.3836C10.0262 10.3788 10.0491 10.3719 10.0711 10.3626C10.093 10.3534 10.1146 10.3421 10.134 10.329C10.1546 10.3158 10.1731 10.3006 10.1898 10.2835C10.2068 10.2665 10.2219 10.2479 10.2356 10.2279C10.2488 10.2079 10.26 10.1869 10.2693 10.1649C10.2785 10.1424 10.2854 10.1195 10.2903 10.096C10.2947 10.0726 10.2971 10.0487 10.2971 10.0248C10.2971 10.0008 10.2947 9.97691 10.2903 9.95298Z" fill="white"/>
<path d="M12.0724 9.953C12.0675 9.92957 12.0607 9.90662 12.0514 9.88464C12.0421 9.86267 12.0309 9.84119 12.0177 9.82117C12.0041 9.80115 11.9889 9.78259 11.9719 9.7655C11.904 9.69763 11.8098 9.65857 11.713 9.65857C11.6169 9.65857 11.5222 9.69763 11.4543 9.7655C11.4372 9.78259 11.422 9.80115 11.4088 9.82117C11.3957 9.84119 11.3839 9.86267 11.3752 9.88464C11.3659 9.90662 11.3586 9.92957 11.3542 9.953C11.3493 9.97693 11.3468 10.0009 11.3468 10.0248C11.3468 10.121 11.3859 10.2152 11.4543 10.2836C11.5222 10.3519 11.6169 10.391 11.713 10.391C11.8097 10.391 11.904 10.3519 11.9719 10.2836C12.0402 10.2157 12.0793 10.121 12.0793 10.0248C12.0793 10.0009 12.0768 9.97693 12.0724 9.953Z" fill="white"/>
<path d="M13.8546 9.953C13.8497 9.92956 13.8429 9.90662 13.8336 9.88464C13.8243 9.86267 13.8131 9.84119 13.7999 9.82117C13.7862 9.80115 13.7711 9.78259 13.754 9.7655C13.7374 9.7489 13.7188 9.73376 13.6983 9.72009C13.6789 9.70691 13.6573 9.69568 13.6353 9.6864C13.6134 9.67712 13.5904 9.67029 13.567 9.66541C13.5196 9.65613 13.4708 9.65613 13.4239 9.66541C13.4005 9.67029 13.3776 9.67712 13.3551 9.6864C13.3331 9.69568 13.3116 9.70691 13.2921 9.72009C13.2721 9.73376 13.253 9.7489 13.2364 9.7655C13.2193 9.78259 13.2042 9.80115 13.191 9.82117C13.1778 9.84119 13.1661 9.86267 13.1573 9.88464C13.1481 9.90662 13.1407 9.92956 13.1363 9.953C13.1314 9.97693 13.129 10.0009 13.129 10.0248C13.129 10.0487 13.1315 10.0726 13.1363 10.0961C13.1407 10.1195 13.148 10.1425 13.1573 10.1649C13.1662 10.1869 13.1778 10.2079 13.191 10.2279C13.2042 10.2479 13.2193 10.267 13.2364 10.2836C13.253 10.3007 13.2721 10.3158 13.2921 10.329C13.3116 10.3422 13.3331 10.3539 13.3551 10.3627C13.3776 10.3719 13.4005 10.3788 13.4239 10.3837C13.4474 10.3885 13.4713 10.391 13.4952 10.391C13.5191 10.391 13.5431 10.3885 13.567 10.3837C13.5904 10.3788 13.6134 10.3719 13.6353 10.3627C13.6573 10.3539 13.6789 10.3422 13.6983 10.329C13.7188 10.3158 13.7374 10.3007 13.754 10.2836C13.8224 10.2152 13.8614 10.121 13.8614 10.0248C13.8614 10.0009 13.859 9.97693 13.8546 9.953Z" fill="white"/>
<path d="M15.6368 9.95301C15.6319 9.92957 15.625 9.90662 15.6158 9.88465C15.6065 9.86267 15.5953 9.84119 15.5821 9.82117C15.5689 9.80115 15.5533 9.78259 15.5367 9.7655C15.5195 9.7489 15.501 9.73328 15.481 9.72009C15.461 9.70691 15.4395 9.69568 15.4175 9.6864C15.3956 9.67712 15.3726 9.67029 15.3492 9.66589C15.3018 9.65613 15.2529 9.65613 15.2061 9.66589C15.1827 9.67029 15.1597 9.67712 15.1373 9.6864C15.1153 9.69568 15.0942 9.70691 15.0743 9.72009C15.0542 9.73328 15.0352 9.7489 15.0186 9.7655C15.0015 9.78259 14.9863 9.80115 14.9731 9.82117C14.9599 9.84119 14.9482 9.86267 14.9395 9.88465C14.9302 9.90662 14.9233 9.92957 14.9185 9.95301C14.9136 9.97693 14.9111 10.0009 14.9111 10.0248C14.9111 10.0487 14.9136 10.0726 14.9185 10.0961C14.9233 10.1195 14.9302 10.1425 14.9395 10.1649C14.9483 10.1869 14.96 10.2079 14.9731 10.2279C14.9863 10.2479 15.0015 10.267 15.0186 10.2836C15.0352 10.3007 15.0542 10.3158 15.0743 10.329C15.0942 10.3422 15.1153 10.3539 15.1373 10.3627C15.1597 10.372 15.1827 10.3788 15.2061 10.3837C15.2295 10.3886 15.2535 10.391 15.2773 10.391C15.3013 10.391 15.3252 10.3886 15.3492 10.3837C15.3726 10.3788 15.3956 10.372 15.4175 10.3627C15.4395 10.3539 15.461 10.3422 15.481 10.329C15.501 10.3158 15.5195 10.3007 15.5367 10.2836C15.5533 10.267 15.5689 10.2479 15.5821 10.2279C15.5953 10.2079 15.6065 10.1869 15.6158 10.1649C15.625 10.1425 15.6319 10.1195 15.6368 10.0961C15.6412 10.0726 15.6436 10.0487 15.6436 10.0248C15.6436 10.0009 15.6412 9.97693 15.6368 9.95301Z" fill="white"/>
<path d="M10.928 11.0472C10.8596 10.9794 10.7654 10.9403 10.6691 10.9403C10.5725 10.9403 10.4782 10.9794 10.4099 11.0472C10.3415 11.1156 10.3024 11.2098 10.3024 11.3065C10.3024 11.3304 10.3048 11.3544 10.3098 11.3778C10.3146 11.4012 10.3214 11.4242 10.3308 11.4467C10.34 11.4686 10.3513 11.4896 10.3644 11.5096C10.3776 11.5297 10.3927 11.5482 10.4099 11.5653C10.4269 11.5824 10.4454 11.5975 10.4655 11.6107C10.4855 11.6239 10.5065 11.6356 10.5285 11.6444C10.551 11.6537 10.574 11.6605 10.5974 11.6654C10.6208 11.6703 10.6452 11.6727 10.6691 11.6727C10.7654 11.6727 10.8596 11.6337 10.928 11.5653C10.9446 11.5482 10.9601 11.5297 10.9734 11.5096C10.9865 11.4896 10.9978 11.4686 11.007 11.4467C11.0163 11.4242 11.0231 11.4012 11.0281 11.3778C11.0329 11.3544 11.0353 11.3304 11.0353 11.3065C11.0353 11.2098 10.9958 11.1156 10.928 11.0472Z" fill="white"/>
<path d="M12.8104 11.2347C12.8054 11.2113 12.7986 11.1884 12.7893 11.1664C12.7801 11.1444 12.7688 11.1229 12.7557 11.1029C12.7424 11.0829 12.7269 11.0643 12.7103 11.0472C12.6419 10.9794 12.5477 10.9403 12.4514 10.9403C12.3548 10.9403 12.2605 10.9794 12.1922 11.0472C12.1756 11.0643 12.1599 11.0829 12.1467 11.1029C12.1335 11.1229 12.1223 11.1444 12.1131 11.1664C12.1038 11.1884 12.0969 11.2113 12.0921 11.2347C12.0871 11.2587 12.0852 11.2826 12.0852 11.3065C12.0852 11.3304 12.0872 11.3544 12.0921 11.3778C12.097 11.4012 12.1038 11.4242 12.1131 11.4467C12.1224 11.4686 12.1336 11.4896 12.1468 11.5096C12.16 11.5297 12.1756 11.5487 12.1922 11.5653C12.2605 11.6337 12.3548 11.6727 12.4515 11.6727C12.475 11.6727 12.4994 11.6703 12.5228 11.6654C12.5462 11.6605 12.5691 11.6537 12.5911 11.6444C12.6136 11.6356 12.6346 11.6239 12.6546 11.6107C12.6746 11.5975 12.6932 11.5824 12.7103 11.5653C12.7782 11.4974 12.8172 11.4027 12.8172 11.3065C12.8172 11.2826 12.8148 11.2587 12.8104 11.2347Z" fill="white"/>
<path d="M14.5926 11.2347C14.5877 11.2113 14.5809 11.1884 14.5716 11.1664C14.5623 11.1444 14.5511 11.1229 14.5379 11.1029C14.5247 11.0829 14.5091 11.0643 14.4925 11.0472C14.4754 11.0306 14.4569 11.015 14.4368 11.0018C14.4168 10.9886 14.3958 10.9774 14.3733 10.9681C14.3514 10.9589 14.3284 10.952 14.305 10.9471C14.2576 10.9379 14.2093 10.9379 14.1619 10.9471C14.1385 10.952 14.1155 10.9589 14.0935 10.9681C14.0711 10.9774 14.0501 10.9886 14.0301 11.0018C14.01 11.015 13.9915 11.0306 13.9744 11.0472C13.9573 11.0643 13.9422 11.0829 13.929 11.1029C13.9158 11.1229 13.9046 11.1444 13.8953 11.1664C13.886 11.1884 13.8792 11.2113 13.8743 11.2347C13.8694 11.2587 13.867 11.2826 13.867 11.3065C13.8669 11.3304 13.8694 11.3544 13.8743 11.3778C13.8792 11.4012 13.886 11.4242 13.8953 11.4467C13.9046 11.4686 13.9158 11.4896 13.929 11.5096C13.9422 11.5297 13.9573 11.5487 13.9744 11.5653C13.9915 11.5824 14.01 11.5975 14.0301 11.6107C14.0501 11.6239 14.0711 11.6356 14.0935 11.6444C14.1155 11.6537 14.1385 11.6605 14.1619 11.6654C14.1853 11.6703 14.2093 11.6727 14.2332 11.6727C14.2571 11.6727 14.2815 11.6703 14.305 11.6654C14.3284 11.6605 14.3514 11.6537 14.3733 11.6444C14.3958 11.6356 14.4168 11.6239 14.4368 11.6107C14.4568 11.5975 14.4754 11.5824 14.4925 11.5653C14.5091 11.5487 14.5247 11.5297 14.5379 11.5096C14.5511 11.4896 14.5623 11.4686 14.5716 11.4467C14.5809 11.4242 14.5877 11.4012 14.5926 11.3778C14.5975 11.3544 14.5995 11.3304 14.5995 11.3065C14.5995 11.2826 14.5975 11.2587 14.5926 11.2347Z" fill="white"/>
<path d="M11.028 8.67126C11.0231 8.64783 11.0163 8.62488 11.007 8.6029C10.9977 8.58093 10.9864 8.55945 10.9733 8.53943C10.9601 8.51941 10.9445 8.50085 10.9279 8.48376C10.9108 8.46716 10.8923 8.45154 10.8722 8.43835C10.8522 8.42517 10.8312 8.41394 10.8087 8.40466C10.7867 8.39539 10.7638 8.38855 10.7404 8.38367C10.693 8.37439 10.6447 8.37439 10.5973 8.38367C10.5739 8.38855 10.5509 8.39539 10.5284 8.40466C10.5065 8.41394 10.4855 8.42517 10.4655 8.43835C10.4454 8.45154 10.4269 8.46716 10.4098 8.48376C10.3927 8.50085 10.3776 8.51941 10.3644 8.53943C10.3511 8.55945 10.34 8.58093 10.3307 8.6029C10.3214 8.62488 10.3146 8.64783 10.3097 8.67126C10.3048 8.69519 10.3024 8.71912 10.3024 8.74304C10.3024 8.83923 10.3414 8.93396 10.4098 9.00183C10.4269 9.01892 10.4454 9.03406 10.4655 9.04724C10.4855 9.06042 10.5065 9.07165 10.5284 9.08093C10.5509 9.09021 10.5739 9.09704 10.5973 9.10193C10.6207 9.10681 10.6451 9.10925 10.6691 9.10925C10.7653 9.10925 10.8595 9.07019 10.9279 9.00183C10.9958 8.93396 11.0353 8.83923 11.0353 8.74304C11.0353 8.71912 11.0328 8.69519 11.028 8.67126Z" fill="white"/>
<path d="M12.8104 8.67124C12.8054 8.6478 12.7986 8.62485 12.7893 8.60288C12.7801 8.5809 12.7688 8.55942 12.7557 8.5394C12.7424 8.51938 12.7269 8.50083 12.7103 8.48374C12.6931 8.46713 12.6746 8.45151 12.6545 8.43833C12.6345 8.42514 12.6135 8.41391 12.5911 8.40463C12.5691 8.39536 12.5462 8.38852 12.5227 8.38413C12.4036 8.35971 12.2772 8.39877 12.1922 8.48374C12.1756 8.50083 12.1599 8.51938 12.1467 8.5394C12.1335 8.55942 12.1223 8.5809 12.1131 8.60288C12.1038 8.62485 12.0969 8.6478 12.0921 8.67124C12.0871 8.69516 12.0852 8.71909 12.0852 8.74301C12.0852 8.76694 12.0871 8.79087 12.0921 8.8143C12.0969 8.83774 12.1038 8.86069 12.1131 8.88315C12.1223 8.90512 12.1336 8.92612 12.1467 8.94614C12.1599 8.96616 12.1756 8.9852 12.1922 9.0018C12.26 9.07016 12.3547 9.10923 12.4514 9.10923C12.4749 9.10923 12.4993 9.10679 12.5227 9.1019C12.5462 9.09702 12.5691 9.09018 12.5911 9.08091C12.6135 9.07212 12.6345 9.0604 12.6545 9.04721C12.6746 9.03403 12.6931 9.01889 12.7103 9.0018C12.7269 8.98471 12.7424 8.96616 12.7557 8.94614C12.7689 8.92612 12.7801 8.90512 12.7893 8.88315C12.7986 8.86069 12.8054 8.83774 12.8104 8.8143C12.8148 8.79087 12.8172 8.76694 12.8172 8.74301C12.8172 8.71909 12.8148 8.69516 12.8104 8.67124Z" fill="white"/>
<path d="M14.5926 8.67126C14.5876 8.64783 14.5809 8.62488 14.5715 8.6029C14.5623 8.58093 14.551 8.55945 14.5379 8.53943C14.5247 8.51941 14.5091 8.50085 14.4925 8.48376C14.4753 8.46716 14.4568 8.45154 14.4368 8.43835C14.4167 8.42517 14.3958 8.41394 14.3733 8.40466C14.3513 8.39539 14.3284 8.38855 14.3049 8.38367C14.2576 8.37439 14.2092 8.37439 14.1619 8.38367C14.1384 8.38855 14.1155 8.39539 14.0935 8.40466C14.071 8.41394 14.05 8.42517 14.03 8.43835C14.01 8.45154 13.9915 8.46716 13.9744 8.48376C13.9572 8.50085 13.9421 8.51941 13.929 8.53943C13.9158 8.55945 13.9045 8.58093 13.8953 8.6029C13.886 8.62488 13.8792 8.64783 13.8743 8.67126C13.8693 8.69519 13.8669 8.71912 13.8669 8.74304C13.8669 8.76697 13.8694 8.79089 13.8743 8.81433C13.8792 8.83777 13.886 8.86072 13.8953 8.88318C13.9045 8.90515 13.9158 8.92615 13.929 8.94617C13.9421 8.96619 13.9572 8.98523 13.9744 9.00183C13.9915 9.01892 14.01 9.03406 14.03 9.04724C14.05 9.06042 14.071 9.07214 14.0935 9.08093C14.1155 9.09021 14.1385 9.09704 14.1619 9.10193C14.1853 9.10681 14.2092 9.10925 14.2332 9.10925C14.2571 9.10925 14.2815 9.10681 14.3049 9.10193C14.3284 9.09704 14.3513 9.09021 14.3733 9.08093C14.3958 9.07214 14.4167 9.06042 14.4368 9.04724C14.4568 9.03406 14.4753 9.01892 14.4925 9.00183C14.5091 8.98523 14.5247 8.96619 14.5379 8.94617C14.5511 8.92615 14.5623 8.90515 14.5715 8.88318C14.5808 8.86072 14.5876 8.83777 14.5926 8.81433C14.5975 8.79089 14.5994 8.76697 14.5994 8.74304C14.5994 8.71912 14.5975 8.69519 14.5926 8.67126Z" fill="white"/>
<path d="M16.318 12.8906C17.2636 12.1521 17.7978 11.1258 17.7978 10.0203C17.7978 8.56211 17.1594 7.43281 15.9491 6.73984V6.22539C15.9491 5.72397 15.5592 5.31294 15.067 5.27686C15.924 5.04541 16.5566 4.26162 16.5566 3.33242C16.5566 2.22188 15.6531 1.31831 14.5425 1.31831H13.9472V0.9521C13.9472 0.427148 13.5201 0 12.9951 0H12.0186C11.4936 0 11.0665 0.427148 11.0665 0.9521V1.31831H10.8485C10.6462 1.31831 10.4823 1.48228 10.4823 1.68452C10.4823 1.88677 10.6462 2.05073 10.8485 2.05073H11.4816V3.95498H11.3107C10.6275 3.95498 10.1317 4.61484 10.3285 5.27329H10.0168C9.49176 5.27329 9.06466 5.70044 9.06466 6.22539V6.73994C8.6547 6.97505 8.30568 7.26353 8.0258 7.6001C7.89645 7.75561 7.91769 7.98652 8.07321 8.11582C8.22878 8.24517 8.45959 8.22393 8.58898 8.06841C8.83307 7.7749 9.14621 7.52476 9.52067 7.32393H15.4934C16.5367 7.88267 17.0655 8.78936 17.0655 10.0202C17.0655 11.0156 16.5353 11.9042 15.5723 12.5223C15.4108 12.626 15.3145 12.8017 15.3145 12.9923C15.3145 13.2301 15.484 13.4333 15.7175 13.4754C16.4945 13.6157 17.0593 14.287 17.0653 15.0742H15.5714C15.3691 15.0742 15.2052 15.2381 15.2052 15.4404C15.2052 15.6427 15.3691 15.8066 15.5714 15.8066H17.0655V16.344H7.93493V15.8066H13.8624C14.0647 15.8066 14.2286 15.6427 14.2286 15.4404C14.2286 15.2381 14.0647 15.0742 13.8624 15.0742H7.93503C7.94152 14.2257 8.60636 13.5151 9.45426 13.4539C9.70114 13.436 9.89455 13.2278 9.89455 12.9799C9.89455 12.7966 9.80182 12.6278 9.64616 12.5283C8.55856 11.8341 7.93473 10.9199 7.93473 10.0202C7.93473 9.82705 7.94924 9.63667 7.97785 9.45425C8.0092 9.25444 7.87262 9.06704 7.67282 9.03569C7.47297 9.00454 7.28561 9.14097 7.25431 9.34077C7.02224 10.8206 7.64865 11.9425 8.81725 12.8412C7.87638 13.1595 7.20236 14.054 7.20236 15.0866C7.20236 18.2896 7.20236 19.2835 7.20236 22.2057C7.20231 24.2889 9.4007 25.6363 11.2397 24.6938C12.0296 25.0987 12.9693 25.0992 13.7603 24.6938C15.5994 25.6363 17.7977 24.2887 17.7977 22.2057C17.7977 21.2135 17.7977 16.0662 17.7977 15.0867C17.7978 14.1059 17.1982 13.2467 16.318 12.8906ZM13.5321 2.05073C13.8365 2.05073 14.0865 2.05073 14.5424 2.05073C15.2492 2.05073 15.8241 2.62573 15.8241 3.33242C15.8241 4.00034 15.3105 4.55024 14.6575 4.60869C14.5083 4.22666 14.1371 3.95493 13.703 3.95493H13.5321V2.05073ZM11.7987 0.9521C11.7987 0.833008 11.8994 0.732373 12.0185 0.732373H12.995C13.1141 0.732373 13.2147 0.833008 13.2147 0.9521V1.31831C13.0499 1.31831 11.9639 1.31831 11.7987 1.31831V0.9521ZM12.7997 2.05073V3.95498H12.2138V2.05073H12.7997ZM11.3105 4.68735C11.8673 4.68735 13.1478 4.68735 13.703 4.68735C13.8646 4.68735 13.996 4.81875 13.996 4.98032C13.996 5.14189 13.8646 5.27329 13.703 5.27329H11.3105C11.1489 5.27329 11.0175 5.14189 11.0175 4.98032C11.0175 4.81875 11.1489 4.68735 11.3105 4.68735ZM15.2166 6.5916H9.79689V6.22539C9.79689 6.1063 9.89752 6.00566 10.0166 6.00566C10.9747 6.00566 13.7708 6.00566 14.9969 6.00566C15.1161 6.00566 15.2167 6.1063 15.2167 6.22539V6.5916H15.2166ZM17.0653 22.2058C17.0653 23.8186 15.3029 24.7968 13.9529 23.9623C13.8349 23.8893 13.6858 23.8893 13.5678 23.9623C13.2471 24.1605 12.8778 24.2653 12.5 24.2653C11.5567 24.2653 11.4188 23.7324 11.0471 23.9623C10.7264 24.1605 10.3571 24.2653 9.97936 24.2653C8.85197 24.2653 7.93473 23.3415 7.93473 22.2058V22.1703H17.0653V22.2058ZM17.0653 20.1681H10.7856C10.5833 20.1681 10.4194 20.332 10.4194 20.5343C10.4194 20.7366 10.5833 20.9005 10.7856 20.9005H17.0653V21.4379H7.93473V20.9005H9.07668C9.27897 20.9005 9.44289 20.7366 9.44289 20.5343C9.44289 20.332 9.27897 20.1681 9.07668 20.1681H7.93473V17.0764H17.0653V20.1681Z" fill="white"/>
</svg>
