<svg width="25" height="25" viewBox="0 0 25 25" fill="none" xmlns="http://www.w3.org/2000/svg">
<path d="M24.796 13.9734C23.3748 11.8093 22.9909 9.36371 24.4097 7.19315C24.8357 6.54163 24.3467 5.68138 23.5716 5.70779C22.8274 5.7323 21.9035 5.70559 20.826 5.62869C20.6247 5.61409 20.4491 5.76609 20.4347 5.96775C20.4203 6.16941 20.5721 6.34456 20.7738 6.35896C23.6516 6.56439 23.6672 6.31263 23.8046 6.55716C23.9334 6.78582 23.6527 6.84315 23.2349 7.8512C22.3446 7.89701 19.2402 8.15199 16.2567 9.5347C15.5359 9.86869 15.5862 10.9111 16.3363 11.1718C19.1137 12.0768 19.6611 12.4841 20.8512 12.4841C21.6934 12.4841 21.9548 12.2912 23.1022 12.1048C23.2113 12.46 23.3412 12.7932 23.4803 13.0996C21.983 13.6542 20.1036 13.4378 17.6094 12.4297C17.4218 12.3538 17.2085 12.4445 17.1328 12.6319C17.057 12.8194 17.1476 13.0328 17.335 13.1085C20.0499 14.2059 22.1208 14.4156 23.8112 13.758C23.9176 13.9502 24.0506 14.172 24.184 14.3753C24.3182 14.5795 24.2855 14.8396 24.1325 15.0059C24.0374 15.1092 24.1137 15.0347 22.188 16.1519C20.717 16.9982 18.9488 16.9937 17.511 16.2271C14.8172 14.8249 14.7542 14.6756 14.2302 14.5898C14.7202 13.8877 14.2121 12.9092 13.3406 12.9241L11.2037 12.9604C11.203 12.9314 11.1975 12.8646 11.1867 12.8124C11.0748 12.2675 10.5535 12.1839 10.5588 12.1868C10.471 12.1689 10.3757 12.151 10.2874 12.1357L12.0222 11.2638C13.1312 11.5188 14.3994 11.8931 15.7615 12.4424C15.949 12.5178 16.1623 12.4272 16.2379 12.2398C16.3135 12.0523 16.2228 11.839 16.0354 11.7634C13.268 10.6475 10.9023 10.2304 9.39814 10.077C11.8654 9.19852 14.5291 8.6515 17.1612 8.34051C17.989 8.24271 18.0123 7.04871 17.1888 6.91985C13.2651 6.30574 9.04262 6.46346 5.25037 7.64339C6.73919 6.56995 8.45482 5.95955 10.2636 5.69412C13.3949 5.2344 15.4437 5.8347 19.0605 6.20774C19.2622 6.22859 19.4414 6.08226 19.4621 5.88113C19.4829 5.68006 19.3367 5.50017 19.1356 5.47942C15.5563 5.11018 13.4087 4.49251 10.1573 4.96966C4.94744 5.73416 1.25539 9.08724 0.0278036 15.1988C-0.0467571 15.5707 0.028536 15.9568 0.255978 16.2795C0.297433 16.3383 0.683811 16.7175 0.988694 16.8113C1.16277 16.8651 2.85872 17.1018 2.88977 17.1018C3.06858 17.1018 3.22498 16.9707 3.25154 16.7885C3.28074 16.5884 3.14221 16.4026 2.94216 16.3733C1.35076 16.1127 1.20886 16.1943 0.960325 15.975C2.31272 13.6981 5.31341 11.7911 7.76097 10.7237C8.04125 10.7204 9.18397 10.7296 10.8621 11.0274L8.92807 11.9995C6.76107 11.9398 4.91068 12.6396 3.45647 13.8695C2.92571 14.3181 3.18548 15.1895 3.88245 15.2694C6.26473 15.5426 8.74032 15.0654 10.7618 13.7003C14.0773 13.6439 13.2129 13.6561 13.3598 13.6561C13.6535 13.6561 13.8003 14.016 13.587 14.2219L12.9461 14.8405L11.0512 15.9504C7.33329 18.1283 4.37522 15.8776 4.22161 16.9301C4.19241 17.1302 4.33094 17.316 4.53099 17.3453C6.57611 17.6404 7.77831 17.9272 9.75102 17.3168C13.9248 19.6701 14.1078 20.0264 15.1053 20.1719C16.0677 20.3124 17.0693 19.9891 17.7685 19.2766C18.3003 19.3469 18.5483 19.4117 18.9733 19.4117C20.4128 19.4117 21.7399 18.5986 22.3859 17.2732L22.6504 16.7306C24.2463 15.7541 24.7843 15.7095 24.9663 14.9458C25.0455 14.6133 24.9835 14.2589 24.796 13.9734ZM19.6511 11.5487L16.5767 10.4801C16.4473 10.435 16.4388 10.2573 16.5647 10.1989C17.6031 9.71761 18.6684 9.3785 19.6428 9.13959C18.2796 10.4126 19.0845 11.5294 22.8686 11.1049C22.8823 11.1914 22.9019 11.301 22.9203 11.3924C21.7275 11.5925 20.953 12.0011 19.6511 11.5487ZM22.7944 10.3765C21.4941 10.5228 20.4824 10.4876 19.9239 10.274C19.811 10.2308 19.7733 10.1931 19.7642 10.1822C19.7671 10.1492 19.8136 9.89999 20.5113 9.36522C20.8628 9.09579 21.2189 8.87801 21.3587 8.7951C22.0394 8.68734 22.6037 8.63133 22.9812 8.60267C22.8297 9.17587 22.7671 9.76796 22.7944 10.3765ZM9.92362 7.44222C9.95331 7.46253 9.98251 7.48543 10.0027 7.50594C9.95585 7.55384 9.8266 7.6555 9.49511 7.78265C9.33266 7.84495 9.10385 7.91654 8.83895 7.9994C8.133 8.22015 7.09549 8.54491 5.96888 9.11634C6.00701 8.79183 5.91961 8.49901 5.73846 8.25994C7.16581 7.8366 8.58036 7.58133 9.92362 7.44222ZM3.77542 8.95179C4.16209 8.79242 4.57225 8.63968 4.93504 8.51585C5.45784 8.81991 5.24344 9.29354 4.85486 9.75389C3.30823 10.7531 2.0863 12.0444 1.17493 13.6456C1.71111 11.9111 2.54348 10.285 3.77542 8.95179ZM2.20574 13.3684C5.53348 8.36029 10.7009 9.13212 10.7534 7.52772C10.7552 7.47254 10.7499 7.42039 10.7395 7.37103C12.8385 7.22088 14.9833 7.3241 16.9667 7.6262C11.8075 8.24818 6.0095 9.85873 2.20574 13.3684ZM4.11858 14.5581C3.96526 14.543 3.9262 14.5495 3.90974 14.4949C3.89461 14.4449 3.91077 14.4385 4.11575 14.2765C5.04749 13.5393 6.10496 13.0749 7.23602 12.8632C6.71497 13.2602 6.17904 13.8193 5.77928 14.5899C5.20897 14.6238 4.63626 14.6095 4.11858 14.5581ZM10.4384 13.0352C9.18305 13.9057 7.86044 14.3204 6.68534 14.4965C7.54188 13.2243 8.79887 12.8091 9.04672 12.7378C9.50629 12.7573 9.96562 12.813 10.413 12.9041C10.4769 12.9172 10.4933 12.9971 10.4384 13.0352ZM13.831 15.3C14.0448 15.2824 14.2632 15.3249 14.4566 15.428L16.9422 16.7534L16.4431 17.6123C16.1574 18.1034 15.5285 18.2704 15.037 17.9846L12.0204 16.2311C13.285 15.5256 13.4036 15.3354 13.831 15.3ZM17.3547 18.6443C16.8126 19.2773 15.9893 19.561 15.2111 19.4473C14.442 19.3352 14.338 19.0789 10.6371 16.9848C10.8611 16.885 11.095 16.7667 11.2934 16.6554L14.669 18.6176C15.5103 19.1064 16.5867 18.8218 17.0761 17.9803L17.5993 17.0802C17.792 17.1628 17.9877 17.2343 18.1857 17.2941C17.5415 18.4196 17.4794 18.4984 17.3547 18.6443ZM18.5224 18.6465L18.268 18.6094L18.9335 17.4646C19.8156 17.6024 20.7197 17.5248 21.5735 17.2317C20.933 18.2629 19.7446 18.8253 18.5224 18.6465Z" fill="white"/>
</svg>
