<svg width="20" height="20" viewBox="0 0 20 20" fill="none" xmlns="http://www.w3.org/2000/svg">
<g clip-path="url(#clip0)">
<path d="M2.33335 16.6666C1.78107 16.6666 1.33335 17.1143 1.33335 17.6666C1.33335 18.2189 1.78107 18.6666 2.33335 18.6666C2.88564 18.6666 3.33335 18.2189 3.33335 17.6666C3.33335 17.1143 2.88564 16.6666 2.33335 16.6666ZM2.33335 18C2.14926 18 2.00002 17.8507 2.00002 17.6666C2.00002 17.4825 2.14926 17.3333 2.33335 17.3333C2.51745 17.3333 2.66668 17.4825 2.66668 17.6666C2.66668 17.8507 2.51745 18 2.33335 18Z" fill="white"/>
<path d="M19.6589 16.3257C19.9932 15.992 20.0933 15.4897 19.9125 15.0533C19.7317 14.617 19.3056 14.3328 18.8333 14.3333H17.6666C17.3572 14.3338 17.0605 14.4564 16.8409 14.6743L15.1819 16.3333H4.24528C4.15256 16.2012 4.04644 16.079 3.92861 15.9687L4.42861 12.525C4.47448 12.206 4.40178 11.8813 4.22428 11.6123L5.53328 2.66667H7.57061C7.83324 2.88064 8.16119 2.99827 8.49994 3C9.32837 3 9.99994 2.32843 9.99994 1.5C9.99994 0.671573 9.32837 0 8.49994 0C8.16062 0.00135253 7.83202 0.119005 7.56894 0.333333H3.83328C3.52387 0.333722 3.22713 0.456276 3.00761 0.674333C2.71497 0.966789 2.59967 1.39266 2.7048 1.79281C2.80994 2.19295 3.11968 2.50716 3.51828 2.618L2.24528 11.3253C1.99935 11.5332 1.83759 11.8235 1.79028 12.142L1.29028 15.5827C0.377053 16.0385 -0.13352 17.0353 0.0302515 18.0427C0.194023 19.0501 0.994058 19.8339 2.00463 19.9769C3.01521 20.12 4.00134 19.5891 4.43828 18.6667H15.5666C15.9412 19.4554 16.7255 19.9683 17.5983 19.9953C18.471 20.0224 19.2855 19.559 19.7083 18.795C20.131 18.031 20.0908 17.0947 19.6043 16.3697C19.6213 16.354 19.6423 16.3423 19.6589 16.3257ZM3.62561 11.1087C3.52211 11.0633 3.41322 11.0314 3.30161 11.0137C3.18985 10.9993 3.07671 10.9993 2.96494 11.0137L4.18494 2.66667H4.85794L3.62561 11.1087ZM8.49994 0.666667C8.96018 0.666667 9.33328 1.03976 9.33328 1.5C9.33328 1.96024 8.96018 2.33333 8.49994 2.33333C8.03971 2.33333 7.66661 1.96024 7.66661 1.5C7.66661 1.03976 8.03971 0.666667 8.49994 0.666667ZM3.33328 1.5C3.33274 1.36723 3.38525 1.23974 3.47913 1.14586C3.57302 1.05197 3.70051 0.999466 3.83328 1L7.09194 0.999996C7.0327 1.16012 7.00157 1.32928 6.99994 1.5C7.00157 1.67072 7.0327 1.83988 7.09194 2H3.83328C3.55714 2 3.33328 1.77614 3.33328 1.5ZM2.44994 12.238C2.5026 11.8734 2.84084 11.6205 3.20544 11.6732C3.57004 11.7258 3.82293 12.0641 3.77028 12.4287L3.31561 15.553C2.90514 15.357 2.44494 15.29 1.99561 15.3607L2.44994 12.238ZM2.33328 19.3333C1.4128 19.3333 0.666611 18.5871 0.666611 17.6667C0.666611 16.7462 1.4128 16 2.33328 16C3.25375 16 3.99994 16.7462 3.99994 17.6667C3.99884 18.5867 3.2533 19.3322 2.33328 19.3333ZM4.56828 17H15.3199C15.4083 17 15.4931 16.9649 15.5556 16.9023L17.3126 15.1457C17.4068 15.0524 17.534 15 17.6666 15H18.8333C19.036 14.9994 19.219 15.1212 19.2967 15.3084C19.3744 15.4957 19.3313 15.7113 19.1876 15.8543C19.1345 15.9065 19.0707 15.9467 19.0006 15.972C18.947 15.9905 18.8907 16 18.8339 16H18.0133C17.9249 16 17.8401 16.0352 17.7776 16.0977L16.0206 17.8543C15.9463 17.9277 15.8514 17.9766 15.7486 17.9947C15.7223 17.9973 15.6933 18 15.6666 18H4.63994C4.69215 17.6655 4.66764 17.3236 4.56828 17ZM17.9999 17.6667C17.9999 17.8508 17.8507 18 17.6666 18C17.4825 18 17.3333 17.8508 17.3333 17.6667C17.3333 17.4826 17.4825 17.3333 17.6666 17.3333C17.8507 17.3333 17.9999 17.4826 17.9999 17.6667ZM17.6666 19.3333C17.0785 19.3325 16.5347 19.0211 16.2363 18.5143C16.3299 18.4635 16.416 18.4001 16.4923 18.3257L16.7513 18.0667C16.9297 18.4781 17.3603 18.7205 17.8047 18.6595C18.249 18.5985 18.5984 18.2491 18.6594 17.8047C18.7204 17.3604 18.4781 16.9298 18.0666 16.7513L18.1513 16.6667H18.8333C18.8822 16.6656 18.9309 16.6614 18.9793 16.6543C19.2079 16.9423 19.3326 17.299 19.3333 17.6667C19.3322 18.5867 18.5866 19.3322 17.6666 19.3333Z" fill="white"/>
</g>
<defs>
<clipPath id="clip0">
<rect width="20" height="20" fill="white"/>
</clipPath>
</defs>
</svg>
