<svg width="25" height="25" viewBox="0 0 25 25" fill="none" xmlns="http://www.w3.org/2000/svg">
<g clip-path="url(#clip0)">
<path d="M22.5022 11.2957C22.4498 10.8581 22.0129 10.5773 21.5947 10.7126C21.0312 10.895 19.1833 11.4931 18.6091 11.6789C18.5522 11.6973 18.4955 11.6589 18.4868 11.6011C18.3896 10.9505 18.1875 10.3239 17.8861 9.73851C17.862 9.69158 17.8823 9.63348 17.9339 9.61678C18.1846 9.53563 20.5418 8.77273 20.8231 8.68172C21.2983 8.52781 21.5131 7.97669 21.267 7.54319C19.8073 4.97102 17.3146 3.1736 14.4281 2.61174C13.9914 2.52687 13.5849 2.86091 13.5849 3.30641C13.5849 6.7075 13.5967 6.54646 13.5604 6.53977C12.0642 6.274 11.4151 6.64812 11.4151 6.49646C11.4151 5.8072 11.4151 3.97272 11.4151 3.28371C11.4151 2.85099 11.0204 2.52546 10.595 2.60724C9.33445 2.84958 8.14583 3.32614 7.06218 4.0236C6.89217 4.13308 6.84299 4.35969 6.95247 4.52976C7.06199 4.69987 7.28865 4.7488 7.45862 4.63947C8.44871 4.00207 9.53309 3.56384 10.6826 3.33635V4.07019C8.25862 4.59416 6.22571 6.1362 5.03415 8.18924C4.51233 8.00056 4.42151 8.02766 4.38825 7.94148C4.38098 7.92254 4.376 7.89353 4.39377 7.86253C4.8654 7.04143 5.45911 6.2967 6.15828 5.6489C6.30667 5.51145 6.3155 5.27971 6.17805 5.13137C6.04055 4.98293 5.80876 4.97409 5.66052 5.11159C4.90696 5.80969 4.26716 6.61243 3.75866 7.49773C3.49719 7.95276 3.7237 8.53499 4.22463 8.6971C4.23147 8.69935 4.13513 8.66814 5.09538 8.97889C7.22205 9.66717 7.16824 9.63416 7.14861 9.67161C6.4531 10.9825 6.58303 11.7409 6.45779 11.7005C5.96062 11.5396 3.90446 10.8741 3.42141 10.7177C2.99391 10.5794 2.54816 10.8673 2.49557 11.3133C2.16198 14.1396 3.02575 17.0855 5.10583 19.3342C5.42722 19.6816 5.98582 19.6477 6.26311 19.2653L6.85813 18.4452C8.08855 16.771 8.09656 16.6522 8.19095 16.7477C8.68519 17.2489 9.25623 17.6569 9.89158 17.9587C9.71781 18.1982 8.19373 20.299 8.02747 20.5282C7.74515 20.9172 7.88938 21.4679 8.32659 21.6677C9.83949 22.3592 11.4483 22.6467 13.0577 22.5584C13.2597 22.5473 13.4144 22.3746 13.4033 22.1727C13.3922 21.9707 13.2192 21.8157 13.0176 21.8271C11.4837 21.911 10.0047 21.6295 8.63099 21.0016C8.61507 20.9944 8.60931 20.9738 8.62024 20.9584L9.03006 20.3935C11.2432 21.3717 13.7793 21.3618 15.9699 20.3935L16.4005 20.9871C15.8398 21.2458 15.2495 21.4492 14.6449 21.5919C14.4481 21.6384 14.3262 21.8356 14.3726 22.0325C14.4192 22.2294 14.6165 22.3512 14.8132 22.3047C15.4893 22.1451 16.1489 21.9151 16.7738 21.6211C16.956 21.5354 17.0894 21.374 17.1397 21.1784C17.1903 20.9815 17.1509 20.7742 17.0315 20.6097C16.4968 19.8727 15.4003 18.3549 15.1143 17.9591C15.743 17.6569 16.3113 17.2512 16.8035 16.7533C16.8247 16.7319 16.8483 16.7291 16.8648 16.7301C16.8806 16.7313 16.903 16.7376 16.9199 16.761C17.0165 16.8941 18.5877 19.0599 18.7313 19.2578C18.8757 19.4567 19.1032 19.5705 19.3451 19.5705C19.5561 19.5705 19.7565 19.4832 19.9005 19.3271C21.9728 17.0827 22.8424 14.1353 22.5022 11.2957ZM5.64387 18.837C3.75065 16.7903 2.91379 14.0833 3.22053 11.4224L3.91936 11.6487C3.68195 14.0619 4.45588 16.445 6.0884 18.2592C5.64939 18.8644 5.6637 18.8583 5.64387 18.837ZM18.4709 17.6513L17.5129 16.3309C17.2195 15.9264 16.6337 15.8833 16.2829 16.2384C15.1668 17.3675 14.5641 17.1487 14.4042 17.7809C14.3501 17.995 14.3934 18.2202 14.523 18.3988L15.5292 19.7857C13.6434 20.5721 11.4461 20.6128 9.47112 19.7857L10.4847 18.3889C10.7534 18.0183 10.6174 17.4978 10.2054 17.3001C8.75184 16.6021 8.77474 15.9428 8.0802 15.9963C7.84485 16.014 7.63035 16.1338 7.49163 16.3249L6.52942 17.6513C5.17922 16.0907 4.46657 14.0461 4.63508 11.8803L6.2325 12.3973C6.68611 12.5441 7.16365 12.2462 7.2283 11.7745C7.44563 10.1868 8.07967 9.99803 7.8284 9.3782C7.74397 9.1699 7.57298 9.01087 7.35921 8.94168L5.74934 8.42063C6.83757 6.63025 8.61004 5.32351 10.6829 4.82131V6.49626C10.6829 6.72502 10.7833 6.94065 10.9583 7.08782C11.4797 7.52654 11.838 6.97737 13.4324 7.26067C13.8932 7.34241 14.3175 6.98689 14.3175 6.51653V4.82136C15.0569 4.99616 15.7653 5.27683 16.4283 5.65906C16.6034 5.75998 16.8274 5.69997 16.9284 5.52473C17.0294 5.34949 16.9693 5.12556 16.7941 5.02458C16.0189 4.57766 15.1872 4.2572 14.3175 4.07009V3.33635C16.9815 3.86364 19.2811 5.52732 20.6303 7.90467C20.6477 7.93533 20.6311 7.97405 20.5978 7.98484L19.966 8.18933C19.5078 7.39822 18.9287 6.68728 18.2413 6.07273C18.0904 5.93791 17.859 5.9508 17.7242 6.10163C17.5894 6.25242 17.6023 6.48391 17.7531 6.61873C18.3429 7.14607 18.8453 7.751 19.2512 8.42063L17.7085 8.9199C17.4803 8.99378 17.2971 9.16321 17.2057 9.3848C16.944 10.0195 17.5352 10.189 17.7627 11.7093C17.8383 12.215 18.3482 12.533 18.8349 12.3756L20.3652 11.8803C20.529 13.9876 19.861 16.0442 18.4709 17.6513ZM19.3626 18.8303C19.3227 18.8718 19.3107 18.7875 18.9119 18.2592C20.5204 16.4715 21.3214 14.0945 21.0809 11.6487L21.7797 11.4224C22.0859 14.0747 21.2543 16.7812 19.3626 18.8303Z" fill="white"/>
<path d="M25 12.5C25 11.9535 24.5963 11.4994 24.0715 11.4204C24.0445 11.1276 24.0065 10.8357 23.9579 10.5474C24.7744 10.1916 24.8397 9.04894 24.0654 8.60178C23.8616 8.4841 23.6307 8.43639 23.4009 8.46174C23.2992 8.18791 23.1861 7.91574 23.0627 7.64787C23.4736 7.31989 23.6011 6.7276 23.3253 6.24996C23.1795 5.99738 22.944 5.81676 22.6623 5.74127C22.4341 5.68009 22.1976 5.69396 21.9817 5.77892C21.8122 5.54025 21.6328 5.30694 21.4455 5.08116C21.7608 4.65416 21.7252 4.04757 21.3388 3.66104C20.9522 3.27462 20.3456 3.23897 19.9186 3.55435C19.6928 3.3669 19.4596 3.1876 19.2209 3.01807C19.3059 2.8022 19.3197 2.56573 19.2586 2.3375C19.1831 2.05581 19.0025 1.82041 18.7499 1.67461C18.4974 1.52886 18.2032 1.49009 17.9214 1.56553C17.6937 1.62657 17.4962 1.7563 17.3519 1.93711C17.084 1.81377 16.8118 1.70069 16.5379 1.59893C16.5957 1.07266 16.2619 0.566945 15.7351 0.425831C15.2076 0.284473 14.665 0.556251 14.4525 1.04204C14.1642 0.99341 13.8722 0.955422 13.5793 0.928371C13.5006 0.403712 13.0466 0 12.5 0C11.9535 0 11.4995 0.403712 11.4204 0.928518C11.1277 0.95552 10.8358 0.993508 10.5475 1.04214C10.455 0.829689 10.2976 0.653029 10.0932 0.535011C9.32194 0.0898439 8.36432 0.7105 8.46198 1.59908C8.18805 1.70078 7.91584 1.81387 7.64792 1.93726C7.32013 1.52652 6.72775 1.39883 6.25001 1.67476C5.99742 1.82056 5.81681 2.05601 5.74132 2.33765C5.68019 2.56592 5.69401 2.80245 5.77902 3.01822C5.54034 3.1878 5.30704 3.36715 5.08126 3.5545C4.65426 3.23912 4.04766 3.27471 3.66114 3.66119C3.26705 4.05533 3.2439 4.66251 3.55435 5.08141C3.36695 5.30719 3.18765 5.54039 3.01817 5.77906C2.18706 5.45177 1.33448 6.21593 1.56563 7.07848C1.62661 7.30612 1.75635 7.50358 1.93721 7.64792C1.81382 7.91589 1.70074 8.18805 1.59903 8.46183C1.36919 8.4361 1.13833 8.48415 0.934572 8.60187C0.160547 9.0487 0.225049 10.1914 1.04209 10.5475C0.993459 10.8357 0.955471 11.1276 0.928469 11.4205C0.403663 11.4994 0 11.9535 0 12.5C9.76564e-05 13.0465 0.403712 13.5006 0.928566 13.5796C0.955568 13.8725 0.993557 14.1644 1.04219 14.4526C0.563868 14.661 0.282081 15.1984 0.425977 15.7352C0.570265 16.2737 1.08369 16.5957 1.59912 16.5382C1.70083 16.8119 1.81387 17.0842 1.93731 17.3521C1.24322 17.9061 1.47266 19.0269 2.3377 19.2587C2.56602 19.32 2.8025 19.306 3.01827 19.221C3.1878 19.4597 3.36705 19.6929 3.55445 19.9186C3.0212 20.6382 3.54151 21.6586 4.43321 21.6586C4.66978 21.6586 4.89483 21.5839 5.08146 21.4456C5.30719 21.6331 5.54039 21.8123 5.77911 21.9818C5.45245 22.8112 6.21437 23.6656 7.07853 23.4344C7.30617 23.3734 7.50363 23.2437 7.64801 23.0628C7.91593 23.1862 8.18815 23.2993 8.46208 23.401C8.36447 24.2896 9.32228 24.9102 10.0933 24.465C10.2977 24.3471 10.455 24.1704 10.5476 23.9579C10.8359 24.0065 11.1278 24.0445 11.4206 24.0715C11.4996 24.5963 11.9536 25.0001 12.5001 25.0001C13.0466 25.0001 13.5007 24.5963 13.5797 24.0715C13.8725 24.0445 14.1645 24.0065 14.4529 23.9579C14.6654 24.4436 15.2079 24.7154 15.7354 24.5741C16.2623 24.4329 16.5961 23.9272 16.5382 23.401C16.8122 23.2992 17.0844 23.1861 17.3523 23.0628C17.4966 23.2437 17.6941 23.3734 17.9218 23.4344C18.2036 23.5098 18.4977 23.4711 18.7502 23.3253C19.0028 23.1795 19.1834 22.944 19.2589 22.6624C19.3201 22.4341 19.3062 22.1977 19.2212 21.9818C19.4599 21.8122 19.6932 21.6329 19.9189 21.4456C20.1055 21.5838 20.3306 21.6585 20.5671 21.6585C20.8588 21.6585 21.133 21.545 21.3392 21.3388C21.5454 21.1325 21.6589 20.8584 21.6589 20.5667C21.6589 20.3302 21.5842 20.1051 21.4459 19.9185C21.6333 19.6928 21.8126 19.4595 21.9821 19.2209C22.1981 19.3059 22.4346 19.3198 22.6627 19.2586C23.5274 19.0269 23.7577 17.9061 23.0631 17.352C23.1865 17.0842 23.2996 16.812 23.4013 16.5381C23.631 16.5638 23.862 16.5158 24.0658 16.3981C24.3183 16.2523 24.499 16.0168 24.5744 15.7351C24.7181 15.199 24.4375 14.6613 23.9583 14.4525C24.0069 14.1642 24.0449 13.8724 24.0719 13.5795C24.5963 13.5005 25 13.0465 25 12.5ZM23.9084 12.8594C23.8517 12.8592 23.7856 12.8599 23.7437 12.8587C23.5439 12.8515 23.3791 13.0041 23.3665 13.2014C23.3358 13.6844 23.273 14.1669 23.1797 14.6357C23.142 14.8254 23.2582 15.0116 23.4451 15.0612C23.4506 15.0626 23.5707 15.0945 23.6126 15.1056C23.8041 15.1569 23.918 15.3543 23.8667 15.5457C23.8153 15.7377 23.6183 15.8512 23.4267 15.7998L23.2597 15.7551C23.0731 15.705 22.8798 15.8085 22.818 15.9914C22.6653 16.4427 22.4789 16.8918 22.2636 17.3262C22.1779 17.4993 22.2414 17.7093 22.4087 17.8058C22.497 17.8698 22.6729 17.9092 22.727 18.1112C22.8095 18.4189 22.4767 18.6748 22.2002 18.5154L22.0715 18.4411C21.8864 18.3213 21.6673 18.382 21.5614 18.5407C21.2948 18.9397 20.9983 19.3254 20.6802 19.6872C20.5526 19.8323 20.5596 20.0515 20.6962 20.1881L20.821 20.3129C20.9611 20.453 20.9611 20.6809 20.821 20.821C20.7531 20.8889 20.6629 20.9263 20.5669 20.9263C20.4709 20.9263 20.3807 20.8889 20.3128 20.821L20.188 20.6962C20.0515 20.5597 19.8323 20.5526 19.6872 20.6802C19.3259 20.9979 18.9407 21.294 18.5422 21.5603C18.5419 21.5605 18.5416 21.5607 18.5413 21.5609C18.5412 21.561 18.5411 21.5611 18.541 21.5611C18.3745 21.6724 18.3284 21.8965 18.4367 22.0643L18.5153 22.2003C18.5633 22.2834 18.576 22.3802 18.5512 22.4729C18.5263 22.5656 18.4668 22.6431 18.3837 22.6912C18.3006 22.7392 18.2038 22.752 18.111 22.727C18.0183 22.7022 17.9409 22.6428 17.8928 22.5596L17.8057 22.4086C17.709 22.2413 17.4991 22.178 17.326 22.2636C16.8917 22.4788 16.4427 22.6653 15.9913 22.818C15.8084 22.8798 15.705 23.0731 15.755 23.2596L15.7997 23.4267C15.851 23.6181 15.737 23.8155 15.5456 23.8668C15.3543 23.918 15.1567 23.8041 15.1055 23.6127L15.0604 23.4443C15.0105 23.258 14.8245 23.1422 14.6352 23.1799C14.1664 23.273 13.6842 23.3358 13.2021 23.3665C13.0093 23.3788 12.8592 23.5388 12.8592 23.732V23.9084C12.8592 24.1065 12.698 24.2677 12.4999 24.2677C12.3017 24.2677 12.1406 24.1065 12.1406 23.9084V23.732C12.1406 23.5388 11.9905 23.3788 11.7976 23.3666C10.8699 23.3075 10.4061 23.1728 10.2929 23.1728C9.9343 23.1728 9.91843 23.5679 9.8944 23.6127C9.84309 23.8041 9.64543 23.918 9.45427 23.8668C9.26286 23.8155 9.1489 23.6181 9.20021 23.4266L9.24489 23.2596C9.29484 23.0731 9.19142 22.8798 9.00846 22.818C8.55729 22.6654 8.10817 22.4789 7.67379 22.2636C7.5008 22.1778 7.29064 22.2414 7.19411 22.4087L7.107 22.5596C7.00768 22.7315 6.78825 22.7905 6.61613 22.6911C6.4443 22.5918 6.38522 22.3724 6.48458 22.2003L6.57228 22.0486C6.66881 21.8814 6.6191 21.6681 6.45861 21.5609C6.05992 21.2945 5.67438 20.9982 5.31275 20.6802C5.16769 20.5527 4.94859 20.5597 4.81197 20.6962L4.68712 20.821C4.54679 20.9614 4.31944 20.9615 4.17891 20.821C4.03848 20.6806 4.03844 20.4533 4.17896 20.3129L4.30377 20.1881C4.44034 20.0515 4.44737 19.8323 4.31978 19.6872C4.00181 19.3257 3.70552 18.9402 3.43912 18.5414C3.33199 18.381 3.11861 18.3312 2.95152 18.4277L2.79976 18.5154C2.62872 18.6141 2.40879 18.5568 2.30884 18.3838C2.20957 18.2118 2.26832 17.9923 2.44039 17.893L2.59126 17.8058C2.7586 17.7093 2.82208 17.4993 2.73633 17.3262C2.521 16.8914 2.33453 16.4423 2.18199 15.9915C2.12012 15.8085 1.9271 15.7051 1.74024 15.7551L1.57329 15.7998C1.26182 15.8833 1.01094 15.5467 1.16914 15.2731C1.27354 15.0921 1.44961 15.1011 1.55581 15.0604C1.74214 15.0105 1.85782 14.8245 1.82017 14.6353C1.72701 14.1668 1.66421 13.6847 1.6335 13.2023C1.62124 13.0094 1.46128 12.8594 1.26807 12.8594H1.0916C0.893459 12.8594 0.732277 12.6981 0.732277 12.5C0.732228 12.3019 0.893459 12.1406 1.0916 12.1406H1.26802C1.46123 12.1406 1.62119 11.9906 1.63345 11.7977C1.66416 11.3153 1.72696 10.8331 1.82012 10.3647C1.85777 10.1755 1.74209 9.98952 1.55576 9.93957C1.45396 9.90065 1.27359 9.90813 1.16909 9.72692C1.06997 9.55544 1.12827 9.33562 1.30059 9.23605C1.48145 9.13161 1.62915 9.22722 1.74019 9.24494C1.92686 9.29489 2.12007 9.19143 2.18194 9.00851C2.33443 8.55764 2.5209 8.10851 2.73628 7.67384C2.82203 7.5007 2.75855 7.29074 2.59122 7.19416L2.44034 7.10705C2.26866 7.00783 2.20928 6.78859 2.30879 6.61618C2.40801 6.44445 2.62735 6.38512 2.79971 6.48463C2.85499 6.50245 3.14083 6.76696 3.39341 6.51427C3.48287 6.42443 3.70406 6.01281 4.31978 5.31276C4.44732 5.16769 4.44034 4.94854 4.30377 4.81192C4.23346 4.72545 4.07369 4.64264 4.07369 4.43307C4.07369 4.11373 4.46231 3.95411 4.68712 4.17896L4.81192 4.30377C4.94854 4.44029 5.16774 4.44727 5.31271 4.31978C5.67452 4.00162 6.06027 3.70523 6.45909 3.43878C6.62535 3.32774 6.67316 3.1023 6.56119 2.93233C6.52374 2.84708 6.39547 2.72584 6.44874 2.52706C6.50016 2.33521 6.69699 2.22159 6.88883 2.27295C7.09069 2.32706 7.12746 2.49922 7.19415 2.59131C7.29079 2.75865 7.5008 2.82212 7.67384 2.73638C8.10851 2.5211 8.55783 2.33453 9.00925 2.18184C9.19221 2.11998 9.29562 1.92671 9.24567 1.74019C9.24113 1.72315 9.26257 1.80196 9.20021 1.57339C9.14894 1.38199 9.26291 1.18457 9.45432 1.13325C9.64572 1.08208 9.84313 1.19595 9.8944 1.38731L9.93952 1.55572C9.98947 1.74204 10.1755 1.85777 10.3647 1.82017C10.8336 1.72696 11.3159 1.66416 11.7982 1.63355C11.9955 1.621 12.147 1.45406 12.1407 1.2564C12.1406 1.25401 12.1406 1.094 12.1406 1.0916C12.1406 0.893459 12.3019 0.732277 12.5 0.732277C12.6981 0.732277 12.8593 0.893508 12.8593 1.0916C12.8592 1.18155 12.8594 1.24409 12.8591 1.2564C12.8528 1.45406 13.0046 1.62095 13.2019 1.63355C13.6845 1.66421 14.1669 1.72705 14.6356 1.82027C14.8255 1.85801 15.0115 1.74175 15.061 1.55489C15.0622 1.55039 15.0633 1.54585 15.0643 1.54141L15.1055 1.38741C15.1568 1.196 15.3545 1.08218 15.5457 1.1333C15.7371 1.18462 15.8511 1.38203 15.7998 1.57349L15.7614 1.71695C15.7587 1.72456 15.7564 1.73233 15.7543 1.74029C15.7043 1.92681 15.8078 2.12007 15.9907 2.18194C16.4422 2.33462 16.8915 2.5212 17.3261 2.73648C17.4991 2.82212 17.7092 2.75879 17.8057 2.59146L17.893 2.44043C17.9409 2.35733 18.0184 2.2979 18.1111 2.27305C18.2038 2.2482 18.3008 2.26094 18.3838 2.30894C18.4669 2.35694 18.5264 2.43443 18.5513 2.52715C18.5761 2.61983 18.5634 2.71666 18.5154 2.79981C18.4925 2.83926 18.4435 2.92462 18.4394 2.93091C18.3271 3.09908 18.3724 3.32642 18.5406 3.43868C18.9397 3.70523 19.3256 4.00186 19.6876 4.32027C19.8337 4.44869 20.0612 4.44444 20.2025 4.28936L20.3128 4.17906C20.453 4.03897 20.6809 4.03892 20.821 4.17901C20.9611 4.31915 20.9611 4.54713 20.821 4.68722L20.6962 4.81202C20.5596 4.94864 20.5526 5.16778 20.6802 5.31285C20.9984 5.67472 21.295 6.06061 21.5615 6.45978C21.6726 6.62614 21.8969 6.67262 22.0648 6.56393C22.094 6.54523 22.1353 6.52262 22.2002 6.48473C22.4782 6.32428 22.8092 6.58244 22.727 6.88893C22.6736 7.08825 22.4991 7.12995 22.4195 7.188C22.246 7.28034 22.1744 7.49543 22.2645 7.67565C22.4793 8.10968 22.6656 8.55812 22.818 9.00866C22.8798 9.19157 23.0728 9.29494 23.2597 9.24504L23.4267 9.20026C23.6183 9.1488 23.8153 9.26252 23.8667 9.45441C23.918 9.64577 23.8041 9.84318 23.6126 9.8945L23.4628 9.93464C23.2695 9.97556 23.1405 10.1649 23.1797 10.3643C23.273 10.8336 23.3359 11.3162 23.3665 11.7987C23.3791 11.996 23.5469 12.1489 23.7436 12.1415C23.7904 12.1402 23.8446 12.141 23.9084 12.1407C24.1065 12.1407 24.2677 12.302 24.2677 12.5001C24.2677 12.6982 24.1064 12.8594 23.9084 12.8594Z" fill="white"/>
<path d="M5.6685 10.7504C5.9166 10.7504 6.11772 10.5492 6.11772 10.3011C6.11772 10.0531 5.9166 9.85193 5.6685 9.85193C5.42041 9.85193 5.21928 10.0531 5.21928 10.3011C5.21928 10.5492 5.42041 10.7504 5.6685 10.7504Z" fill="white"/>
<path d="M8.31329 18.7443C8.56139 18.7443 8.76251 18.5431 8.76251 18.295C8.76251 18.0469 8.56139 17.8458 8.31329 17.8458C8.0652 17.8458 7.86407 18.0469 7.86407 18.295C7.86407 18.5431 8.0652 18.7443 8.31329 18.7443Z" fill="white"/>
<path d="M19.3196 10.7504C19.5677 10.7504 19.7689 10.5492 19.7689 10.3011C19.7689 10.0531 19.5677 9.85193 19.3196 9.85193C19.0715 9.85193 18.8704 10.0531 18.8704 10.3011C18.8704 10.5492 19.0715 10.7504 19.3196 10.7504Z" fill="white"/>
<path d="M16.698 18.7443C16.9461 18.7443 17.1473 18.5431 17.1473 18.295C17.1473 18.0469 16.9461 17.8458 16.698 17.8458C16.4499 17.8458 16.2488 18.0469 16.2488 18.295C16.2488 18.5431 16.4499 18.7443 16.698 18.7443Z" fill="white"/>
<path d="M12.4999 5.78797C12.748 5.78797 12.9491 5.58684 12.9491 5.33875C12.9491 5.09065 12.748 4.88953 12.4999 4.88953C12.2518 4.88953 12.0507 5.09065 12.0507 5.33875C12.0507 5.58684 12.2518 5.78797 12.4999 5.78797Z" fill="white"/>
</g>
<defs>
<clipPath id="clip0">
<rect width="25" height="25" fill="white"/>
</clipPath>
</defs>
</svg>
