<svg width="70" height="60" viewBox="0 0 70 60" fill="none" xmlns="http://www.w3.org/2000/svg">
<g clip-path="url(#clip0)">
<path d="M17.9729 16.052C17.9728 16.0521 17.9725 16.0522 17.9724 16.0523C17.9726 16.0522 17.9727 16.0521 17.9729 16.052Z" fill="#00A1D3"/>
<path d="M17.9711 16.0527C17.9708 16.0528 17.9707 16.053 17.9705 16.0531C17.9707 16.0529 17.9708 16.0528 17.9711 16.0527Z" fill="#00A1D3"/>
<path d="M47.2595 26.4175L44.5427 24.0625L45.4651 21.1728C46.0541 21.5045 46.7315 21.6725 47.4098 21.6725C48.7295 21.6725 49.4913 21.0537 49.6515 20.9769C51.8274 19.4825 50.8953 17.2386 48.9249 17.2386C47.3813 17.2386 46.1372 17.2386 43.2537 17.2386C42.5272 17.3078 41.2148 16.9715 40.138 17.9236C39.7439 18.2721 39.7539 18.8285 40.1604 19.1664C40.567 19.5041 41.2162 19.4957 41.6103 19.1472C41.8876 18.9019 42.187 19.033 43.1218 18.9964C43.2551 19.0691 43.5107 19.2727 43.8435 19.6229C43.7889 19.7333 43.9665 19.217 41.388 27.2824L23.4571 19.0039L24.0643 17.5214C24.1962 17.1993 24.0984 16.8407 23.8138 16.602L21.3369 14.5251L21.8304 14.302C22.3314 14.0755 22.5233 13.544 22.2592 13.1146C21.995 12.6854 21.3749 12.5207 20.874 12.7471C16.9677 14.5009 20.8906 12.7271 17.0001 14.505C16.5009 14.7343 16.3131 15.267 16.5803 15.6948C16.8479 16.1226 17.4694 16.2836 17.9684 16.0545C17.9817 16.0485 17.988 16.0456 17.9906 16.0444C17.9874 16.0458 17.9795 16.0494 17.974 16.052C18.0118 16.0348 18.2652 15.919 19.4314 15.3862L21.913 17.467L19.6446 23.0056L18.8515 24.434C14.6199 23.0212 9.63699 23.4402 5.6931 25.9116C5.23591 26.1982 5.13625 26.7481 5.47052 27.14C5.80493 27.5319 6.44641 27.6172 6.90346 27.3308C10.2208 25.2518 14.3941 24.8799 17.9671 26.0272L17.0841 27.6174C10.7683 25.7022 4.10088 29.7344 4.10088 35.4919C4.10088 41.6941 11.7532 45.7312 18.1987 42.9598C18.7048 42.7422 18.9093 42.2139 18.6553 41.7801C18.4014 41.3463 17.7851 41.1712 17.279 41.3886C12.2025 43.5715 6.15165 40.3974 6.15165 35.492C6.15165 31.0368 11.2363 27.8458 16.197 29.2152L13.0634 34.8588L12.3753 35.1736C11.8757 35.4021 11.6868 35.9346 11.9534 36.3628C12.138 36.6592 12.4925 36.8281 12.8589 36.8281C13.0217 36.828 13.187 36.7947 13.3408 36.7244L14.3268 36.2734C14.5203 36.1848 14.6756 36.0455 14.7699 35.8755L18.0469 29.9738C21.5749 31.9547 22.5574 35.9355 20.3974 38.9395C20.1003 39.3527 20.2501 39.8941 20.7323 40.1489C21.2144 40.4035 21.846 40.275 22.1432 39.8619C24.9364 35.9773 23.5767 30.823 18.935 28.3747L19.8171 26.7861C23.2936 28.5453 25.6323 31.7879 25.6323 35.4917C25.6323 41.063 20.3443 45.5957 13.8443 45.5957C4.49996 45.5957 -1.03095 36.7194 3.88979 30.0864C4.19371 29.6768 4.05262 29.1336 3.57479 28.8732C3.09669 28.6127 2.46314 28.7336 2.15935 29.1433C-3.63433 36.9528 2.89654 47.3534 13.8445 47.3534C21.4751 47.3534 27.6832 42.0323 27.6832 35.4916C27.6832 31.0885 24.8694 27.2383 20.7025 25.1918C21.5869 23.5945 21.5124 23.7415 21.5508 23.6558L35.2658 35.2355C34.3512 36.8264 34.8357 38.7727 36.4997 39.9042L35.2214 42.2504L34.33 41.8641C33.8248 41.6451 33.2079 41.8189 32.9523 42.252C32.6968 42.6852 32.8994 43.214 33.4048 43.4329C36.9617 44.9382 36.8877 45.0229 37.3175 45.0229C38.395 45.0229 38.7398 43.7747 37.781 43.3594L37.0526 43.0438L38.3565 40.6507C40.1208 40.9638 41.9364 40.3364 42.9548 39.0386C45.6596 46.4213 55.8077 49.6567 63.4659 45.5621C63.9463 45.3053 64.0929 44.7631 63.7932 44.3512C63.4934 43.9393 62.8612 43.8136 62.3805 44.0707C55.4821 47.7592 46.3406 44.4394 44.6354 37.6072L46.6792 37.4052C47.6914 41.0905 51.5571 43.8428 56.1612 43.8428C61.5337 43.8428 65.9044 40.0965 65.9044 35.4916C65.9044 28.5209 56.4963 24.6508 50.1525 28.925L48.7064 27.6715C56.3265 22.3247 67.9494 26.949 67.9494 35.4915C67.9494 37.6765 67.145 39.7578 65.6232 41.5106C65.2851 41.9 65.3793 42.4506 65.8336 42.7403C66.2878 43.0302 66.9303 42.9494 67.2683 42.56C69.0555 40.5016 70.0002 38.0574 70.0002 35.4915C69.9999 25.3657 56.1613 19.9914 47.2595 26.4175ZM48.8508 18.9967C48.8171 19.5655 47.1644 20.6102 46.0496 19.2223C45.9867 19.144 45.925 19.0688 45.8643 18.9966L48.8508 18.9967ZM22.302 21.8237L22.7691 20.683L40.8324 29.0225L39.5281 33.1088C38.4247 33.0518 37.3941 33.3429 36.5756 33.875L22.302 21.8237ZM39.2703 38.9717L40.1879 37.2874C40.4275 36.8476 40.2058 36.3245 39.6927 36.119C39.1796 35.9139 38.5693 36.1038 38.3297 36.5435L37.4123 38.2271C36.1241 36.8971 37.2257 34.8589 39.2588 34.8589C40.5818 34.8589 41.6582 35.7815 41.6582 36.9156C41.6582 38.0463 40.588 38.9664 39.2703 38.9717ZM42.4017 34.2176C42.1307 33.9858 41.8246 33.7843 41.4918 33.6182L43.9168 26.0207L45.7913 27.6455C43.9423 29.4385 42.7152 31.7124 42.4017 34.2176ZM46.4221 35.6613L44.3834 35.8629C44.2709 33.2085 45.3557 30.769 47.2381 28.8997L48.6789 30.1487C47.2098 31.6575 46.3733 33.581 46.4221 35.6613ZM63.8527 35.4917C63.8527 39.1273 60.4019 42.0853 56.1601 42.0853C52.6087 42.0853 49.613 40.0112 48.7317 37.2023L55.3353 36.5495C56.6505 36.4194 57.2135 35.0471 56.2827 34.24L51.6035 30.1839C56.6267 27.0071 63.8527 30.0682 63.8527 35.4917ZM50.1294 31.4059L54.1562 34.8964L48.4686 35.4588C48.4775 33.9293 49.0977 32.5222 50.1294 31.4059Z" fill="#00A1D3"/>
<path d="M17.9701 16.0535C17.9672 16.055 17.9678 16.0547 17.9701 16.0535V16.0535Z" fill="#00A1D3"/>
</g>
<defs>
<clipPath id="clip0">
<rect width="70" height="60" fill="white"/>
</clipPath>
</defs>
</svg>
