<svg width="35" height="35" viewBox="0 0 35 35" fill="none" xmlns="http://www.w3.org/2000/svg">
<circle cx="17.5" cy="17.5" r="17" fill="white" stroke="#00A1D3"/>
<g clip-path="url(#clip0_2_704)">
<path d="M17.1978 19.2253C15.9116 18.1676 15.0528 16.8626 14.6012 16.12L14.2644 15.485C14.3822 15.3587 15.2802 14.3971 15.6694 13.8753C16.1585 13.2202 15.4494 12.6284 15.4494 12.6284C15.4494 12.6284 13.4543 10.633 12.9996 10.2372C12.5449 9.84082 12.0214 10.061 12.0214 10.061C11.0658 10.6784 10.0751 11.2153 10.0156 13.7972C10.0134 16.2145 11.8484 18.7077 13.8328 20.6379C15.8203 22.8177 18.5492 25.0025 21.1874 25C23.769 24.9411 24.3057 23.9505 24.9232 22.9949C24.9232 22.9949 25.1435 22.4719 24.7475 22.0168C24.3513 21.5618 22.3556 19.5662 22.3556 19.5662C22.3556 19.5662 21.7643 18.857 21.109 19.3465C20.6206 19.7116 19.7437 20.5236 19.5324 20.7204C19.5328 20.7211 18.0658 19.939 17.1978 19.2253Z" fill="#00A1D3"/>
</g>
<defs>
<clipPath id="clip0_2_704">
<rect width="15" height="15" fill="white" transform="translate(10 10)"/>
</clipPath>
</defs>
</svg>
