<svg width="20" height="20" viewBox="0 0 20 20" fill="none" xmlns="http://www.w3.org/2000/svg">
<path d="M19.9896 13.7258L17.3797 3.60137C17.3419 3.46268 17.22 3.36602 17.0729 3.36602C17.0687 3.36602 17.0687 3.36602 17.0645 3.36602C17.0603 3.36602 17.0561 3.36602 17.0519 3.36602H10.3149V1.06713C10.3149 0.894815 10.172 0.751923 9.99969 0.751923C9.82738 0.751923 9.68448 0.894815 9.68448 1.06713V3.36602H2.84244C2.83824 3.36602 2.83403 3.36602 2.82983 3.36602C2.82563 3.36602 2.82563 3.36602 2.82142 3.36602C2.67853 3.36602 2.55245 3.46689 2.51883 3.60558L0.00979779 13.73C-0.0154186 13.8224 0.00979778 13.9233 0.068636 13.9989C0.127474 14.0746 0.219934 14.1208 0.316597 14.1208H5.43552C5.53219 14.1208 5.62465 14.0746 5.68348 13.9989C5.74232 13.9233 5.76334 13.8224 5.73812 13.7258L3.23329 4.00063H9.68448V18.6177H7.50747C7.33516 18.6177 7.19227 18.7606 7.19227 18.9329C7.19227 19.1052 7.33516 19.2481 7.50747 19.2481H12.4961C12.6684 19.2481 12.8113 19.1052 12.8113 18.9329C12.8113 18.7606 12.6684 18.6177 12.4961 18.6177H10.3191V4.00063H16.6778L14.2949 13.7342C14.2739 13.8266 14.2949 13.9275 14.3537 14.0031C14.4126 14.0788 14.505 14.125 14.6017 14.125H19.687C19.7836 14.125 19.8761 14.0788 19.9349 14.0031C19.9938 13.9233 20.0148 13.8224 19.9896 13.7258ZM5.02786 13.4904H0.715857L2.82983 4.96726L5.02786 13.4904ZM15.0009 13.4904L17.0855 4.97567L19.2793 13.4904H15.0009Z" fill="#B7B7B7"/>
</svg>
