<svg width="25" height="25" viewBox="0 0 25 25" fill="none" xmlns="http://www.w3.org/2000/svg">
<g clip-path="url(#clip0)">
<path d="M24.987 17.1572L21.7246 4.50176C21.6773 4.32839 21.525 4.20757 21.3411 4.20757C21.3358 4.20757 21.3358 4.20757 21.3306 4.20757C21.3253 4.20757 21.3201 4.20757 21.3148 4.20757H12.8936V1.33395C12.8936 1.11856 12.715 0.939941 12.4996 0.939941C12.2842 0.939941 12.1056 1.11856 12.1056 1.33395V4.20757H3.55303C3.54778 4.20757 3.54253 4.20757 3.53727 4.20757C3.53202 4.20757 3.53202 4.20757 3.52677 4.20757C3.34815 4.20757 3.19055 4.33365 3.14852 4.50701L0.012232 17.1625C-0.0192885 17.2781 0.012232 17.4041 0.0857798 17.4987C0.159328 17.5933 0.274903 17.6511 0.395731 17.6511H6.79439C6.91522 17.6511 7.03079 17.5933 7.10434 17.4987C7.17789 17.4041 7.20416 17.2781 7.17264 17.1572L4.0416 5.00083H12.1056V23.2722H9.38432C9.16893 23.2722 8.99032 23.4508 8.99032 23.6662C8.99032 23.8816 9.16893 24.0602 9.38432 24.0602H15.6201C15.8355 24.0602 16.0141 23.8816 16.0141 23.6662C16.0141 23.4508 15.8355 23.2722 15.6201 23.2722H12.8989V5.00083H20.8473L17.8686 17.1677C17.8423 17.2833 17.8686 17.4094 17.9421 17.504C18.0157 17.5985 18.1313 17.6563 18.2521 17.6563H24.6087C24.7295 17.6563 24.8451 17.5985 24.9187 17.504C24.9922 17.4041 25.0185 17.2781 24.987 17.1572ZM6.28481 16.863H0.894806L3.53727 6.20912L6.28481 16.863ZM18.7512 16.863L21.3569 6.21962L24.0991 16.863H18.7512Z" fill="black"/>
</g>
<defs>
<clipPath id="clip0">
<rect width="25" height="25" fill="white"/>
</clipPath>
</defs>
</svg>
