<svg width="25" height="25" viewBox="0 0 25 25" fill="none" xmlns="http://www.w3.org/2000/svg">
<g clip-path="url(#clip0)">
<path d="M24.9951 9.55739C24.9925 9.52868 24.9868 9.50031 24.978 9.47282C24.9722 9.44826 24.9643 9.42428 24.9542 9.40114C24.9426 9.37853 24.9286 9.35714 24.9126 9.33736C24.8965 9.31388 24.8779 9.29224 24.8572 9.27276C24.8505 9.26695 24.8476 9.25899 24.8405 9.25318L20.8332 6.14096V2.91541C20.8332 2.22504 20.2735 1.66534 19.5832 1.66534H15.0675L13.2594 0.261512C12.8128 -0.0868452 12.1864 -0.0868452 11.7398 0.261512L9.93135 1.66534H5.41569C4.72532 1.66534 4.16562 2.22499 4.16562 2.91541V6.14101L0.15961 9.25323C0.15253 9.25909 0.1496 9.267 0.142959 9.27281C0.122206 9.29224 0.103601 9.31392 0.0875362 9.33741C0.0715198 9.35719 0.0575542 9.37853 0.0458837 9.40119C0.0357758 9.42428 0.0278652 9.44831 0.022152 9.47287C0.0134602 9.49997 0.00774699 9.5279 0.00506131 9.55622C0.00506131 9.56496 8.05855e-05 9.57248 8.05855e-05 9.58122V23.7498C0.000666553 24.0148 0.0864131 24.2726 0.244673 24.4852C0.247163 24.489 0.247603 24.4936 0.250484 24.4969C0.253414 24.5002 0.259664 24.504 0.263815 24.5085C0.497909 24.8166 0.86199 24.9982 1.24887 24.9998H23.75C24.1384 24.9987 24.504 24.8162 24.7384 24.5065C24.7417 24.5023 24.7467 24.5011 24.7496 24.4969C24.7526 24.4928 24.7529 24.489 24.7555 24.4853C24.9137 24.2726 24.9995 24.0148 25.0001 23.7498V9.5824C25 9.57365 24.9955 9.56614 24.9951 9.55739ZM12.2494 0.919016C12.3949 0.803385 12.601 0.803385 12.7465 0.919016L13.7078 1.66529H11.291L12.2494 0.919016ZM1.35386 24.1665L12.2494 15.7031C12.395 15.5877 12.601 15.5877 12.7465 15.7031L23.645 24.1665H1.35386ZM24.1667 23.5168L13.2594 15.0456C12.8127 14.6975 12.1865 14.6975 11.7398 15.0456L0.832154 23.5168V10.217L7.66043 15.5194C7.84237 15.6604 8.1042 15.6273 8.24528 15.4454C8.38635 15.2634 8.35324 15.0016 8.1713 14.8605L1.23427 9.47404L4.16567 7.19599V10.4157C4.16567 10.6459 4.35225 10.8324 4.58235 10.8324C4.81248 10.8324 4.99902 10.6458 4.99902 10.4157V2.91536C4.99902 2.68522 5.18555 2.49869 5.41569 2.49869H19.5831C19.8132 2.49869 19.9997 2.68522 19.9997 2.91536V10.4157C19.9997 10.6459 20.1863 10.8324 20.4164 10.8324C20.6465 10.8324 20.8331 10.6458 20.8331 10.4157V7.19599L23.7645 9.47404L16.8154 14.8702C16.6959 14.9607 16.6342 15.1086 16.654 15.2573C16.6738 15.406 16.772 15.5326 16.9111 15.5887C17.0503 15.6448 17.2088 15.6218 17.3263 15.5285L24.1666 10.217V23.5168H24.1667Z" fill="#00A1D3"/>
<path d="M17.4996 9.99902V8.33228C17.4996 5.57072 15.2609 3.33203 12.4994 3.33203C9.73781 3.33203 7.49913 5.57072 7.49913 8.33228C7.49913 11.0939 9.73781 13.3325 12.4994 13.3325C12.7295 13.3325 12.916 13.146 12.916 12.9159C12.916 12.6857 12.7295 12.4992 12.4994 12.4992C10.1981 12.4992 8.33252 10.6336 8.33252 8.33233C8.33252 6.03105 10.1981 4.16547 12.4994 4.16547C14.8007 4.16547 16.6662 6.03105 16.6662 8.33233V9.99907C16.6662 10.4593 16.2931 10.8325 15.8328 10.8325C15.3726 10.8325 14.9995 10.4593 14.9995 9.99907V8.33233C14.9995 8.1022 14.8129 7.91566 14.5828 7.91566C14.3526 7.91566 14.1661 8.1022 14.1661 8.33233C14.1661 9.25284 13.4199 9.99907 12.4994 9.99907C11.5789 9.99907 10.8326 9.25284 10.8326 8.33233C10.8326 7.41183 11.5789 6.6656 12.4994 6.6656C12.7295 6.6656 12.916 6.47907 12.916 6.24893C12.916 6.01879 12.7295 5.83226 12.4994 5.83226C11.3804 5.82977 10.396 6.57106 10.0894 7.64719C9.78274 8.72332 10.2284 9.87216 11.1806 10.4599C12.1328 11.0476 13.3595 10.9311 14.184 10.1746C14.2748 11.0558 15.0407 11.711 15.9253 11.6641C16.8099 11.6173 17.5024 10.8849 17.4996 9.99902Z" fill="#00A1D3"/>
</g>
<defs>
<clipPath id="clip0">
<rect width="25" height="25" fill="white"/>
</clipPath>
</defs>
</svg>
