<svg width="20" height="20" viewBox="0 0 20 20" fill="none" xmlns="http://www.w3.org/2000/svg">
<path d="M14.5 0.833344C12.7083 0.83611 11.0299 1.70997 10 3.17595C8.97005 1.70997 7.29167 0.83611 5.5 0.833344C2.56999 0.833344 0 3.55942 0 6.66668C0 9.695 1.70996 12.814 4.94531 15.6867C6.44434 17.0151 8.08871 18.1699 9.84701 19.1294C9.94303 19.1789 10.057 19.1789 10.153 19.1294C11.9106 18.1699 13.5545 17.015 15.0531 15.6867C18.29 12.814 20 9.695 20 6.66668C20 3.55942 17.43 0.833344 14.5 0.833344V0.833344ZM10 18.4543C8.77572 17.7787 0.666667 13.0586 0.666667 6.66668C0.666667 3.9144 2.92497 1.50001 5.5 1.50001C7.24447 1.5031 8.85254 2.44418 9.70964 3.96371C9.77376 4.0617 9.88298 4.12062 10 4.12062C10.117 4.12062 10.2262 4.0617 10.2904 3.96371C11.1475 2.44418 12.7555 1.5031 14.5 1.50001C17.075 1.50001 19.3333 3.9144 19.3333 6.66668C19.3333 13.0586 11.2243 17.7787 10 18.4543Z" fill="#B7B7B7"/>
</svg>
