<svg width="20" height="20" viewBox="0 0 20 20" fill="none" xmlns="http://www.w3.org/2000/svg">
<g clip-path="url(#clip0)">
<path d="M10.0006 0C5.8587 0 2.48886 3.36965 2.48886 7.51172C2.48886 9.05105 3.39804 11.1893 5.26835 14.0487C6.78034 16.3603 8.55796 18.576 9.51292 19.7663C9.57149 19.8393 9.64569 19.8982 9.73007 19.9387C9.81445 19.9792 9.90684 20.0002 10.0004 20.0002C10.094 20.0002 10.1864 19.9792 10.2708 19.9387C10.3552 19.8982 10.4294 19.8393 10.4879 19.7663L10.5899 19.6393C11.6058 18.3736 13.3061 16.2551 14.7686 14.0177C16.6148 11.1935 17.5123 9.06543 17.5123 7.51172C17.5123 3.36965 14.1425 0 10.0006 0V0ZM10.001 18.3752C9.01464 17.1375 7.56644 15.2781 6.3146 13.3643C4.18585 10.1098 3.73886 8.3852 3.73886 7.51172C3.73886 4.05891 6.54796 1.25 10.0006 1.25C13.4532 1.25 16.2623 4.05891 16.2623 7.51172C16.2623 10.3781 12.0339 15.8304 10.001 18.3752ZM10.0006 2.9959C9.10748 2.9959 8.23444 3.26073 7.49185 3.7569C6.74927 4.25308 6.17049 4.95831 5.8287 5.78342C5.48692 6.60853 5.39749 7.51647 5.57171 8.39241C5.74593 9.26835 6.17598 10.073 6.80748 10.7045C7.43898 11.336 8.24357 11.7661 9.1195 11.9404C9.99544 12.1146 10.9034 12.0252 11.7285 11.6835C12.5536 11.3417 13.2589 10.763 13.7551 10.0204C14.2513 9.27785 14.5162 8.40482 14.5162 7.51172C14.5149 6.31449 14.0387 5.16666 13.1922 4.32007C12.3456 3.47348 11.1978 2.99726 10.0006 2.9959ZM10.0006 10.7771C9.3547 10.7771 8.72332 10.5856 8.1863 10.2268C7.64927 9.86796 7.2307 9.35794 6.98354 8.76122C6.73637 8.16451 6.6717 7.5079 6.7977 6.87443C6.92371 6.24096 7.23473 5.65908 7.69143 5.20238C8.14814 4.74567 8.73002 4.43465 9.36349 4.30865C9.99696 4.18264 10.6536 4.24731 11.2503 4.49448C11.847 4.74165 12.357 5.16021 12.7158 5.69724C13.0747 6.23427 13.2662 6.86564 13.2662 7.51152C13.2652 8.37734 12.9209 9.20741 12.3087 9.81965C11.6964 10.4319 10.8664 10.7763 10.0006 10.7773V10.7771Z" fill="#00A1D3"/>
</g>
<defs>
<clipPath id="clip0">
<rect width="20" height="20" fill="white"/>
</clipPath>
</defs>
</svg>
