<svg width="73" height="52" viewBox="0 0 73 52" fill="none" xmlns="http://www.w3.org/2000/svg">
<g clip-path="url(#clip0)">
<path fill-rule="evenodd" clip-rule="evenodd" d="M61.5967 2.46535C60.9491 3.05007 60.4911 3.43724 60.0647 3.86393C59.6382 4.29061 59.3618 4.65408 59.6698 5.17558C60.2089 6.21179 60.8266 7.20503 61.5177 8.14656C61.9121 8.61752 62.4351 8.96326 63.0228 9.14149C63.6104 9.31971 64.2373 9.32269 64.8266 9.15005C66.1047 8.77581 67.2435 8.03132 68.0994 7.01044C68.9552 5.98956 69.4899 4.738 69.6359 3.41354C69.7069 1.64359 69.0515 0.742819 67.3299 0.252924C67.148 0.207252 66.9634 0.172945 66.7771 0.150204C63.8323 -0.210147 60.8445 0.0591751 58.0115 0.940357C57.8298 0.987767 57.6877 1.1537 57.3402 1.39865L61.5967 2.46535Z" fill="white"/>
<path fill-rule="evenodd" clip-rule="evenodd" d="M61.5967 2.46526L57.3165 1.40646C57.664 1.16151 57.8061 0.995579 57.9878 0.94817C60.8208 0.0669876 63.8086 -0.202334 66.7535 0.158016C66.9397 0.180758 67.1243 0.215064 67.3063 0.260736C69.0278 0.734828 69.6754 1.6356 69.6122 3.42135C69.4662 4.74581 68.9315 5.99738 68.0757 7.01826C67.2198 8.03913 66.081 8.78362 64.8029 9.15786C64.2136 9.3305 63.5867 9.32752 62.9991 9.1493C62.4114 8.97108 61.8884 8.62533 61.494 8.15437C60.803 7.21285 60.1852 6.2196 59.6461 5.18339C59.3382 4.65399 59.6461 4.22731 60.041 3.87174C60.4358 3.51617 60.9255 3.04998 61.5967 2.46526Z" fill="#1C75BC"/>
<path fill-rule="evenodd" clip-rule="evenodd" d="M25.2231 18.1736C25.2231 18.1736 2.3691 19.2166 0 19.3588C0 19.4141 25.2231 20.0779 25.2231 20.0779V18.1736Z" fill="#195183"/>
<path fill-rule="evenodd" clip-rule="evenodd" d="M31.3907 11.9077L13.9304 13.488C13.9304 13.5591 31.3986 13.5275 31.3986 13.5275L31.3907 11.9077Z" fill="#195183"/>
<path fill-rule="evenodd" clip-rule="evenodd" d="M57.3165 18.1814H60.7596L65.3162 38.9308H64.5186L57.3165 18.1814Z" fill="#195183"/>
<path fill-rule="evenodd" clip-rule="evenodd" d="M49.7512 25.7591C49.0089 25.0569 48.165 24.4709 47.2478 24.0208C45.3052 23.0805 43.2993 22.2825 41.3093 21.4291C39.7299 20.7496 38.1505 20.0938 36.6184 19.3826C36.1805 19.1601 35.7807 18.8694 35.4339 18.5213C35.348 18.4579 35.2796 18.3737 35.2351 18.2766C35.1905 18.1795 35.1713 18.0727 35.1792 17.9662C35.1871 17.8597 35.2218 17.7569 35.2802 17.6674C35.3385 17.578 35.4186 17.5048 35.5129 17.4546C36.0101 17.1057 36.5389 16.8041 37.0923 16.5539C40.4248 15.1316 59.9462 12.2633 59.9462 12.2633C59.5921 10.5317 59.0874 8.83427 58.4379 7.19054C58.2831 6.6485 57.9365 6.18128 57.4629 5.87598C56.9892 5.57069 56.4207 5.44816 55.8635 5.53122C53.3285 5.69715 50.7857 5.76827 48.2507 5.89469C43.781 6.12384 39.3113 6.36878 34.8258 6.60583L22.6802 7.26166C20.4927 7.37228 18.25 7.61723 16.0546 7.73575C16.7101 7.93329 40.4801 8.42318 40.8591 8.5259C41.2382 8.62862 40.3932 8.95259 40.1642 9.06321C38.6717 9.79805 37.1476 10.4855 35.6787 11.2835C33.0524 12.5814 30.6778 14.3365 28.6662 16.4669C28.066 17.1436 27.5733 17.9084 27.2052 18.7347C26.8996 19.3575 26.8161 20.0662 26.9683 20.7431C27.1206 21.42 27.4995 22.0245 28.0423 22.4563C29.0559 23.3762 30.2351 24.0948 31.517 24.5739C33.6413 25.3641 35.7972 26.1147 37.953 26.8417C39.6746 27.4185 41.4277 27.9163 43.1572 28.4931C43.8126 28.7143 44.7366 28.983 45.0051 29.5598C45.0051 30.5554 24.0227 41.5622 23.391 42.0205C23.4541 42.1074 40.2353 36.8055 47.3505 32.3174C48.2431 31.7415 49.0671 31.0655 49.8065 30.3025C51.3306 28.7854 51.3306 27.2288 49.7512 25.7591Z" fill="#1C75BC"/>
<path fill-rule="evenodd" clip-rule="evenodd" d="M25.61 50.1828C22.3637 50.2059 19.2411 48.9376 16.9293 46.6571C14.6175 44.3766 13.3058 41.2706 13.2828 38.0224C13.2597 34.7742 14.5272 31.6498 16.8065 29.3367C19.0857 27.0236 22.1899 25.7111 25.4363 25.6881C26.734 25.6761 28.0242 25.8872 29.2505 26.3123C26.9858 24.7424 24.2901 23.9142 21.5352 23.9418C17.87 24.0507 14.3931 25.5907 11.8484 28.2322C9.30367 30.8736 7.89331 34.4067 7.91911 38.0755C7.94491 41.7442 9.40482 45.2571 11.9864 47.8625C14.5681 50.4678 18.0663 51.9587 21.7326 52.016C24.4904 51.9995 27.1751 51.1271 29.4164 49.5191C28.194 49.9531 26.9071 50.1775 25.61 50.1828Z" fill="#195183"/>
<path fill-rule="evenodd" clip-rule="evenodd" d="M69.1936 50.1828C67.5862 50.1942 65.9923 49.8888 64.5028 49.2838C63.0134 48.6789 61.6576 47.7863 60.5129 46.6571C58.2011 44.3766 56.8894 41.2706 56.8664 38.0224C56.8434 34.7742 58.1109 31.6498 60.3901 29.3367C62.6693 27.0236 65.7735 25.7111 69.0199 25.6881C70.3177 25.6761 71.6078 25.8872 72.8342 26.3123C70.5694 24.7424 67.8737 23.9142 65.1188 23.9418C61.4537 24.0507 57.9767 25.5907 55.432 28.2322C52.8873 30.8736 51.4769 34.4067 51.5027 38.0755C51.5285 41.7442 52.9884 45.2571 55.5701 47.8625C58.1517 50.4678 61.6499 51.9587 65.3162 52.016C68.0738 51.9985 70.7583 51.1262 73 49.5191C71.7776 49.9531 70.4907 50.1775 69.1936 50.1828Z" fill="#195183"/>
</g>
<defs>
<clipPath id="clip0">
<rect width="73" height="52" fill="white"/>
</clipPath>
</defs>
</svg>
