<svg width="25" height="25" viewBox="0 0 25 25" fill="none" xmlns="http://www.w3.org/2000/svg">
<g clip-path="url(#clip0)">
<path d="M24.4792 4.6875H0.52085C0.23335 4.6875 0 4.92085 0 5.20835C0 5.49585 0.23335 5.7292 0.52085 5.7292H24.4792C24.7667 5.7292 25 5.49585 25 5.20835C25 4.92085 24.7667 4.6875 24.4792 4.6875Z" fill="white"/>
<path d="M24.4792 11.9791H0.52085C0.23335 11.9791 0 12.2125 0 12.5C0 12.7875 0.23335 13.0208 0.52085 13.0208H24.4792C24.7667 13.0208 25 12.7875 25 12.5C25 12.2125 24.7667 11.9791 24.4792 11.9791Z" fill="white"/>
<path d="M24.4792 19.2709H0.52085C0.23335 19.2709 0 19.5042 0 19.7917C0 20.0792 0.23335 20.3125 0.52085 20.3125H24.4792C24.7667 20.3125 25 20.0792 25 19.7917C25 19.5042 24.7667 19.2709 24.4792 19.2709Z" fill="white"/>
</g>
<defs>
<clipPath id="clip0">
<rect width="25" height="25" fill="white"/>
</clipPath>
</defs>
</svg>
