<svg width="15" height="25" viewBox="0 0 15 25" fill="none" xmlns="http://www.w3.org/2000/svg">
<path d="M13.7501 0H1.25008C0.559744 0 7.62939e-05 0.559619 7.62939e-05 1.25V23.75C7.62939e-05 24.4403 0.559695 25 1.25008 25H13.7501C14.4404 25 15.0001 24.4404 15.0001 23.75V1.25C15.0001 0.559619 14.4404 0 13.7501 0ZM14.1667 3.33335H4.58343C4.3533 3.33335 4.16677 3.51987 4.16677 3.75C4.16677 3.98013 4.3533 4.16665 4.58343 4.16665H14.1668V20.4167H12.9168C12.6866 20.4167 12.5001 20.6032 12.5001 20.8333C12.5001 21.0634 12.6866 21.25 12.9168 21.25H14.1668V23.75C14.1668 23.9801 13.9803 24.1666 13.7501 24.1666H1.25008C1.01995 24.1666 0.833426 23.9801 0.833426 23.75V21.25H10.4168C10.6469 21.25 10.8334 21.0634 10.8334 20.8333C10.8334 20.6032 10.6469 20.4167 10.4168 20.4167H0.833426V4.16665H2.08343C2.31355 4.16665 2.50008 3.98013 2.50008 3.75C2.50008 3.51987 2.31355 3.33335 2.08343 3.33335H0.833426V1.25C0.833426 1.01987 1.01995 0.83335 1.25008 0.83335H13.7501C13.9802 0.83335 14.1667 1.01987 14.1667 1.25V3.33335Z" fill="#00A1D3"/>
<path d="M7.91676 22.5H7.0834C6.85327 22.5 6.66675 22.6865 6.66675 22.9167C6.66675 23.1468 6.85327 23.3333 7.0834 23.3333H7.91676C8.14689 23.3333 8.33341 23.1468 8.33341 22.9167C8.33341 22.6865 8.14689 22.5 7.91676 22.5Z" fill="#00A1D3"/>
<path d="M3.45175 6.79372L2.50258 7.36247C2.15346 7.56823 1.89765 7.90129 1.78881 8.29162C1.43129 9.59538 1.68549 11.83 4.92841 15.0724C7.4959 17.6395 9.43135 18.3333 10.7734 18.3333C11.0895 18.3346 11.4042 18.2935 11.7093 18.2112C12.0993 18.1022 12.432 17.8464 12.6376 17.4974L13.2085 16.5487C13.4537 16.1417 13.3351 15.6137 12.9393 15.3508L10.6667 13.8379C10.2782 13.5819 9.75825 13.6665 9.4709 14.0324L8.8105 14.8816C8.79473 14.9035 8.76523 14.9104 8.74131 14.8979L8.61631 14.8283C7.8938 14.4337 7.24218 13.9212 6.68838 13.312C6.07924 12.7582 5.56674 12.1066 5.17211 11.3841L5.10253 11.2566C5.08984 11.2329 5.09677 11.2034 5.11879 11.1879L5.96836 10.527C6.33437 10.2398 6.41865 9.71975 6.16211 9.33161L4.6496 7.06242C4.38622 6.66735 3.85878 6.54904 3.45175 6.79372ZM3.9559 7.52497L4.77841 8.75915L5.4684 9.79167C5.48457 9.81643 5.47934 9.84938 5.45634 9.86794L4.60678 10.5283C4.25844 10.7953 4.15937 11.2778 4.37426 11.6604L4.44008 11.7813C4.87138 12.5747 5.43198 13.2906 6.09882 13.8996C6.70781 14.5664 7.42373 15.127 8.21714 15.5583L8.33755 15.6241C8.72036 15.8389 9.20283 15.7399 9.47007 15.3916L10.1305 14.5425C10.1487 14.5194 10.1816 14.5139 10.2063 14.53L12.4746 16.042C12.4999 16.0587 12.5075 16.0924 12.4917 16.1183L11.923 17.0666C11.8274 17.2315 11.6719 17.3531 11.4888 17.4058C10.5946 17.6516 8.63296 17.5983 5.51752 14.4824C2.4017 11.367 2.3475 9.40412 2.59252 8.5112C2.6453 8.32809 2.76684 8.17253 2.93168 8.07702L3.88002 7.50827C3.88876 7.50275 3.89887 7.49987 3.90917 7.49992C3.92802 7.50002 3.9455 7.50939 3.9559 7.52497Z" fill="#00A1D3"/>
</svg>
