<svg width="38" height="38" viewBox="0 0 38 38" fill="none" xmlns="http://www.w3.org/2000/svg">
<path d="M19 38C8.52298 38 0 29.477 0 19C0 8.52298 8.52298 0 19 0C29.477 0 38 8.52298 38 19C38 29.477 29.477 38 19 38ZM19 2.375C9.83253 2.375 2.375 9.83253 2.375 19C2.375 28.1675 9.83253 35.625 19 35.625C28.1675 35.625 35.625 28.1675 35.625 19C35.625 9.83253 28.1675 2.375 19 2.375Z" fill="#00A1D3"/>
<path d="M27.3125 20.1875H10.6875C10.032 20.1875 9.5 19.6555 9.5 19C9.5 18.3445 10.032 17.8125 10.6875 17.8125H27.3125C27.968 17.8125 28.5 18.3445 28.5 19C28.5 19.6555 27.968 20.1875 27.3125 20.1875Z" fill="#00A1D3"/>
<path d="M19 28.5C18.3445 28.5 17.8125 27.968 17.8125 27.3125V10.6875C17.8125 10.032 18.3445 9.5 19 9.5C19.6555 9.5 20.1875 10.032 20.1875 10.6875V27.3125C20.1875 27.968 19.6555 28.5 19 28.5Z" fill="#00A1D3"/>
</svg>
