<svg width="0" height="0" class="hidden">
  <symbol xmlns="http://www.w3.org/2000/svg" viewBox="0 0 70 60" id="bicycle-tab">
    <g clip-path="url(#clip0)">
      <path d="M17.9729 16.052C17.9728 16.0521 17.9725 16.0522 17.9724 16.0523C17.9726 16.0522 17.9727 16.0521 17.9729 16.052Z"></path>
      <path d="M17.9711 16.0527C17.9708 16.0528 17.9707 16.053 17.9705 16.0531C17.9707 16.0529 17.9708 16.0528 17.9711 16.0527Z"></path>
      <path d="M47.2595 26.4175L44.5427 24.0625L45.4651 21.1728C46.0541 21.5045 46.7315 21.6725 47.4098 21.6725C48.7295 21.6725 49.4913 21.0537 49.6515 20.9769C51.8274 19.4825 50.8953 17.2386 48.9249 17.2386C47.3813 17.2386 46.1372 17.2386 43.2537 17.2386C42.5272 17.3078 41.2148 16.9715 40.138 17.9236C39.7439 18.2721 39.7539 18.8285 40.1604 19.1664C40.567 19.5041 41.2162 19.4957 41.6103 19.1472C41.8876 18.9019 42.187 19.033 43.1218 18.9964C43.2551 19.0691 43.5107 19.2727 43.8435 19.6229C43.7889 19.7333 43.9665 19.217 41.388 27.2824L23.4571 19.0039L24.0643 17.5214C24.1962 17.1993 24.0984 16.8407 23.8138 16.602L21.3369 14.5251L21.8304 14.302C22.3314 14.0755 22.5233 13.544 22.2592 13.1146C21.995 12.6854 21.3749 12.5207 20.874 12.7471C16.9677 14.5009 20.8906 12.7271 17.0001 14.505C16.5009 14.7343 16.3131 15.267 16.5803 15.6948C16.8479 16.1226 17.4694 16.2836 17.9684 16.0545C17.9817 16.0485 17.988 16.0456 17.9906 16.0444C17.9874 16.0458 17.9795 16.0494 17.974 16.052C18.0118 16.0348 18.2652 15.919 19.4314 15.3862L21.913 17.467L19.6446 23.0056L18.8515 24.434C14.6199 23.0212 9.63699 23.4402 5.6931 25.9116C5.23591 26.1982 5.13625 26.7481 5.47052 27.14C5.80493 27.5319 6.44641 27.6172 6.90346 27.3308C10.2208 25.2518 14.3941 24.8799 17.9671 26.0272L17.0841 27.6174C10.7683 25.7022 4.10088 29.7344 4.10088 35.4919C4.10088 41.6941 11.7532 45.7312 18.1987 42.9598C18.7048 42.7422 18.9093 42.2139 18.6553 41.7801C18.4014 41.3463 17.7851 41.1712 17.279 41.3886C12.2025 43.5715 6.15165 40.3974 6.15165 35.492C6.15165 31.0368 11.2363 27.8458 16.197 29.2152L13.0634 34.8588L12.3753 35.1736C11.8757 35.4021 11.6868 35.9346 11.9534 36.3628C12.138 36.6592 12.4925 36.8281 12.8589 36.8281C13.0217 36.828 13.187 36.7947 13.3408 36.7244L14.3268 36.2734C14.5203 36.1848 14.6756 36.0455 14.7699 35.8755L18.0469 29.9738C21.5749 31.9547 22.5574 35.9355 20.3974 38.9395C20.1003 39.3527 20.2501 39.8941 20.7323 40.1489C21.2144 40.4035 21.846 40.275 22.1432 39.8619C24.9364 35.9773 23.5767 30.823 18.935 28.3747L19.8171 26.7861C23.2936 28.5453 25.6323 31.7879 25.6323 35.4917C25.6323 41.063 20.3443 45.5957 13.8443 45.5957C4.49996 45.5957 -1.03095 36.7194 3.88979 30.0864C4.19371 29.6768 4.05262 29.1336 3.57479 28.8732C3.09669 28.6127 2.46314 28.7336 2.15935 29.1433C-3.63433 36.9528 2.89654 47.3534 13.8445 47.3534C21.4751 47.3534 27.6832 42.0323 27.6832 35.4916C27.6832 31.0885 24.8694 27.2383 20.7025 25.1918C21.5869 23.5945 21.5124 23.7415 21.5508 23.6558L35.2658 35.2355C34.3512 36.8264 34.8357 38.7727 36.4997 39.9042L35.2214 42.2504L34.33 41.8641C33.8248 41.6451 33.2079 41.8189 32.9523 42.252C32.6968 42.6852 32.8994 43.214 33.4048 43.4329C36.9617 44.9382 36.8877 45.0229 37.3175 45.0229C38.395 45.0229 38.7398 43.7747 37.781 43.3594L37.0526 43.0438L38.3565 40.6507C40.1208 40.9638 41.9364 40.3364 42.9548 39.0386C45.6596 46.4213 55.8077 49.6567 63.4659 45.5621C63.9463 45.3053 64.0929 44.7631 63.7932 44.3512C63.4934 43.9393 62.8612 43.8136 62.3805 44.0707C55.4821 47.7592 46.3406 44.4394 44.6354 37.6072L46.6792 37.4052C47.6914 41.0905 51.5571 43.8428 56.1612 43.8428C61.5337 43.8428 65.9044 40.0965 65.9044 35.4916C65.9044 28.5209 56.4963 24.6508 50.1525 28.925L48.7064 27.6715C56.3265 22.3247 67.9494 26.949 67.9494 35.4915C67.9494 37.6765 67.145 39.7578 65.6232 41.5106C65.2851 41.9 65.3793 42.4506 65.8336 42.7403C66.2878 43.0302 66.9303 42.9494 67.2683 42.56C69.0555 40.5016 70.0002 38.0574 70.0002 35.4915C69.9999 25.3657 56.1613 19.9914 47.2595 26.4175ZM48.8508 18.9967C48.8171 19.5655 47.1644 20.6102 46.0496 19.2223C45.9867 19.144 45.925 19.0688 45.8643 18.9966L48.8508 18.9967ZM22.302 21.8237L22.7691 20.683L40.8324 29.0225L39.5281 33.1088C38.4247 33.0518 37.3941 33.3429 36.5756 33.875L22.302 21.8237ZM39.2703 38.9717L40.1879 37.2874C40.4275 36.8476 40.2058 36.3245 39.6927 36.119C39.1796 35.9139 38.5693 36.1038 38.3297 36.5435L37.4123 38.2271C36.1241 36.8971 37.2257 34.8589 39.2588 34.8589C40.5818 34.8589 41.6582 35.7815 41.6582 36.9156C41.6582 38.0463 40.588 38.9664 39.2703 38.9717ZM42.4017 34.2176C42.1307 33.9858 41.8246 33.7843 41.4918 33.6182L43.9168 26.0207L45.7913 27.6455C43.9423 29.4385 42.7152 31.7124 42.4017 34.2176ZM46.4221 35.6613L44.3834 35.8629C44.2709 33.2085 45.3557 30.769 47.2381 28.8997L48.6789 30.1487C47.2098 31.6575 46.3733 33.581 46.4221 35.6613ZM63.8527 35.4917C63.8527 39.1273 60.4019 42.0853 56.1601 42.0853C52.6087 42.0853 49.613 40.0112 48.7317 37.2023L55.3353 36.5495C56.6505 36.4194 57.2135 35.0471 56.2827 34.24L51.6035 30.1839C56.6267 27.0071 63.8527 30.0682 63.8527 35.4917ZM50.1294 31.4059L54.1562 34.8964L48.4686 35.4588C48.4775 33.9293 49.0977 32.5222 50.1294 31.4059Z"></path>
      <path d="M17.9701 16.0535C17.9672 16.055 17.9678 16.0547 17.9701 16.0535V16.0535Z" ></path>
    </g>
    <defs>
      <clipPath id="clip0">
        <rect width="70" height="60" ></rect>
      </clipPath>
    </defs>
  </symbol>
  <symbol xmlns="http://www.w3.org/2000/svg" viewBox="0 0 60 60" id="tab-water">
    <path d="M24.6967 23.8873C24.685 23.8311 24.6686 23.776 24.6463 23.7232C24.624 23.6705 24.5971 23.6189 24.5655 23.5709C24.5326 23.5229 24.4963 23.4783 24.4554 23.4373C24.4155 23.3975 24.3709 23.36 24.3217 23.3283C24.2749 23.2967 24.2233 23.2697 24.1705 23.2475C24.1179 23.2252 24.0627 23.2088 24.0066 23.1971C23.7206 23.1396 23.4171 23.2334 23.2132 23.4373C23.0493 23.6014 22.9554 23.8275 22.9554 24.0596C22.9554 24.2904 23.0493 24.5166 23.2132 24.6807C23.3761 24.8447 23.6033 24.9385 23.8342 24.9385C23.8916 24.9385 23.949 24.9326 24.0066 24.9209C24.0628 24.9092 24.1179 24.8928 24.1705 24.8705C24.2233 24.8482 24.2749 24.8213 24.3217 24.7896C24.3709 24.758 24.4155 24.7217 24.4554 24.6807C24.4964 24.6396 24.5326 24.5951 24.5655 24.5471C24.5972 24.499 24.624 24.4486 24.6463 24.3959C24.6685 24.342 24.685 24.2869 24.6967 24.2307C24.7073 24.1744 24.7131 24.117 24.7131 24.0596C24.7131 24.0021 24.7073 23.9447 24.6967 23.8873Z"></path>
    <path d="M28.9739 23.8873C28.9621 23.8311 28.9457 23.776 28.9235 23.7232C28.9012 23.6705 28.8742 23.6189 28.8426 23.5709C28.8098 23.5229 28.7735 23.4783 28.7326 23.4373C28.5696 23.2744 28.3435 23.1807 28.1114 23.1807C27.8805 23.1807 27.6533 23.2744 27.4903 23.4373C27.4492 23.4783 27.4129 23.5229 27.3813 23.5709C27.3496 23.6189 27.3215 23.6705 27.3004 23.7232C27.2783 23.776 27.2606 23.8311 27.25 23.8873C27.2383 23.9447 27.2325 24.0021 27.2325 24.0596C27.2325 24.2904 27.3263 24.5166 27.4903 24.6807C27.6533 24.8447 27.8805 24.9385 28.1114 24.9385C28.3434 24.9385 28.5696 24.8447 28.7326 24.6807C28.8965 24.5178 28.9903 24.2904 28.9903 24.0596C28.9903 24.0021 28.9844 23.9447 28.9739 23.8873Z"></path>
    <path d="M33.251 23.8874C33.2392 23.8311 33.2228 23.776 33.2006 23.7233C33.1783 23.6706 33.1513 23.619 33.1197 23.5709C33.0869 23.5229 33.0506 23.4784 33.0097 23.4374C32.9697 23.3975 32.9252 23.3612 32.876 23.3284C32.8292 23.2967 32.7775 23.2698 32.7248 23.2475C32.6722 23.2252 32.617 23.2088 32.5608 23.1971C32.4471 23.1749 32.3299 23.1749 32.2174 23.1971C32.1612 23.2088 32.1062 23.2252 32.0522 23.2475C31.9995 23.2698 31.9478 23.2967 31.9011 23.3284C31.853 23.3612 31.8072 23.3975 31.7674 23.4374C31.7264 23.4784 31.69 23.5229 31.6584 23.5709C31.6266 23.619 31.5986 23.6706 31.5775 23.7233C31.5554 23.776 31.5377 23.8311 31.5271 23.8874C31.5154 23.9448 31.5096 24.0022 31.5096 24.0596C31.5096 24.117 31.5155 24.1745 31.5271 24.2307C31.5377 24.287 31.5553 24.342 31.5775 24.3959C31.5987 24.4487 31.6267 24.4991 31.6584 24.5471C31.69 24.5952 31.7264 24.6409 31.7674 24.6807C31.8072 24.7217 31.8529 24.7581 31.9011 24.7897C31.9478 24.8213 31.9995 24.8495 32.0522 24.8706C32.1062 24.8928 32.1612 24.9092 32.2174 24.9209C32.2736 24.9327 32.3312 24.9385 32.3885 24.9385C32.4459 24.9385 32.5033 24.9327 32.5608 24.9209C32.617 24.9092 32.6722 24.8928 32.7248 24.8706C32.7775 24.8495 32.8292 24.8213 32.876 24.7897C32.9252 24.7581 32.9697 24.7217 33.0097 24.6807C33.1736 24.5166 33.2674 24.2905 33.2674 24.0596C33.2674 24.0022 33.2615 23.9448 33.251 23.8874Z"></path>
    <path d="M37.5283 23.8873C37.5166 23.8311 37.5001 23.776 37.4779 23.7232C37.4556 23.6705 37.4287 23.6189 37.397 23.5709C37.3654 23.5229 37.3279 23.4783 37.288 23.4373C37.2469 23.3975 37.2025 23.36 37.1544 23.3283C37.1064 23.2967 37.0547 23.2697 37.002 23.2475C36.9494 23.2252 36.8942 23.2088 36.838 23.1982C36.7242 23.1748 36.6071 23.1748 36.4946 23.1982C36.4384 23.2088 36.3833 23.2252 36.3294 23.2475C36.2767 23.2697 36.2262 23.2967 36.1783 23.3283C36.1302 23.36 36.0844 23.3975 36.0446 23.4373C36.0035 23.4783 35.9672 23.5229 35.9356 23.5709C35.9038 23.6189 35.8758 23.6705 35.8547 23.7232C35.8326 23.776 35.816 23.8311 35.8043 23.8873C35.7926 23.9447 35.7867 24.0022 35.7867 24.0596C35.7867 24.117 35.7927 24.1744 35.8043 24.2307C35.816 24.2869 35.8324 24.342 35.8547 24.3959C35.8759 24.4486 35.9039 24.499 35.9356 24.5471C35.9672 24.5951 36.0035 24.6408 36.0446 24.6807C36.0844 24.7217 36.1301 24.758 36.1783 24.7897C36.2262 24.8213 36.2767 24.8494 36.3294 24.8705C36.3833 24.8928 36.4384 24.9092 36.4946 24.9209C36.5508 24.9326 36.6083 24.9385 36.6657 24.9385C36.7231 24.9385 36.7805 24.9326 36.838 24.9209C36.8942 24.9092 36.9494 24.8928 37.002 24.8705C37.0547 24.8494 37.1064 24.8213 37.1544 24.7897C37.2024 24.758 37.2469 24.7217 37.288 24.6807C37.3279 24.6408 37.3654 24.5951 37.397 24.5471C37.4288 24.499 37.4556 24.4486 37.4779 24.3959C37.5 24.342 37.5166 24.2869 37.5283 24.2307C37.5388 24.1744 37.5447 24.117 37.5447 24.0596C37.5447 24.0022 37.5388 23.9447 37.5283 23.8873Z"></path>
    <path d="M26.2271 26.5134C26.0631 26.3505 25.8369 26.2567 25.6059 26.2567C25.374 26.2567 25.1477 26.3505 24.9836 26.5134C24.8196 26.6774 24.7258 26.9036 24.7258 27.1356C24.7257 27.193 24.7316 27.2505 24.7434 27.3067C24.7551 27.363 24.7714 27.418 24.7938 27.4719C24.8161 27.5247 24.843 27.5751 24.8747 27.6231C24.9063 27.6712 24.9425 27.7157 24.9836 27.7567C25.0247 27.7977 25.0691 27.8341 25.1172 27.8657C25.1653 27.8973 25.2157 27.9255 25.2684 27.9466C25.3223 27.9688 25.3775 27.9852 25.4336 27.9969C25.4899 28.0087 25.5485 28.0145 25.6059 28.0145C25.8369 28.0145 26.0629 27.9208 26.2271 27.7567C26.267 27.7157 26.3043 27.6712 26.3361 27.6231C26.3676 27.5751 26.3947 27.5247 26.4168 27.4719C26.4391 27.418 26.4555 27.363 26.4674 27.3067C26.4791 27.2505 26.4848 27.193 26.4848 27.1356C26.4848 26.9036 26.3899 26.6774 26.2271 26.5134Z" ></path>
    <path d="M30.7449 26.9634C30.7331 26.9071 30.7168 26.852 30.6944 26.7993C30.6722 26.7466 30.6452 26.695 30.6136 26.6469C30.5819 26.5989 30.5445 26.5544 30.5047 26.5134C30.3406 26.3505 30.1144 26.2567 29.8835 26.2567C29.6516 26.2567 29.4253 26.3505 29.2612 26.5134C29.2214 26.5544 29.1839 26.5989 29.1522 26.6469C29.1205 26.695 29.0936 26.7466 29.0714 26.7993C29.0491 26.852 29.0327 26.9071 29.021 26.9634C29.0091 27.0208 29.0045 27.0782 29.0045 27.1356C29.0046 27.193 29.0093 27.2505 29.0211 27.3067C29.0328 27.363 29.0491 27.418 29.0715 27.4719C29.0937 27.5247 29.1207 27.5751 29.1523 27.6231C29.184 27.6712 29.2215 27.7169 29.2613 27.7567C29.4253 27.9208 29.6516 28.0145 29.8836 28.0145C29.9399 28.0145 29.9985 28.0087 30.0547 27.9969C30.1109 27.9852 30.166 27.9688 30.2187 27.9466C30.2726 27.9255 30.323 27.8973 30.3711 27.8657C30.4191 27.8341 30.4636 27.7977 30.5048 27.7567C30.6677 27.5938 30.7613 27.3665 30.7613 27.1356C30.7613 27.0782 30.7554 27.0208 30.7449 26.9634Z"></path>
    <path d="M35.0223 26.9634C35.0105 26.9072 34.9942 26.8521 34.9718 26.7993C34.9497 26.7466 34.9226 26.695 34.8911 26.647C34.8593 26.5989 34.822 26.5544 34.7821 26.5134C34.741 26.4736 34.6966 26.4361 34.6484 26.4044C34.6003 26.3728 34.55 26.3458 34.4961 26.3236C34.4433 26.3013 34.3882 26.2849 34.332 26.2732C34.2183 26.2509 34.1023 26.2509 33.9886 26.2732C33.9324 26.2849 33.8773 26.3013 33.8246 26.3236C33.7706 26.3458 33.7203 26.3728 33.6722 26.4044C33.6242 26.4361 33.5796 26.4736 33.5386 26.5134C33.4975 26.5544 33.4613 26.5989 33.4296 26.647C33.398 26.695 33.371 26.7466 33.3488 26.7993C33.3265 26.8521 33.3101 26.9072 33.2984 26.9634C33.2865 27.0208 33.2808 27.0782 33.2808 27.1357C33.2807 27.1931 33.2865 27.2505 33.2984 27.3068C33.3101 27.363 33.3264 27.4181 33.3488 27.472C33.371 27.5247 33.398 27.5751 33.4296 27.6232C33.4613 27.6712 33.4975 27.7169 33.5386 27.7568C33.5796 27.7978 33.624 27.8341 33.6722 27.8657C33.7203 27.8974 33.7706 27.9255 33.8246 27.9466C33.8773 27.9689 33.9325 27.9853 33.9886 27.997C34.0449 28.0087 34.1023 28.0146 34.1597 28.0146C34.2171 28.0146 34.2757 28.0087 34.332 27.997C34.3882 27.9853 34.4433 27.9689 34.4961 27.9466C34.55 27.9255 34.6003 27.8974 34.6484 27.8657C34.6964 27.8341 34.741 27.7978 34.7821 27.7568C34.822 27.7169 34.8593 27.6712 34.8911 27.6232C34.9227 27.5751 34.9497 27.5247 34.9718 27.472C34.9941 27.4181 35.0105 27.363 35.0223 27.3068C35.0341 27.2505 35.0388 27.1931 35.0388 27.1357C35.0388 27.0782 35.0341 27.0208 35.0223 26.9634Z"></path>
    <path d="M26.4672 20.8112C26.4554 20.7549 26.4391 20.6999 26.4167 20.6471C26.3945 20.5944 26.3675 20.5428 26.336 20.4948C26.3042 20.4467 26.2668 20.4022 26.227 20.3612C26.1858 20.3213 26.1414 20.2838 26.0933 20.2522C26.0452 20.2206 25.9948 20.1936 25.9409 20.1713C25.8882 20.1491 25.8331 20.1327 25.7768 20.1209C25.6632 20.0987 25.5472 20.0987 25.4335 20.1209C25.3774 20.1327 25.3222 20.1491 25.2683 20.1713C25.2155 20.1936 25.1651 20.2206 25.1171 20.2522C25.069 20.2838 25.0245 20.3213 24.9835 20.3612C24.9424 20.4022 24.9061 20.4467 24.8745 20.4948C24.8427 20.5428 24.8159 20.5944 24.7936 20.6471C24.7714 20.6999 24.755 20.7549 24.7433 20.8112C24.7314 20.8686 24.7257 20.926 24.7257 20.9834C24.7257 21.2143 24.8194 21.4416 24.9835 21.6045C25.0245 21.6456 25.069 21.6819 25.1171 21.7135C25.1651 21.7452 25.2155 21.7721 25.2683 21.7944C25.3222 21.8166 25.3774 21.8331 25.4335 21.8448C25.4897 21.8565 25.5483 21.8624 25.6058 21.8624C25.8367 21.8624 26.0628 21.7686 26.227 21.6045C26.3899 21.4416 26.4847 21.2143 26.4847 20.9834C26.4847 20.926 26.4788 20.8686 26.4672 20.8112Z"></path>
    <path d="M30.7449 20.8111C30.7331 20.7549 30.7168 20.6998 30.6944 20.6471C30.6722 20.5943 30.6452 20.5428 30.6136 20.4947C30.5819 20.4467 30.5445 20.4022 30.5047 20.3611C30.4635 20.3213 30.4191 20.2838 30.371 20.2522C30.3229 20.2205 30.2725 20.1936 30.2186 20.1713C30.1659 20.149 30.1108 20.1326 30.0546 20.1221C29.7687 20.0635 29.4652 20.1572 29.2612 20.3611C29.2214 20.4022 29.1839 20.4467 29.1522 20.4947C29.1205 20.5428 29.0936 20.5943 29.0714 20.6471C29.0491 20.6998 29.0327 20.7549 29.021 20.8111C29.0091 20.8686 29.0045 20.926 29.0045 20.9834C29.0045 21.0408 29.0091 21.0982 29.021 21.1545C29.0327 21.2108 29.0491 21.2658 29.0714 21.3197C29.0936 21.3725 29.1206 21.4229 29.1522 21.4709C29.1839 21.519 29.2214 21.5647 29.2612 21.6045C29.4241 21.7686 29.6514 21.8623 29.8835 21.8623C29.9398 21.8623 29.9984 21.8565 30.0546 21.8447C30.1108 21.833 30.1659 21.8166 30.2186 21.7943C30.2725 21.7733 30.3229 21.7451 30.371 21.7135C30.419 21.6818 30.4635 21.6455 30.5047 21.6045C30.5445 21.5635 30.5819 21.519 30.6136 21.4709C30.6453 21.4229 30.6722 21.3725 30.6944 21.3197C30.7166 21.2658 30.7331 21.2108 30.7449 21.1545C30.7554 21.0982 30.7613 21.0408 30.7613 20.9834C30.7613 20.926 30.7554 20.8686 30.7449 20.8111Z"></path>
    <path d="M35.0222 20.8112C35.0103 20.7549 34.994 20.6999 34.9717 20.6471C34.9495 20.5944 34.9224 20.5428 34.8909 20.4948C34.8592 20.4467 34.8218 20.4022 34.7819 20.3612C34.7408 20.3213 34.6964 20.2838 34.6482 20.2522C34.6002 20.2206 34.5498 20.1936 34.4959 20.1713C34.4431 20.1491 34.3881 20.1327 34.3318 20.1209C34.2181 20.0987 34.1021 20.0987 33.9884 20.1209C33.9322 20.1327 33.8771 20.1491 33.8244 20.1713C33.7705 20.1936 33.7201 20.2206 33.672 20.2522C33.624 20.2838 33.5795 20.3213 33.5385 20.3612C33.4973 20.4022 33.4611 20.4467 33.4295 20.4948C33.3978 20.5428 33.3709 20.5944 33.3486 20.6471C33.3263 20.6999 33.3099 20.7549 33.2982 20.8112C33.2864 20.8686 33.2806 20.926 33.2806 20.9834C33.2806 21.0409 33.2865 21.0983 33.2982 21.1545C33.3099 21.2108 33.3263 21.2659 33.3486 21.3198C33.3709 21.3725 33.3978 21.4229 33.4295 21.4709C33.4611 21.519 33.4973 21.5647 33.5385 21.6045C33.5795 21.6456 33.6239 21.6819 33.672 21.7135C33.7201 21.7452 33.7705 21.7733 33.8244 21.7944C33.8771 21.8166 33.9323 21.8331 33.9884 21.8448C34.0447 21.8565 34.1021 21.8624 34.1595 21.8624C34.217 21.8624 34.2756 21.8565 34.3318 21.8448C34.3881 21.8331 34.4431 21.8166 34.4959 21.7944C34.5498 21.7733 34.6002 21.7452 34.6482 21.7135C34.6963 21.6819 34.7408 21.6456 34.7819 21.6045C34.8218 21.5647 34.8592 21.519 34.8909 21.4709C34.9226 21.4229 34.9495 21.3725 34.9717 21.3198C34.9939 21.2659 35.0103 21.2108 35.0222 21.1545C35.0339 21.0983 35.0386 21.0409 35.0386 20.9834C35.0386 20.926 35.0339 20.8686 35.0222 20.8112Z"></path>
    <path d="M39.1632 30.9375C41.4327 29.1652 42.7147 26.7019 42.7147 24.0486C42.7147 20.5491 41.1827 17.8387 38.2778 16.1756V14.9409C38.2778 13.7375 37.3422 12.7511 36.1608 12.6645C38.2176 12.109 39.736 10.2279 39.736 7.99781C39.736 5.3325 37.5676 3.16395 34.9021 3.16395H33.4734V2.28504C33.4734 1.02516 32.4482 0 31.1883 0H28.8447C27.5847 0 26.5597 1.02516 26.5597 2.28504V3.16395H26.0364C25.5509 3.16395 25.1575 3.55746 25.1575 4.04285C25.1575 4.52824 25.5509 4.92176 26.0364 4.92176H27.5558V9.49195H27.1456C25.506 9.49195 24.3161 11.0756 24.7884 12.6559H24.0403C22.7803 12.6559 21.7552 13.6811 21.7552 14.9409V16.1759C20.7713 16.7401 19.9337 17.4325 19.262 18.2402C18.9515 18.6135 19.0025 19.1677 19.3757 19.478C19.7491 19.7884 20.303 19.7374 20.6136 19.3642C21.1994 18.6598 21.9509 18.0594 22.8496 17.5774H37.1841C39.6882 18.9184 40.9573 21.0945 40.9573 24.0485C40.9573 26.4375 39.6848 28.57 37.3736 30.0534C36.9861 30.3023 36.7549 30.7241 36.7549 31.1815C36.7549 31.7522 37.1616 32.2398 37.722 32.3411C39.5869 32.6777 40.9424 34.2887 40.9567 36.178H37.3714C36.8859 36.178 36.4925 36.5714 36.4925 37.0569C36.4925 37.5424 36.8859 37.9358 37.3714 37.9358H40.9572V39.2256H19.0439V37.9358H33.2697C33.7552 37.9358 34.1486 37.5424 34.1486 37.0569C34.1486 36.5714 33.7552 36.178 33.2697 36.178H19.0441C19.0597 34.1416 20.6553 32.4363 22.6903 32.2893C23.2828 32.2465 23.7469 31.7468 23.7469 31.1517C23.7469 30.7118 23.5244 30.3068 23.1508 30.068C20.5406 28.4019 19.0434 26.2078 19.0434 24.0485C19.0434 23.5849 19.0782 23.128 19.1469 22.6902C19.2221 22.2107 18.8943 21.7609 18.4148 21.6857C17.9352 21.6109 17.4855 21.9383 17.4104 22.4179C16.8534 25.9693 18.3568 28.662 21.1614 30.8188C18.9034 31.5829 17.2857 33.7295 17.2857 36.2079C17.2857 43.8952 17.2857 46.2805 17.2857 53.2936C17.2856 58.2934 22.5617 61.5272 26.9752 59.2651C28.8712 60.2368 31.1265 60.2381 33.0248 59.2651C37.4386 61.5272 42.7144 58.2928 42.7144 53.2937C42.7144 50.9125 42.7144 38.5588 42.7144 36.208C42.7147 33.8541 41.2757 31.7921 39.1632 30.9375ZM32.477 4.92176C33.2076 4.92176 33.8076 4.92176 34.9018 4.92176C36.5981 4.92176 37.9778 6.30176 37.9778 7.99781C37.9778 9.60082 36.7451 10.9206 35.1781 11.0609C34.8199 10.144 33.9291 9.49184 32.8872 9.49184H32.477V4.92176ZM28.317 2.28504C28.317 1.99922 28.5585 1.7577 28.8444 1.7577H31.188C31.4739 1.7577 31.7153 1.99922 31.7153 2.28504V3.16395C31.3198 3.16395 28.7133 3.16395 28.317 3.16395V2.28504ZM30.7194 4.92176V9.49195H29.3131V4.92176H30.7194ZM27.1453 11.2496C28.4815 11.2496 31.5548 11.2496 32.8872 11.2496C33.275 11.2496 33.5903 11.565 33.5903 11.9528C33.5903 12.3405 33.275 12.6559 32.8872 12.6559H27.1453C26.7575 12.6559 26.4421 12.3405 26.4421 11.9528C26.4421 11.565 26.7575 11.2496 27.1453 11.2496ZM36.5199 15.8198H23.5126V14.9409C23.5126 14.6551 23.7541 14.4136 24.0399 14.4136C26.3394 14.4136 33.0499 14.4136 35.9927 14.4136C36.2786 14.4136 36.52 14.6551 36.52 14.9409V15.8198H36.5199ZM40.9567 53.2938C40.9567 57.1645 36.7271 59.5124 33.487 57.5094C33.2038 57.3343 32.8458 57.3343 32.5627 57.5094C31.793 57.9853 30.9067 58.2368 30.0001 58.2368C27.736 58.2368 27.4052 56.9578 26.5132 57.5094C25.7435 57.9853 24.8572 58.2368 23.9505 58.2368C21.2448 58.2368 19.0434 56.0195 19.0434 53.2938V53.2086H40.9567V53.2938ZM40.9567 48.4035H25.8855C25.4 48.4035 25.0066 48.7969 25.0066 49.2824C25.0066 49.7679 25.4 50.1613 25.8855 50.1613H40.9567V51.4511H19.0434V50.1613H21.7841C22.2696 50.1613 22.663 49.7679 22.663 49.2824C22.663 48.7969 22.2696 48.4035 21.7841 48.4035H19.0434V40.9834H40.9567V48.4035Z"></path>
  </symbol>
  <symbol xmlns="http://www.w3.org/2000/svg" viewBox="0 0 60 60" id="tab-brake">
    <g clip-path="url(#clip0)">
      <path d="M54.0052 27.1098C53.8794 26.0595 52.8311 25.3856 51.8272 25.7102C50.4749 26.1479 46.0399 27.5833 44.6619 28.0293C44.5251 28.0736 44.3892 27.9813 44.3683 27.8425C44.1349 26.2813 43.6499 24.7774 42.9267 23.3724C42.8688 23.2598 42.9176 23.1203 43.0413 23.0803C43.6431 22.8855 49.3003 21.0546 49.9754 20.8361C51.1159 20.4667 51.6314 19.144 51.0409 18.1037C47.5375 11.9304 41.555 7.61664 34.6275 6.26816C33.5795 6.06449 32.6036 6.86617 32.6036 7.93539C32.6036 16.098 32.6321 15.7115 32.5449 15.6954C28.9541 15.0576 27.3962 15.9555 27.3962 15.5915C27.3962 13.9373 27.3962 9.53454 27.3962 7.8809C27.3962 6.84238 26.4489 6.06109 25.4279 6.25738C22.4027 6.83899 19.55 7.98274 16.9492 9.65665C16.5412 9.91938 16.4232 10.4633 16.6859 10.8714C16.9488 11.2797 17.4927 11.3971 17.9007 11.1347C20.2769 9.60497 22.8794 8.55321 25.6382 8.00723V9.76845C19.8207 11.026 14.9417 14.7269 12.082 19.6542C10.8296 19.2014 10.6116 19.2664 10.5318 19.0596C10.5143 19.0141 10.5024 18.9445 10.545 18.8701C11.677 16.8994 13.1018 15.1121 14.7798 13.5574C15.136 13.2275 15.1572 12.6713 14.8273 12.3153C14.4973 11.959 13.941 11.9378 13.5852 12.2678C11.7767 13.9433 10.2412 15.8698 9.02077 17.9946C8.39323 19.0866 8.93687 20.484 10.1391 20.873C10.1555 20.8784 9.92429 20.8035 12.2289 21.5493C17.3329 23.2012 17.2038 23.122 17.1566 23.2119C15.4874 26.358 15.7993 28.1782 15.4987 28.0811C14.3055 27.695 9.3707 26.0977 8.21136 25.7225C7.18538 25.3906 6.11557 26.0814 5.98936 27.1518C5.18874 33.935 7.26179 41.0053 12.254 46.402C13.0253 47.2359 14.3659 47.1544 15.0315 46.2367L16.4595 44.2684C19.4125 40.2505 19.4317 39.9653 19.6583 40.1945C20.8444 41.3974 22.2149 42.3765 23.7398 43.1009C23.3227 43.6757 19.6649 48.7177 19.2659 49.2676C18.5883 50.2013 18.9345 51.523 19.9838 52.0025C23.6147 53.662 27.4759 54.3522 31.3385 54.1401C31.8232 54.1135 32.1945 53.699 32.1678 53.2144C32.1412 52.7296 31.726 52.3577 31.2421 52.3851C27.5609 52.5864 24.0113 51.9108 20.7144 50.4039C20.6761 50.3865 20.6623 50.3371 20.6886 50.3L21.6721 48.9443C26.9835 51.2922 33.0704 51.2684 38.3277 48.9443L39.3611 50.3691C38.0155 50.9899 36.5988 51.478 35.1478 51.8206C34.6754 51.9321 34.3829 52.4054 34.4943 52.8779C34.606 53.3506 35.0797 53.6429 35.5517 53.5314C37.1743 53.1482 38.7573 52.5963 40.2572 51.8908C40.6944 51.685 41.0146 51.2977 41.1353 50.8282C41.2568 50.3556 41.1621 49.858 40.8757 49.4633C39.5924 47.6945 36.9607 44.0518 36.2743 43.1019C37.7831 42.3766 39.1472 41.4029 40.3284 40.208C40.3793 40.1565 40.4359 40.1499 40.4756 40.1523C40.5135 40.1551 40.5671 40.1703 40.6078 40.2264C40.8395 40.5458 44.6105 45.7438 44.955 46.2187C45.3016 46.6962 45.8477 46.9691 46.4283 46.9691C46.9345 46.9691 47.4155 46.7597 47.7613 46.3852C52.7346 40.9984 54.8218 33.9248 54.0052 27.1098ZM13.5453 45.2087C9.00156 40.2968 6.99307 33.8 7.72925 27.4139L9.40644 27.9568C8.83667 33.7486 10.6941 39.4679 14.6122 43.8221C13.5585 45.2745 13.5929 45.2598 13.5453 45.2087ZM44.3301 42.3632L42.0309 39.194C41.3269 38.2234 39.921 38.12 39.0788 38.9721C36.4004 41.6819 34.9538 41.1568 34.57 42.6742C34.4402 43.1879 34.544 43.7284 34.8552 44.1572L37.2701 47.4858C32.7443 49.373 27.4706 49.4707 22.7307 47.4858L25.1631 44.1333C25.8082 43.2438 25.4818 41.9947 24.493 41.5203C21.0044 39.8451 21.0594 38.2626 19.3925 38.3911C18.8276 38.4336 18.3128 38.7211 17.9799 39.1798L15.6706 42.363C12.4301 38.6177 10.7198 33.7107 11.1242 28.5126L14.958 29.7535C16.0466 30.1059 17.1927 29.3908 17.3479 28.2588C17.8695 24.4484 19.3912 23.9953 18.7881 22.5077C18.5855 22.0078 18.1751 21.6261 17.6621 21.46L13.7984 20.2095C16.4102 15.9126 20.6641 12.7764 25.6389 11.5711V15.591C25.6389 16.1401 25.8799 16.6576 26.3 17.0108C27.5512 18.0637 28.4111 16.7457 32.2378 17.4256C33.3437 17.6218 34.362 16.7685 34.362 15.6397V11.5713C36.1366 11.9908 37.8367 12.6644 39.4278 13.5817C39.8482 13.824 40.3858 13.6799 40.6282 13.2594C40.8706 12.8388 40.7264 12.3013 40.3058 12.059C38.4453 10.9864 36.4493 10.2173 34.3619 9.76821V8.00723C40.7556 9.27274 46.2745 13.2656 49.5127 18.9712C49.5545 19.0448 49.5146 19.1377 49.4346 19.1636L47.9184 19.6544C46.8187 17.7557 45.4288 16.0495 43.7791 14.5745C43.417 14.251 42.8617 14.2819 42.5381 14.6439C42.2146 15.0058 42.2456 15.5614 42.6075 15.8849C44.023 17.1506 45.2286 18.6024 46.2029 20.2095L42.5005 21.4078C41.9528 21.5851 41.513 21.9917 41.2936 22.5235C40.6656 24.0468 42.0845 24.4537 42.6305 28.1023C42.8119 29.3159 44.0358 30.0793 45.2037 29.7015L48.8764 28.5127C49.2695 33.5702 47.6664 38.5062 44.3301 42.3632ZM46.4701 45.1927C46.3744 45.2924 46.3457 45.0901 45.3886 43.8221C49.249 39.5317 51.1713 33.8267 50.5942 27.9568L52.2713 27.4139C53.0061 33.7794 51.0103 40.2749 46.4701 45.1927Z"></path>
      <path d="M60 29.9999C60 28.6884 59.0312 27.5986 57.7716 27.409C57.7068 26.7063 57.6156 26.0056 57.4989 25.3137C59.4585 24.4599 59.6154 21.7175 57.7569 20.6443C57.2678 20.3618 56.7136 20.2473 56.1621 20.3082C55.918 19.651 55.6467 18.9978 55.3506 18.3549C56.3366 17.5677 56.6427 16.1462 55.9807 14.9999C55.6308 14.3937 55.0657 13.9602 54.3896 13.7791C53.8419 13.6322 53.2742 13.6655 52.7562 13.8694C52.3492 13.2966 51.9187 12.7367 51.4691 12.1948C52.2259 11.17 52.1406 9.71416 51.213 8.7865C50.2854 7.85908 48.8294 7.77353 47.8047 8.53045C47.2628 8.08056 46.7029 7.65025 46.1301 7.24337C46.3342 6.72529 46.3673 6.15775 46.2206 5.61001C46.0394 4.93396 45.6059 4.36899 44.9997 4.01907C44.3938 3.66927 43.6876 3.57622 43.0114 3.75727C42.465 3.90376 41.9909 4.21513 41.6447 4.64907C41.0016 4.35306 40.3483 4.08165 39.6909 3.83743C39.8298 2.57438 39.0287 1.36067 37.7642 1.02199C36.4982 0.682736 35.196 1.335 34.6859 2.5009C33.994 2.38418 33.2933 2.29301 32.5904 2.22809C32.4015 0.968908 31.3117 0 30.0001 0C28.6885 0 27.5988 0.968908 27.409 2.22844C26.7064 2.29325 26.0058 2.38442 25.314 2.50114C25.0919 1.99125 24.7143 1.56727 24.2236 1.28403C22.3727 0.215625 20.0744 1.7052 20.3088 3.83778C19.6513 4.08188 18.998 4.35329 18.355 4.64942C17.5683 3.66364 16.1466 3.35719 15 4.01942C14.3938 4.36934 13.9603 4.93442 13.7792 5.61036C13.6324 6.15822 13.6656 6.72587 13.8696 7.24373C13.2968 7.65072 12.7369 8.08115 12.195 8.5308C11.1702 7.77388 9.71439 7.85931 8.78674 8.78685C7.84091 9.73279 7.78537 11.19 8.53045 12.1954C8.08068 12.7373 7.65037 13.2969 7.24361 13.8698C5.24896 13.0842 3.20274 14.9182 3.75751 16.9884C3.90387 17.5347 4.21524 18.0086 4.64931 18.355C4.35317 18.9981 4.08177 19.6513 3.83766 20.3084C3.28606 20.2466 2.732 20.362 2.24297 20.6445C0.385313 21.7169 0.540118 24.4594 2.50102 25.314C2.3843 26.0056 2.29313 26.7063 2.22832 27.4093C0.968791 27.5986 0 28.6884 0 29.9999C0.000234375 31.3116 0.968908 32.4014 2.22856 32.5911C2.29336 33.294 2.38454 33.9946 2.50125 34.6863C1.35328 35.1864 0.676993 36.4761 1.02235 37.7645C1.36864 39.0568 2.60086 39.8297 3.8379 39.6917C4.082 40.3487 4.35329 41.002 4.64954 41.6451C2.98372 42.9746 3.53438 45.6645 5.61048 46.2208C6.15845 46.3679 6.72599 46.3345 7.24384 46.1304C7.65072 46.7032 8.08091 47.263 8.53068 47.8047C7.25087 49.5316 8.49963 51.9806 10.6397 51.9806C11.2075 51.9806 11.7476 51.8013 12.1955 51.4694C12.7373 51.9193 13.2969 52.3495 13.8699 52.7564C13.0859 54.7469 14.9145 56.7975 16.9885 56.2425C17.5348 56.0961 18.0087 55.7848 18.3552 55.3507C18.9982 55.6468 19.6516 55.9182 20.309 56.1623C20.0747 58.2952 22.3735 59.7845 24.2239 58.7161C24.7144 58.433 25.0919 58.0089 25.3142 57.4989C26.0061 57.6157 26.7066 57.7069 27.4094 57.7717C27.599 59.0312 28.6887 60.0001 30.0003 60.0001C31.3119 60.0001 32.4016 59.0312 32.5913 57.7717C33.2941 57.7069 33.9948 57.6157 34.6869 57.4989C35.1969 58.6645 36.4991 59.3169 37.765 58.9778C39.0295 58.639 39.8306 57.4254 39.6917 56.1623C40.3493 55.9181 41.0026 55.6467 41.6455 55.3507C41.9919 55.7848 42.4658 56.0961 43.0122 56.2425C43.6886 56.4236 44.3946 56.3306 45.0006 55.9807C45.6068 55.6308 46.0402 55.0657 46.2214 54.3898C46.3681 53.8419 46.335 53.2744 46.131 52.7563C46.7038 52.3492 47.2636 51.919 47.8053 51.4693C48.2532 51.8012 48.7935 51.9805 49.3611 51.9805C50.0611 51.9805 50.7191 51.7079 51.214 51.213C51.7089 50.718 51.9813 50.0601 51.9813 49.3602C51.9813 48.7924 51.8021 48.2523 51.4703 47.8045C51.9199 47.2628 52.3502 46.7028 52.7571 46.1301C53.2754 46.3342 53.843 46.3676 54.3906 46.2206C56.4659 45.6645 57.0184 42.9747 55.3515 41.6449C55.6475 41.002 55.9189 40.3488 56.163 39.6915C56.7144 39.7531 57.2687 39.6378 57.7578 39.3554C58.3639 39.0055 58.7975 38.4403 58.9786 37.7643C59.3235 36.4776 58.6499 35.187 57.4998 34.6859C57.6165 33.9942 57.7077 33.2937 57.7725 32.5907C59.0311 32.4012 60 31.3115 60 29.9999ZM57.3802 30.8626C57.2441 30.8621 57.0854 30.8639 56.9848 30.8608C56.5053 30.8436 56.1097 31.2099 56.0796 31.6835C56.006 32.8424 55.8552 34.0006 55.6314 35.1257C55.5409 35.5809 55.8198 36.0278 56.2683 36.1468C56.2814 36.1502 56.5698 36.2267 56.6703 36.2534C57.1297 36.3766 57.4032 36.8504 57.2802 37.3096C57.1567 37.7705 56.6838 38.0428 56.2241 37.9196L55.8233 37.8121C55.3754 37.692 54.9116 37.9405 54.7631 38.3795C54.3968 39.4624 53.9492 40.5403 53.4327 41.5828C53.2269 41.9983 53.3792 42.5022 53.7808 42.734C53.9927 42.8875 54.415 42.982 54.5449 43.4668C54.7428 44.2053 53.944 44.8195 53.2806 44.4369L52.9717 44.2585C52.5274 43.9711 52.0016 44.1167 51.7473 44.4976C51.1076 45.4552 50.396 46.381 49.6324 47.2494C49.3263 47.5976 49.3431 48.1235 49.6708 48.4514L49.9704 48.7509C50.3067 49.0871 50.3067 49.6342 49.9704 49.9705C49.8075 50.1334 49.591 50.223 49.3606 50.223C49.1303 50.223 48.9137 50.1333 48.7508 49.9704L48.4513 49.6708C48.1235 49.3432 47.5976 49.3263 47.2493 49.6324C46.3822 50.3949 45.4576 51.1056 44.5012 51.7448C44.5005 51.7453 44.4998 51.7458 44.4991 51.7462C44.4989 51.7464 44.4986 51.7466 44.4983 51.7467C44.0987 52.0138 43.9882 52.5517 44.2481 52.9542L44.4366 53.2807C44.5518 53.4803 44.5824 53.7125 44.5228 53.9351C44.4631 54.1575 44.3204 54.3435 44.1209 54.4588C43.9214 54.574 43.6892 54.6047 43.4665 54.5449C43.244 54.4853 43.0581 54.3427 42.9427 54.143L42.7336 53.7807C42.5016 53.3791 41.9977 53.2273 41.5824 53.4327C40.5402 53.949 39.4624 54.3967 38.3792 54.7631C37.9402 54.9116 37.692 55.3754 37.8119 55.8231L37.9193 56.224C38.0423 56.6834 37.7688 57.1571 37.3094 57.2803C36.8504 57.4031 36.3761 57.1298 36.2531 56.6706L36.1449 56.2664C36.0252 55.8192 35.5789 55.5412 35.1246 55.6317C33.9993 55.8553 32.8421 56.006 31.6851 56.0796C31.2223 56.1091 30.8621 56.493 30.8621 56.9568V57.3802C30.8621 57.8557 30.4751 58.2425 29.9997 58.2425C29.5242 58.2425 29.1373 57.8556 29.1373 57.3802V56.9568C29.1373 56.493 28.7771 56.1091 28.3143 56.0797C26.0879 55.9379 24.9747 55.6147 24.7031 55.6147C23.8423 55.6147 23.8042 56.5629 23.7466 56.6705C23.6234 57.1298 23.149 57.4032 22.6902 57.2803C22.2309 57.1571 21.9573 56.6834 22.0805 56.2239L22.1877 55.8231C22.3076 55.3754 22.0594 54.9116 21.6203 54.7631C20.5375 54.3969 19.4596 53.9494 18.4171 53.4327C18.0019 53.2268 17.4975 53.3792 17.2659 53.7808L17.0568 54.1431C16.8184 54.5557 16.2918 54.6971 15.8787 54.4587C15.4663 54.2204 15.3245 53.6937 15.563 53.2808L15.7735 52.9166C16.0051 52.5155 15.8859 52.0033 15.5007 51.7461C14.5438 51.1069 13.6185 50.3958 12.7506 49.6325C12.4024 49.3264 11.8766 49.3433 11.5487 49.6708L11.2491 49.9704C10.9123 50.3074 10.3667 50.3076 10.0294 49.9704C9.69236 49.6335 9.69225 49.088 10.0295 48.7509L10.329 48.4514C10.6568 48.1235 10.6737 47.5976 10.3675 47.2494C9.60435 46.3816 8.89326 45.4564 8.25388 44.4993C7.99677 44.1144 7.48466 43.995 7.08365 44.2265L6.71943 44.4369C6.30892 44.6737 5.78111 44.5364 5.54122 44.1212C5.30298 43.7083 5.44396 43.1816 5.85693 42.9431L6.21904 42.734C6.62064 42.5022 6.77298 41.9983 6.5672 41.5828C6.0504 40.5395 5.60286 39.4616 5.23677 38.3796C5.08829 37.9405 4.62505 37.6923 4.17657 37.8121L3.77591 37.9196C3.02837 38.1199 2.42625 37.3121 2.80594 36.6554C3.05649 36.221 3.47907 36.2425 3.73395 36.145C4.18114 36.0252 4.45876 35.5789 4.36841 35.1247C4.14481 34.0004 3.99411 32.8433 3.9204 31.6855C3.89098 31.2227 3.50708 30.8624 3.04337 30.8624H2.61985C2.1443 30.8624 1.75746 30.4755 1.75746 30.0001C1.75735 29.5245 2.1443 29.1376 2.61985 29.1376H3.04325C3.50696 29.1376 3.89087 28.7773 3.92028 28.3146C3.99399 27.1566 4.1447 25.9995 4.36829 24.8753C4.45864 24.4211 4.18102 23.9749 3.73384 23.855C3.4895 23.7616 3.05661 23.7795 2.80583 23.3446C2.56793 22.9331 2.70786 22.4055 3.12141 22.1665C3.55548 21.9159 3.90997 22.1453 4.17645 22.1879C4.62446 22.3077 5.08817 22.0594 5.23665 21.6204C5.60263 20.5383 6.05017 19.4604 6.56708 18.4172C6.77287 18.0017 6.62052 17.4978 6.21892 17.266L5.85681 17.0569C5.44478 16.8188 5.30228 16.2926 5.5411 15.8788C5.77923 15.4667 6.30564 15.3243 6.71931 15.5631C6.85197 15.6059 7.53798 16.2407 8.1442 15.6343C8.35888 15.4186 8.88974 14.4307 10.3675 12.7506C10.6736 12.4024 10.6568 11.8765 10.329 11.5486C10.1603 11.3411 9.77686 11.1423 9.77686 10.6394C9.77686 9.87295 10.7096 9.48986 11.2491 10.0295L11.5486 10.329C11.8765 10.6567 12.4026 10.6735 12.7505 10.3675C13.6189 9.60389 14.5446 8.89256 15.5018 8.25306C15.9009 7.98658 16.0156 7.44552 15.7469 7.03759C15.657 6.83298 15.3491 6.54201 15.477 6.06493C15.6004 5.6045 16.0728 5.33181 16.5332 5.45509C17.0177 5.58493 17.1059 5.99814 17.266 6.21915C17.4979 6.62076 18.0019 6.7731 18.4172 6.56732C19.4604 6.05064 20.5388 5.60286 21.6222 5.23642C22.0613 5.08794 22.3095 4.62411 22.1896 4.17645C22.1787 4.13556 22.2302 4.3247 22.0805 3.77614C21.9575 3.31676 22.231 2.84297 22.6904 2.71981C23.1497 2.597 23.6235 2.87028 23.7466 3.32954L23.8549 3.73372C23.9747 4.18091 24.4212 4.45864 24.8752 4.36841C26.0007 4.1447 27.1583 3.99399 28.3156 3.92052C28.7892 3.8904 29.1528 3.48973 29.1378 3.01536C29.1374 3.00962 29.1376 2.62559 29.1376 2.61985C29.1376 2.1443 29.5245 1.75746 29.9999 1.75746C30.4755 1.75746 30.8623 2.14442 30.8623 2.61985C30.8621 2.83571 30.8627 2.98583 30.8619 3.01536C30.8467 3.48973 31.211 3.89028 31.6845 3.92052C32.8427 3.99411 34.0005 4.14493 35.1254 4.36864C35.5811 4.45923 36.0276 4.1802 36.1464 3.73173C36.1493 3.72095 36.1519 3.71005 36.1543 3.69938L36.2533 3.32977C36.3764 2.8704 36.8507 2.59723 37.3096 2.71993C37.769 2.84309 38.0425 3.31688 37.9195 3.77637L37.8273 4.12067C37.8209 4.13895 37.8153 4.15759 37.8103 4.17669C37.6904 4.62435 37.9387 5.08817 38.3777 5.23665C39.4613 5.6031 40.5396 6.05087 41.5827 6.56755C41.9979 6.7731 42.502 6.62111 42.7338 6.2195L42.9431 5.85704C43.0582 5.65759 43.2441 5.51497 43.4667 5.45532C43.6892 5.39567 43.9218 5.42626 44.1212 5.54146C44.3206 5.65665 44.4634 5.84263 44.523 6.06517C44.5827 6.28759 44.5521 6.51997 44.4369 6.71954C44.382 6.81423 44.2644 7.01908 44.2545 7.03419C43.9851 7.43779 44.0939 7.98342 44.4974 8.25283C45.4552 8.89256 46.3814 9.60447 47.2503 10.3687C47.6008 10.6769 48.1469 10.6667 48.4861 10.2945L48.7507 10.0297C49.0871 9.69353 49.6342 9.69342 49.9704 10.0296C50.3066 10.366 50.3067 10.9131 49.9704 11.2493L49.6708 11.5489C49.3431 11.8767 49.3263 12.4027 49.6324 12.7508C50.3962 13.6193 51.1079 14.5455 51.7476 15.5035C52.0142 15.9027 52.5525 16.0143 52.9556 15.7534C53.0257 15.7085 53.1247 15.6543 53.2806 15.5634C53.9476 15.1783 54.742 15.7978 54.5449 16.5334C54.4167 17.0118 53.9978 17.1119 53.8069 17.2512C53.3904 17.4728 53.2186 17.989 53.4348 18.4216C53.9504 19.4632 54.3974 20.5395 54.7631 21.6208C54.9115 22.0598 55.3748 22.3079 55.8233 22.1881L56.224 22.0806C56.6838 21.9571 57.1568 22.23 57.2802 22.6906C57.4032 23.1499 57.1297 23.6236 56.6702 23.7468L56.3108 23.8431C55.8469 23.9413 55.5371 24.3957 55.6314 24.8744C55.8553 26.0006 56.0061 27.1588 56.0796 28.3169C56.1097 28.7903 56.5125 29.1574 56.9846 29.1397C57.097 29.1365 57.227 29.1384 57.3802 29.1378C57.8557 29.1378 58.2425 29.5247 58.2425 30.0002C58.2424 30.4757 57.8555 30.8626 57.3802 30.8626Z"></path>
      <path d="M13.6043 25.8008C14.1998 25.8008 14.6825 25.3181 14.6825 24.7227C14.6825 24.1272 14.1998 23.6445 13.6043 23.6445C13.0089 23.6445 12.5262 24.1272 12.5262 24.7227C12.5262 25.3181 13.0089 25.8008 13.6043 25.8008Z"></path>
      <path d="M19.9518 44.9862C20.5472 44.9862 21.0299 44.5035 21.0299 43.9081C21.0299 43.3127 20.5472 42.83 19.9518 42.83C19.3564 42.83 18.8737 43.3127 18.8737 43.9081C18.8737 44.5035 19.3564 44.9862 19.9518 44.9862Z"></path>
      <path d="M46.367 25.8008C46.9625 25.8008 47.4452 25.3181 47.4452 24.7227C47.4452 24.1272 46.9625 23.6445 46.367 23.6445C45.7716 23.6445 45.2889 24.1272 45.2889 24.7227C45.2889 25.3181 45.7716 25.8008 46.367 25.8008Z"></path>
      <path d="M40.0752 44.9862C40.6707 44.9862 41.1534 44.5035 41.1534 43.9081C41.1534 43.3127 40.6707 42.83 40.0752 42.83C39.4798 42.83 38.9971 43.3127 38.9971 43.9081C38.9971 44.5035 39.4798 44.9862 40.0752 44.9862Z"></path>
      <path d="M29.9997 13.8912C30.5952 13.8912 31.0779 13.4085 31.0779 12.8131C31.0779 12.2177 30.5952 11.735 29.9997 11.735C29.4043 11.735 28.9216 12.2177 28.9216 12.8131C28.9216 13.4085 29.4043 13.8912 29.9997 13.8912Z"></path>
    </g>
    <defs>
      <clipPath id="clip0">
        <rect width="60" height="60"></rect>
      </clipPath>
    </defs>
  </symbol>
  <symbol  xmlns="http://www.w3.org/2000/svg" viewBox="0 0 60 60" id="tab-hand-gesture">
    <g clip-path="url(#clip0)">
      <path d="M7.0001 50C5.34324 50 4.0001 51.3431 4.0001 53C4.0001 54.6568 5.34324 56 7.0001 56C8.65695 56 10.0001 54.6568 10.0001 53C10.0001 51.3431 8.65695 50 7.0001 50ZM7.0001 54C6.44781 54 6.0001 53.5523 6.0001 53C6.0001 52.4477 6.44781 52 7.0001 52C7.55238 52 8.0001 52.4477 8.0001 53C8.0001 53.5523 7.55238 54 7.0001 54Z"></path>
      <path d="M58.977 48.977C59.9798 47.9759 60.2801 46.469 59.7376 45.16C59.1951 43.851 57.9169 42.9983 56.5 43H53C52.0718 43.0015 51.1817 43.3691 50.523 44.023L45.546 49H12.736C12.4579 48.6036 12.1395 48.237 11.786 47.906L13.286 37.575C13.4236 36.6181 13.2055 35.6439 12.673 34.837L16.6 8H22.712C23.4999 8.64191 24.4837 8.9948 25.5 9C27.9853 9 30 6.98528 30 4.5C30 2.01472 27.9853 0 25.5 0C24.482 0.00405758 23.4962 0.357015 22.707 1H11.5C10.5718 1.00117 9.68154 1.36883 9.023 2.023C8.14508 2.90037 7.79918 4.17799 8.11458 5.37843C8.42997 6.57886 9.3592 7.52147 10.555 7.854L6.736 33.976C5.99823 34.5995 5.51295 35.4705 5.371 36.426L3.871 46.748C1.13133 48.1154 -0.400392 51.1059 0.0909224 54.1281C0.582237 57.1504 2.98234 59.5017 6.01406 59.9308C9.04579 60.36 12.0042 58.7672 13.315 56H46.7C47.8238 58.3661 50.1767 59.9049 52.7949 59.986C55.4131 60.0671 57.8568 58.677 59.1249 56.3849C60.3931 54.0929 60.2726 51.2841 58.813 49.109C58.864 49.062 58.927 49.027 58.977 48.977ZM10.877 33.326C10.5665 33.1899 10.2398 33.0941 9.905 33.041C9.56971 32.998 9.2303 32.998 8.895 33.041L12.555 8H14.574L10.877 33.326ZM25.5 2C26.8807 2 28 3.11929 28 4.5C28 5.88071 26.8807 7 25.5 7C24.1193 7 23 5.88071 23 4.5C23 3.11929 24.1193 2 25.5 2ZM10 4.5C9.9984 4.10169 10.1559 3.71922 10.4376 3.43757C10.7192 3.15592 11.1017 2.9984 11.5 3L21.276 2.99999C21.0983 3.48036 21.0049 3.98783 21 4.5C21.0049 5.01217 21.0983 5.51964 21.276 6H11.5C10.6716 6 10 5.32843 10 4.5ZM7.35 36.714C7.50795 35.6202 8.5227 34.8615 9.6165 35.0195C10.7103 35.1775 11.469 36.1922 11.311 37.286L9.947 46.659C8.7156 46.071 7.33498 45.8699 5.987 46.082L7.35 36.714ZM7 58C4.23858 58 2 55.7614 2 53C2 50.2386 4.23858 48 7 48C9.76142 48 12 50.2386 12 53C11.9967 55.7601 9.76005 57.9967 7 58ZM13.705 51H45.96C46.2252 50.9999 46.4795 50.8946 46.667 50.707L51.938 45.437C52.2206 45.1571 52.6022 45 53 45H56.5C57.1082 44.9981 57.6573 45.3636 57.8903 45.9253C58.1232 46.4871 57.994 47.1339 57.563 47.563C57.4036 47.7196 57.2122 47.84 57.002 47.916C56.8411 47.9716 56.6722 47.9999 56.502 48H54.04C53.7748 48.0001 53.5205 48.1054 53.333 48.293L48.062 53.563C47.8391 53.783 47.5545 53.9298 47.246 53.984C47.167 53.992 47.08 54 47 54H13.92C14.0766 52.9966 14.0031 51.9708 13.705 51ZM54 53C54 53.5523 53.5523 54 53 54C52.4477 54 52 53.5523 52 53C52 52.4477 52.4477 52 53 52C53.5523 52 54 52.4477 54 53ZM53 58C51.2358 57.9975 49.6042 57.0632 48.709 55.543C48.9899 55.3906 49.2483 55.2002 49.477 54.977L50.254 54.2C50.7894 55.4344 52.0812 56.1614 53.4142 55.9784C54.7473 55.7954 55.7954 54.7473 55.9784 53.4142C56.1614 52.0812 55.4344 50.7894 54.2 50.254L54.454 50H56.5C56.6466 49.9967 56.7929 49.9843 56.938 49.963C57.6237 50.827 57.9979 51.897 58 53C57.9967 55.7601 55.7601 57.9967 53 58Z"></path>
    </g>
    <defs>
      <clipPath id="clip0">
        <rect width="60" height="60"></rect>
      </clipPath>
    </defs>
  </symbol>
  <symbol xmlns="http://www.w3.org/2000/svg" viewBox="0 0 60 60" id="tab-helmet">
    <path d="M59.5104 33.5361C56.0995 28.3422 55.1782 22.4727 58.5833 17.2634C59.6056 15.6998 58.4322 13.6352 56.5718 13.6986C54.7856 13.7574 52.5684 13.6933 49.9823 13.5087C49.4992 13.4737 49.0779 13.8385 49.0433 14.3225C49.0087 14.8064 49.3731 15.2268 49.8571 15.2614C56.7639 15.7544 56.8013 15.1502 57.131 15.737C57.4402 16.2858 56.7665 16.4234 55.7638 18.8427C53.627 18.9527 46.1764 19.5646 39.0161 22.8831C37.2862 23.6847 37.4069 26.1864 39.207 26.8121C45.8729 28.9842 47.1867 29.9617 50.0429 29.9617C52.0642 29.9617 52.6914 29.4986 55.4452 29.0513C55.7072 29.9037 56.0189 30.7035 56.3528 31.4389C52.7591 32.77 48.2485 32.2505 42.2625 29.8312C41.8122 29.6489 41.3004 29.8667 41.1187 30.3165C40.9368 30.7665 41.1542 31.2785 41.604 31.4602C48.1198 34.094 53.0898 34.5972 57.1468 33.0189C57.4022 33.4803 57.7213 34.0127 58.0416 34.5005C58.3636 34.9907 58.2851 35.615 57.9181 36.0139C57.6897 36.262 57.8728 36.083 53.2511 38.7643C49.7207 40.7955 45.4771 40.7847 42.0265 38.9448C35.5612 35.5796 35.41 35.2214 34.1525 35.0154C35.3285 33.3304 34.1089 30.9819 32.0173 31.0176L26.8889 31.1049C26.8872 31.0352 26.8739 30.8749 26.8481 30.7497C26.5796 29.4419 25.3284 29.2413 25.341 29.2482C25.1303 29.2052 24.9017 29.1622 24.6898 29.1255L28.8533 27.033C31.515 27.6449 34.5584 28.5432 37.8276 29.8616C38.2775 30.0426 38.7895 29.8252 38.971 29.3753C39.1524 28.9253 38.9347 28.4135 38.4848 28.2321C31.8432 25.5538 26.1655 24.5528 22.5555 24.1847C28.477 22.0763 34.8697 20.7634 41.1869 20.0171C43.1735 19.7824 43.2294 16.9168 41.2531 16.6075C31.8363 15.1336 21.7022 15.5121 12.6009 18.344C16.174 15.7677 20.2915 14.3028 24.6326 13.6657C32.1478 12.5624 37.0648 14.0031 45.7451 14.8984C46.2293 14.9485 46.6594 14.5973 46.709 14.1146C46.759 13.632 46.408 13.2003 45.9253 13.1505C37.3351 12.2643 32.1808 10.7819 24.3774 11.927C11.8738 13.7618 3.01291 21.8092 0.0666921 36.4769C-0.112254 37.3694 0.0684499 38.2961 0.61431 39.0707C0.713803 39.2117 1.64111 40.1219 2.37283 40.3469C2.7906 40.4761 6.86088 41.0441 6.93542 41.0441C7.36456 41.0441 7.73991 40.7294 7.80366 40.2922C7.87374 39.8121 7.54128 39.3661 7.06116 39.2959C3.24178 38.6704 2.90123 38.8661 2.30474 38.3398C5.55049 32.8753 12.7521 28.2985 18.6263 25.7367C19.299 25.7287 22.0415 25.7508 26.069 26.4656L21.4273 28.7985C16.2265 28.6555 11.7856 30.3349 8.2955 33.2866C7.02167 34.3632 7.64511 36.4545 9.31784 36.6464C15.0353 37.3022 20.9767 36.1569 25.8282 32.8805C33.7856 32.7452 31.7109 32.7746 32.0634 32.7746C32.7684 32.7746 33.1208 33.6382 32.6088 34.1325L31.0706 35.617L26.5229 38.2808C17.5999 43.5077 10.5005 38.1062 10.1318 40.6322C10.0618 41.1123 10.3942 41.5583 10.8743 41.6285C15.7826 42.3369 18.6679 43.0252 23.4024 41.5602C33.4194 47.2081 33.8586 48.0633 36.2526 48.4124C38.5624 48.7496 40.9663 47.9736 42.6443 46.2637C43.9206 46.4325 44.5158 46.5879 45.5358 46.5879C48.9906 46.5879 52.1757 44.6366 53.726 41.4556L54.3608 40.1532C58.1911 37.8096 59.4823 37.7026 59.919 35.8697C60.1092 35.0717 59.9603 34.2213 59.5104 33.5361ZM47.1626 27.7167L39.7841 25.152C39.4734 25.044 39.453 24.6173 39.7551 24.4771C42.2474 23.3221 44.804 22.5083 47.1426 21.9349C43.8711 24.9901 45.8028 27.6705 54.8846 26.6515C54.9175 26.8592 54.9645 27.1222 55.0086 27.3417C52.146 27.8218 50.2873 28.8025 47.1626 27.7167ZM54.7064 24.9035C51.5858 25.2547 49.1578 25.1701 47.8173 24.6574C47.5464 24.5537 47.4558 24.4632 47.434 24.437C47.441 24.3578 47.5527 23.7598 49.2271 22.4764C50.0707 21.8297 50.9252 21.3071 51.2607 21.1081C52.8945 20.8495 54.2488 20.7151 55.1548 20.6463C54.7911 22.0219 54.641 23.4429 54.7064 24.9035ZM23.8167 17.8612C23.8879 17.9099 23.958 17.9649 24.0065 18.0141C23.894 18.1291 23.5838 18.3731 22.7882 18.6782C22.3983 18.8277 21.8492 18.9995 21.2135 19.1984C19.5192 19.7282 17.0291 20.5076 14.3253 21.8791C14.4168 21.1002 14.207 20.3975 13.7723 19.8237C17.1979 18.8077 20.5928 18.195 23.8167 17.8612ZM9.06097 21.4842C9.98898 21.1017 10.9734 20.7351 11.8441 20.4379C13.0988 21.1676 12.5842 22.3044 11.6516 23.4092C7.93972 25.8073 5.00709 28.9064 2.81978 32.7492C4.10662 28.5865 6.10432 24.6838 9.06097 21.4842ZM5.29373 32.084C13.2803 20.0645 25.6821 21.9169 25.808 18.0664C25.8124 17.934 25.7998 17.8088 25.7749 17.6903C30.8124 17.33 35.9599 17.5777 40.7201 18.3027C28.338 19.7955 14.4228 23.6608 5.29373 32.084ZM9.88456 34.9393C9.51659 34.9031 9.42284 34.9187 9.38335 34.7877C9.34702 34.6677 9.38581 34.6523 9.87777 34.2635C12.1139 32.4942 14.6519 31.3797 17.3664 30.8716C16.1159 31.8243 14.8297 33.1662 13.8702 35.0157C12.5015 35.0969 11.127 35.0627 9.88456 34.9393ZM25.0521 31.2842C22.0393 33.3734 18.865 34.3688 16.0448 34.7915C18.1005 31.7382 21.1172 30.7417 21.7121 30.5705C22.8151 30.6174 23.9174 30.751 24.9911 30.9698C25.1445 31.0012 25.1839 31.1929 25.0521 31.2842ZM33.1943 36.72C33.7074 36.6775 34.2316 36.7796 34.6958 37.0271L40.6613 40.2081L39.4633 42.2693C38.7778 43.4479 37.2684 43.8487 36.0887 43.1628L28.8489 38.9545C31.8839 37.2614 32.1685 36.8048 33.1943 36.72ZM41.6512 44.7462C40.3501 46.2655 38.3742 46.9463 36.5067 46.6733C34.6607 46.4042 34.4111 45.7891 25.529 40.7633C26.0667 40.5238 26.6279 40.24 27.104 39.9729L35.2057 44.6822C37.2247 45.8551 39.8081 45.1721 40.9826 43.1525L42.2382 40.9923C42.7006 41.1906 43.1703 41.3621 43.6456 41.5058C42.0996 44.207 41.9506 44.3961 41.6512 44.7462ZM44.4538 44.7514L43.8432 44.6624L45.4404 41.9149C47.5574 42.2456 49.7272 42.0593 51.7764 41.3559C50.2392 43.8309 47.3871 45.1806 44.4538 44.7514Z"></path>
  </symbol>
</svg>