<svg width="60" height="60" viewBox="0 0 60 60" fill="none" xmlns="http://www.w3.org/2000/svg">
<g clip-path="url(#clip0)">
<path d="M7.0001 50C5.34324 50 4.0001 51.3431 4.0001 53C4.0001 54.6568 5.34324 56 7.0001 56C8.65695 56 10.0001 54.6568 10.0001 53C10.0001 51.3431 8.65695 50 7.0001 50ZM7.0001 54C6.44781 54 6.0001 53.5523 6.0001 53C6.0001 52.4477 6.44781 52 7.0001 52C7.55238 52 8.0001 52.4477 8.0001 53C8.0001 53.5523 7.55238 54 7.0001 54Z" fill="#00A1D3"/>
<path d="M58.977 48.977C59.9798 47.9759 60.2801 46.469 59.7376 45.16C59.1951 43.851 57.9169 42.9983 56.5 43H53C52.0718 43.0015 51.1817 43.3691 50.523 44.023L45.546 49H12.736C12.4579 48.6036 12.1395 48.237 11.786 47.906L13.286 37.575C13.4236 36.6181 13.2055 35.6439 12.673 34.837L16.6 8H22.712C23.4999 8.64191 24.4837 8.9948 25.5 9C27.9853 9 30 6.98528 30 4.5C30 2.01472 27.9853 0 25.5 0C24.482 0.00405758 23.4962 0.357015 22.707 1H11.5C10.5718 1.00117 9.68154 1.36883 9.023 2.023C8.14508 2.90037 7.79918 4.17799 8.11458 5.37843C8.42997 6.57886 9.3592 7.52147 10.555 7.854L6.736 33.976C5.99823 34.5995 5.51295 35.4705 5.371 36.426L3.871 46.748C1.13133 48.1154 -0.400392 51.1059 0.0909224 54.1281C0.582237 57.1504 2.98234 59.5017 6.01406 59.9308C9.04579 60.36 12.0042 58.7672 13.315 56H46.7C47.8238 58.3661 50.1767 59.9049 52.7949 59.986C55.4131 60.0671 57.8568 58.677 59.1249 56.3849C60.3931 54.0929 60.2726 51.2841 58.813 49.109C58.864 49.062 58.927 49.027 58.977 48.977ZM10.877 33.326C10.5665 33.1899 10.2398 33.0941 9.905 33.041C9.56971 32.998 9.2303 32.998 8.895 33.041L12.555 8H14.574L10.877 33.326ZM25.5 2C26.8807 2 28 3.11929 28 4.5C28 5.88071 26.8807 7 25.5 7C24.1193 7 23 5.88071 23 4.5C23 3.11929 24.1193 2 25.5 2ZM10 4.5C9.9984 4.10169 10.1559 3.71922 10.4376 3.43757C10.7192 3.15592 11.1017 2.9984 11.5 3L21.276 2.99999C21.0983 3.48036 21.0049 3.98783 21 4.5C21.0049 5.01217 21.0983 5.51964 21.276 6H11.5C10.6716 6 10 5.32843 10 4.5ZM7.35 36.714C7.50795 35.6202 8.5227 34.8615 9.6165 35.0195C10.7103 35.1775 11.469 36.1922 11.311 37.286L9.947 46.659C8.7156 46.071 7.33498 45.8699 5.987 46.082L7.35 36.714ZM7 58C4.23858 58 2 55.7614 2 53C2 50.2386 4.23858 48 7 48C9.76142 48 12 50.2386 12 53C11.9967 55.7601 9.76005 57.9967 7 58ZM13.705 51H45.96C46.2252 50.9999 46.4795 50.8946 46.667 50.707L51.938 45.437C52.2206 45.1571 52.6022 45 53 45H56.5C57.1082 44.9981 57.6573 45.3636 57.8903 45.9253C58.1232 46.4871 57.994 47.1339 57.563 47.563C57.4036 47.7196 57.2122 47.84 57.002 47.916C56.8411 47.9716 56.6722 47.9999 56.502 48H54.04C53.7748 48.0001 53.5205 48.1054 53.333 48.293L48.062 53.563C47.8391 53.783 47.5545 53.9298 47.246 53.984C47.167 53.992 47.08 54 47 54H13.92C14.0766 52.9966 14.0031 51.9708 13.705 51ZM54 53C54 53.5523 53.5523 54 53 54C52.4477 54 52 53.5523 52 53C52 52.4477 52.4477 52 53 52C53.5523 52 54 52.4477 54 53ZM53 58C51.2358 57.9975 49.6042 57.0632 48.709 55.543C48.9899 55.3906 49.2483 55.2002 49.477 54.977L50.254 54.2C50.7894 55.4344 52.0812 56.1614 53.4142 55.9784C54.7473 55.7954 55.7954 54.7473 55.9784 53.4142C56.1614 52.0812 55.4344 50.7894 54.2 50.254L54.454 50H56.5C56.6466 49.9967 56.7929 49.9843 56.938 49.963C57.6237 50.827 57.9979 51.897 58 53C57.9967 55.7601 55.7601 57.9967 53 58Z" fill="#00A1D3"/>
</g>
<defs>
<clipPath id="clip0">
<rect width="60" height="60" fill="white"/>
</clipPath>
</defs>
</svg>
