<svg width="60" height="60" viewBox="0 0 60 60" fill="none" xmlns="http://www.w3.org/2000/svg">
<g clip-path="url(#clip0)">
<path d="M54.0052 27.1098C53.8794 26.0595 52.8311 25.3856 51.8272 25.7102C50.4749 26.1479 46.0399 27.5833 44.6619 28.0293C44.5251 28.0736 44.3892 27.9813 44.3683 27.8425C44.1349 26.2813 43.6499 24.7774 42.9267 23.3724C42.8688 23.2598 42.9176 23.1203 43.0413 23.0803C43.6431 22.8855 49.3003 21.0546 49.9754 20.8361C51.1159 20.4667 51.6314 19.144 51.0409 18.1037C47.5375 11.9304 41.555 7.61664 34.6275 6.26816C33.5795 6.06449 32.6036 6.86617 32.6036 7.93539C32.6036 16.098 32.6321 15.7115 32.5449 15.6954C28.9541 15.0576 27.3962 15.9555 27.3962 15.5915C27.3962 13.9373 27.3962 9.53454 27.3962 7.8809C27.3962 6.84238 26.4489 6.06109 25.4279 6.25738C22.4027 6.83899 19.55 7.98274 16.9492 9.65665C16.5412 9.91938 16.4232 10.4633 16.6859 10.8714C16.9488 11.2797 17.4927 11.3971 17.9007 11.1347C20.2769 9.60497 22.8794 8.55321 25.6382 8.00723V9.76845C19.8207 11.026 14.9417 14.7269 12.082 19.6542C10.8296 19.2014 10.6116 19.2664 10.5318 19.0596C10.5143 19.0141 10.5024 18.9445 10.545 18.8701C11.677 16.8994 13.1018 15.1121 14.7798 13.5574C15.136 13.2275 15.1572 12.6713 14.8273 12.3153C14.4973 11.959 13.941 11.9378 13.5852 12.2678C11.7767 13.9433 10.2412 15.8698 9.02077 17.9946C8.39323 19.0866 8.93687 20.484 10.1391 20.873C10.1555 20.8784 9.92429 20.8035 12.2289 21.5493C17.3329 23.2012 17.2038 23.122 17.1566 23.2119C15.4874 26.358 15.7993 28.1782 15.4987 28.0811C14.3055 27.695 9.3707 26.0977 8.21136 25.7225C7.18538 25.3906 6.11557 26.0814 5.98936 27.1518C5.18874 33.935 7.26179 41.0053 12.254 46.402C13.0253 47.2359 14.3659 47.1544 15.0315 46.2367L16.4595 44.2684C19.4125 40.2505 19.4317 39.9653 19.6583 40.1945C20.8444 41.3974 22.2149 42.3765 23.7398 43.1009C23.3227 43.6757 19.6649 48.7177 19.2659 49.2676C18.5883 50.2013 18.9345 51.523 19.9838 52.0025C23.6147 53.662 27.4759 54.3522 31.3385 54.1401C31.8232 54.1135 32.1945 53.699 32.1678 53.2144C32.1412 52.7296 31.726 52.3577 31.2421 52.3851C27.5609 52.5864 24.0113 51.9108 20.7144 50.4039C20.6761 50.3865 20.6623 50.3371 20.6886 50.3L21.6721 48.9443C26.9835 51.2922 33.0704 51.2684 38.3277 48.9443L39.3611 50.3691C38.0155 50.9899 36.5988 51.478 35.1478 51.8206C34.6754 51.9321 34.3829 52.4054 34.4943 52.8779C34.606 53.3506 35.0797 53.6429 35.5517 53.5314C37.1743 53.1482 38.7573 52.5963 40.2572 51.8908C40.6944 51.685 41.0146 51.2977 41.1353 50.8282C41.2568 50.3556 41.1621 49.858 40.8757 49.4633C39.5924 47.6945 36.9607 44.0518 36.2743 43.1019C37.7831 42.3766 39.1472 41.4029 40.3284 40.208C40.3793 40.1565 40.4359 40.1499 40.4756 40.1523C40.5135 40.1551 40.5671 40.1703 40.6078 40.2264C40.8395 40.5458 44.6105 45.7438 44.955 46.2187C45.3016 46.6962 45.8477 46.9691 46.4283 46.9691C46.9345 46.9691 47.4155 46.7597 47.7613 46.3852C52.7346 40.9984 54.8218 33.9248 54.0052 27.1098ZM13.5453 45.2087C9.00156 40.2968 6.99307 33.8 7.72925 27.4139L9.40644 27.9568C8.83667 33.7486 10.6941 39.4679 14.6122 43.8221C13.5585 45.2745 13.5929 45.2598 13.5453 45.2087ZM44.3301 42.3632L42.0309 39.194C41.3269 38.2234 39.921 38.12 39.0788 38.9721C36.4004 41.6819 34.9538 41.1568 34.57 42.6742C34.4402 43.1879 34.544 43.7284 34.8552 44.1572L37.2701 47.4858C32.7443 49.373 27.4706 49.4707 22.7307 47.4858L25.1631 44.1333C25.8082 43.2438 25.4818 41.9947 24.493 41.5203C21.0044 39.8451 21.0594 38.2626 19.3925 38.3911C18.8276 38.4336 18.3128 38.7211 17.9799 39.1798L15.6706 42.363C12.4301 38.6177 10.7198 33.7107 11.1242 28.5126L14.958 29.7535C16.0466 30.1059 17.1927 29.3908 17.3479 28.2588C17.8695 24.4484 19.3912 23.9953 18.7881 22.5077C18.5855 22.0078 18.1751 21.6261 17.6621 21.46L13.7984 20.2095C16.4102 15.9126 20.6641 12.7764 25.6389 11.5711V15.591C25.6389 16.1401 25.8799 16.6576 26.3 17.0108C27.5512 18.0637 28.4111 16.7457 32.2378 17.4256C33.3437 17.6218 34.362 16.7685 34.362 15.6397V11.5713C36.1366 11.9908 37.8367 12.6644 39.4278 13.5817C39.8482 13.824 40.3858 13.6799 40.6282 13.2594C40.8706 12.8388 40.7264 12.3013 40.3058 12.059C38.4453 10.9864 36.4493 10.2173 34.3619 9.76821V8.00723C40.7556 9.27274 46.2745 13.2656 49.5127 18.9712C49.5545 19.0448 49.5146 19.1377 49.4346 19.1636L47.9184 19.6544C46.8187 17.7557 45.4288 16.0495 43.7791 14.5745C43.417 14.251 42.8617 14.2819 42.5381 14.6439C42.2146 15.0058 42.2456 15.5614 42.6075 15.8849C44.023 17.1506 45.2286 18.6024 46.2029 20.2095L42.5005 21.4078C41.9528 21.5851 41.513 21.9917 41.2936 22.5235C40.6656 24.0468 42.0845 24.4537 42.6305 28.1023C42.8119 29.3159 44.0358 30.0793 45.2037 29.7015L48.8764 28.5127C49.2695 33.5702 47.6664 38.5062 44.3301 42.3632ZM46.4701 45.1927C46.3744 45.2924 46.3457 45.0901 45.3886 43.8221C49.249 39.5317 51.1713 33.8267 50.5942 27.9568L52.2713 27.4139C53.0061 33.7794 51.0103 40.2749 46.4701 45.1927Z" fill="#00A1D3"/>
<path d="M60 29.9999C60 28.6884 59.0312 27.5986 57.7716 27.409C57.7068 26.7063 57.6156 26.0056 57.4989 25.3137C59.4585 24.4599 59.6154 21.7175 57.7569 20.6443C57.2678 20.3618 56.7136 20.2473 56.1621 20.3082C55.918 19.651 55.6467 18.9978 55.3506 18.3549C56.3366 17.5677 56.6427 16.1462 55.9807 14.9999C55.6308 14.3937 55.0657 13.9602 54.3896 13.7791C53.8419 13.6322 53.2742 13.6655 52.7562 13.8694C52.3492 13.2966 51.9187 12.7367 51.4691 12.1948C52.2259 11.17 52.1406 9.71416 51.213 8.7865C50.2854 7.85908 48.8294 7.77353 47.8047 8.53045C47.2628 8.08056 46.7029 7.65025 46.1301 7.24337C46.3342 6.72529 46.3673 6.15775 46.2206 5.61001C46.0394 4.93396 45.6059 4.36899 44.9997 4.01907C44.3938 3.66927 43.6876 3.57622 43.0114 3.75727C42.465 3.90376 41.9909 4.21513 41.6447 4.64907C41.0016 4.35306 40.3483 4.08165 39.6909 3.83743C39.8298 2.57438 39.0287 1.36067 37.7642 1.02199C36.4982 0.682736 35.196 1.335 34.6859 2.5009C33.994 2.38418 33.2933 2.29301 32.5904 2.22809C32.4015 0.968908 31.3117 0 30.0001 0C28.6885 0 27.5988 0.968908 27.409 2.22844C26.7064 2.29325 26.0058 2.38442 25.314 2.50114C25.0919 1.99125 24.7143 1.56727 24.2236 1.28403C22.3727 0.215625 20.0744 1.7052 20.3088 3.83778C19.6513 4.08188 18.998 4.35329 18.355 4.64942C17.5683 3.66364 16.1466 3.35719 15 4.01942C14.3938 4.36934 13.9603 4.93442 13.7792 5.61036C13.6324 6.15822 13.6656 6.72587 13.8696 7.24373C13.2968 7.65072 12.7369 8.08115 12.195 8.5308C11.1702 7.77388 9.71439 7.85931 8.78674 8.78685C7.84091 9.73279 7.78537 11.19 8.53045 12.1954C8.08068 12.7373 7.65037 13.2969 7.24361 13.8698C5.24896 13.0842 3.20274 14.9182 3.75751 16.9884C3.90387 17.5347 4.21524 18.0086 4.64931 18.355C4.35317 18.9981 4.08177 19.6513 3.83766 20.3084C3.28606 20.2466 2.732 20.362 2.24297 20.6445C0.385313 21.7169 0.540118 24.4594 2.50102 25.314C2.3843 26.0056 2.29313 26.7063 2.22832 27.4093C0.968791 27.5986 0 28.6884 0 29.9999C0.000234375 31.3116 0.968908 32.4014 2.22856 32.5911C2.29336 33.294 2.38454 33.9946 2.50125 34.6863C1.35328 35.1864 0.676993 36.4761 1.02235 37.7645C1.36864 39.0568 2.60086 39.8297 3.8379 39.6917C4.082 40.3487 4.35329 41.002 4.64954 41.6451C2.98372 42.9746 3.53438 45.6645 5.61048 46.2208C6.15845 46.3679 6.72599 46.3345 7.24384 46.1304C7.65072 46.7032 8.08091 47.263 8.53068 47.8047C7.25087 49.5316 8.49963 51.9806 10.6397 51.9806C11.2075 51.9806 11.7476 51.8013 12.1955 51.4694C12.7373 51.9193 13.2969 52.3495 13.8699 52.7564C13.0859 54.7469 14.9145 56.7975 16.9885 56.2425C17.5348 56.0961 18.0087 55.7848 18.3552 55.3507C18.9982 55.6468 19.6516 55.9182 20.309 56.1623C20.0747 58.2952 22.3735 59.7845 24.2239 58.7161C24.7144 58.433 25.0919 58.0089 25.3142 57.4989C26.0061 57.6157 26.7066 57.7069 27.4094 57.7717C27.599 59.0312 28.6887 60.0001 30.0003 60.0001C31.3119 60.0001 32.4016 59.0312 32.5913 57.7717C33.2941 57.7069 33.9948 57.6157 34.6869 57.4989C35.1969 58.6645 36.4991 59.3169 37.765 58.9778C39.0295 58.639 39.8306 57.4254 39.6917 56.1623C40.3493 55.9181 41.0026 55.6467 41.6455 55.3507C41.9919 55.7848 42.4658 56.0961 43.0122 56.2425C43.6886 56.4236 44.3946 56.3306 45.0006 55.9807C45.6068 55.6308 46.0402 55.0657 46.2214 54.3898C46.3681 53.8419 46.335 53.2744 46.131 52.7563C46.7038 52.3492 47.2636 51.919 47.8053 51.4693C48.2532 51.8012 48.7935 51.9805 49.3611 51.9805C50.0611 51.9805 50.7191 51.7079 51.214 51.213C51.7089 50.718 51.9813 50.0601 51.9813 49.3602C51.9813 48.7924 51.8021 48.2523 51.4703 47.8045C51.9199 47.2628 52.3502 46.7028 52.7571 46.1301C53.2754 46.3342 53.843 46.3676 54.3906 46.2206C56.4659 45.6645 57.0184 42.9747 55.3515 41.6449C55.6475 41.002 55.9189 40.3488 56.163 39.6915C56.7144 39.7531 57.2687 39.6378 57.7578 39.3554C58.3639 39.0055 58.7975 38.4403 58.9786 37.7643C59.3235 36.4776 58.6499 35.187 57.4998 34.6859C57.6165 33.9942 57.7077 33.2937 57.7725 32.5907C59.0311 32.4012 60 31.3115 60 29.9999ZM57.3802 30.8626C57.2441 30.8621 57.0854 30.8639 56.9848 30.8608C56.5053 30.8436 56.1097 31.2099 56.0796 31.6835C56.006 32.8424 55.8552 34.0006 55.6314 35.1257C55.5409 35.5809 55.8198 36.0278 56.2683 36.1468C56.2814 36.1502 56.5698 36.2267 56.6703 36.2534C57.1297 36.3766 57.4032 36.8504 57.2802 37.3096C57.1567 37.7705 56.6838 38.0428 56.2241 37.9196L55.8233 37.8121C55.3754 37.692 54.9116 37.9405 54.7631 38.3795C54.3968 39.4624 53.9492 40.5403 53.4327 41.5828C53.2269 41.9983 53.3792 42.5022 53.7808 42.734C53.9927 42.8875 54.415 42.982 54.5449 43.4668C54.7428 44.2053 53.944 44.8195 53.2806 44.4369L52.9717 44.2585C52.5274 43.9711 52.0016 44.1167 51.7473 44.4976C51.1076 45.4552 50.396 46.381 49.6324 47.2494C49.3263 47.5976 49.3431 48.1235 49.6708 48.4514L49.9704 48.7509C50.3067 49.0871 50.3067 49.6342 49.9704 49.9705C49.8075 50.1334 49.591 50.223 49.3606 50.223C49.1303 50.223 48.9137 50.1333 48.7508 49.9704L48.4513 49.6708C48.1235 49.3432 47.5976 49.3263 47.2493 49.6324C46.3822 50.3949 45.4576 51.1056 44.5012 51.7448C44.5005 51.7453 44.4998 51.7458 44.4991 51.7462C44.4989 51.7464 44.4986 51.7466 44.4983 51.7467C44.0987 52.0138 43.9882 52.5517 44.2481 52.9542L44.4366 53.2807C44.5518 53.4803 44.5824 53.7125 44.5228 53.9351C44.4631 54.1575 44.3204 54.3435 44.1209 54.4588C43.9214 54.574 43.6892 54.6047 43.4665 54.5449C43.244 54.4853 43.0581 54.3427 42.9427 54.143L42.7336 53.7807C42.5016 53.3791 41.9977 53.2273 41.5824 53.4327C40.5402 53.949 39.4624 54.3967 38.3792 54.7631C37.9402 54.9116 37.692 55.3754 37.8119 55.8231L37.9193 56.224C38.0423 56.6834 37.7688 57.1571 37.3094 57.2803C36.8504 57.4031 36.3761 57.1298 36.2531 56.6706L36.1449 56.2664C36.0252 55.8192 35.5789 55.5412 35.1246 55.6317C33.9993 55.8553 32.8421 56.006 31.6851 56.0796C31.2223 56.1091 30.8621 56.493 30.8621 56.9568V57.3802C30.8621 57.8557 30.4751 58.2425 29.9997 58.2425C29.5242 58.2425 29.1373 57.8556 29.1373 57.3802V56.9568C29.1373 56.493 28.7771 56.1091 28.3143 56.0797C26.0879 55.9379 24.9747 55.6147 24.7031 55.6147C23.8423 55.6147 23.8042 56.5629 23.7466 56.6705C23.6234 57.1298 23.149 57.4032 22.6902 57.2803C22.2309 57.1571 21.9573 56.6834 22.0805 56.2239L22.1877 55.8231C22.3076 55.3754 22.0594 54.9116 21.6203 54.7631C20.5375 54.3969 19.4596 53.9494 18.4171 53.4327C18.0019 53.2268 17.4975 53.3792 17.2659 53.7808L17.0568 54.1431C16.8184 54.5557 16.2918 54.6971 15.8787 54.4587C15.4663 54.2204 15.3245 53.6937 15.563 53.2808L15.7735 52.9166C16.0051 52.5155 15.8859 52.0033 15.5007 51.7461C14.5438 51.1069 13.6185 50.3958 12.7506 49.6325C12.4024 49.3264 11.8766 49.3433 11.5487 49.6708L11.2491 49.9704C10.9123 50.3074 10.3667 50.3076 10.0294 49.9704C9.69236 49.6335 9.69225 49.088 10.0295 48.7509L10.329 48.4514C10.6568 48.1235 10.6737 47.5976 10.3675 47.2494C9.60435 46.3816 8.89326 45.4564 8.25388 44.4993C7.99677 44.1144 7.48466 43.995 7.08365 44.2265L6.71943 44.4369C6.30892 44.6737 5.78111 44.5364 5.54122 44.1212C5.30298 43.7083 5.44396 43.1816 5.85693 42.9431L6.21904 42.734C6.62064 42.5022 6.77298 41.9983 6.5672 41.5828C6.0504 40.5395 5.60286 39.4616 5.23677 38.3796C5.08829 37.9405 4.62505 37.6923 4.17657 37.8121L3.77591 37.9196C3.02837 38.1199 2.42625 37.3121 2.80594 36.6554C3.05649 36.221 3.47907 36.2425 3.73395 36.145C4.18114 36.0252 4.45876 35.5789 4.36841 35.1247C4.14481 34.0004 3.99411 32.8433 3.9204 31.6855C3.89098 31.2227 3.50708 30.8624 3.04337 30.8624H2.61985C2.1443 30.8624 1.75746 30.4755 1.75746 30.0001C1.75735 29.5245 2.1443 29.1376 2.61985 29.1376H3.04325C3.50696 29.1376 3.89087 28.7773 3.92028 28.3146C3.99399 27.1566 4.1447 25.9995 4.36829 24.8753C4.45864 24.4211 4.18102 23.9749 3.73384 23.855C3.4895 23.7616 3.05661 23.7795 2.80583 23.3446C2.56793 22.9331 2.70786 22.4055 3.12141 22.1665C3.55548 21.9159 3.90997 22.1453 4.17645 22.1879C4.62446 22.3077 5.08817 22.0594 5.23665 21.6204C5.60263 20.5383 6.05017 19.4604 6.56708 18.4172C6.77287 18.0017 6.62052 17.4978 6.21892 17.266L5.85681 17.0569C5.44478 16.8188 5.30228 16.2926 5.5411 15.8788C5.77923 15.4667 6.30564 15.3243 6.71931 15.5631C6.85197 15.6059 7.53798 16.2407 8.1442 15.6343C8.35888 15.4186 8.88974 14.4307 10.3675 12.7506C10.6736 12.4024 10.6568 11.8765 10.329 11.5486C10.1603 11.3411 9.77686 11.1423 9.77686 10.6394C9.77686 9.87295 10.7096 9.48986 11.2491 10.0295L11.5486 10.329C11.8765 10.6567 12.4026 10.6735 12.7505 10.3675C13.6189 9.60389 14.5446 8.89256 15.5018 8.25306C15.9009 7.98658 16.0156 7.44552 15.7469 7.03759C15.657 6.83298 15.3491 6.54201 15.477 6.06493C15.6004 5.6045 16.0728 5.33181 16.5332 5.45509C17.0177 5.58493 17.1059 5.99814 17.266 6.21915C17.4979 6.62076 18.0019 6.7731 18.4172 6.56732C19.4604 6.05064 20.5388 5.60286 21.6222 5.23642C22.0613 5.08794 22.3095 4.62411 22.1896 4.17645C22.1787 4.13556 22.2302 4.3247 22.0805 3.77614C21.9575 3.31676 22.231 2.84297 22.6904 2.71981C23.1497 2.597 23.6235 2.87028 23.7466 3.32954L23.8549 3.73372C23.9747 4.18091 24.4212 4.45864 24.8752 4.36841C26.0007 4.1447 27.1583 3.99399 28.3156 3.92052C28.7892 3.8904 29.1528 3.48973 29.1378 3.01536C29.1374 3.00962 29.1376 2.62559 29.1376 2.61985C29.1376 2.1443 29.5245 1.75746 29.9999 1.75746C30.4755 1.75746 30.8623 2.14442 30.8623 2.61985C30.8621 2.83571 30.8627 2.98583 30.8619 3.01536C30.8467 3.48973 31.211 3.89028 31.6845 3.92052C32.8427 3.99411 34.0005 4.14493 35.1254 4.36864C35.5811 4.45923 36.0276 4.1802 36.1464 3.73173C36.1493 3.72095 36.1519 3.71005 36.1543 3.69938L36.2533 3.32977C36.3764 2.8704 36.8507 2.59723 37.3096 2.71993C37.769 2.84309 38.0425 3.31688 37.9195 3.77637L37.8273 4.12067C37.8209 4.13895 37.8153 4.15759 37.8103 4.17669C37.6904 4.62435 37.9387 5.08817 38.3777 5.23665C39.4613 5.6031 40.5396 6.05087 41.5827 6.56755C41.9979 6.7731 42.502 6.62111 42.7338 6.2195L42.9431 5.85704C43.0582 5.65759 43.2441 5.51497 43.4667 5.45532C43.6892 5.39567 43.9218 5.42626 44.1212 5.54146C44.3206 5.65665 44.4634 5.84263 44.523 6.06517C44.5827 6.28759 44.5521 6.51997 44.4369 6.71954C44.382 6.81423 44.2644 7.01908 44.2545 7.03419C43.9851 7.43779 44.0939 7.98342 44.4974 8.25283C45.4552 8.89256 46.3814 9.60447 47.2503 10.3687C47.6008 10.6769 48.1469 10.6667 48.4861 10.2945L48.7507 10.0297C49.0871 9.69353 49.6342 9.69342 49.9704 10.0296C50.3066 10.366 50.3067 10.9131 49.9704 11.2493L49.6708 11.5489C49.3431 11.8767 49.3263 12.4027 49.6324 12.7508C50.3962 13.6193 51.1079 14.5455 51.7476 15.5035C52.0142 15.9027 52.5525 16.0143 52.9556 15.7534C53.0257 15.7085 53.1247 15.6543 53.2806 15.5634C53.9476 15.1783 54.742 15.7978 54.5449 16.5334C54.4167 17.0118 53.9978 17.1119 53.8069 17.2512C53.3904 17.4728 53.2186 17.989 53.4348 18.4216C53.9504 19.4632 54.3974 20.5395 54.7631 21.6208C54.9115 22.0598 55.3748 22.3079 55.8233 22.1881L56.224 22.0806C56.6838 21.9571 57.1568 22.23 57.2802 22.6906C57.4032 23.1499 57.1297 23.6236 56.6702 23.7468L56.3108 23.8431C55.8469 23.9413 55.5371 24.3957 55.6314 24.8744C55.8553 26.0006 56.0061 27.1588 56.0796 28.3169C56.1097 28.7903 56.5125 29.1574 56.9846 29.1397C57.097 29.1365 57.227 29.1384 57.3802 29.1378C57.8557 29.1378 58.2425 29.5247 58.2425 30.0002C58.2424 30.4757 57.8555 30.8626 57.3802 30.8626Z" fill="#00A1D3"/>
<path d="M13.6043 25.8008C14.1998 25.8008 14.6825 25.3181 14.6825 24.7227C14.6825 24.1272 14.1998 23.6445 13.6043 23.6445C13.0089 23.6445 12.5262 24.1272 12.5262 24.7227C12.5262 25.3181 13.0089 25.8008 13.6043 25.8008Z" fill="#00A1D3"/>
<path d="M19.9518 44.9862C20.5472 44.9862 21.0299 44.5035 21.0299 43.9081C21.0299 43.3127 20.5472 42.83 19.9518 42.83C19.3564 42.83 18.8737 43.3127 18.8737 43.9081C18.8737 44.5035 19.3564 44.9862 19.9518 44.9862Z" fill="#00A1D3"/>
<path d="M46.367 25.8008C46.9625 25.8008 47.4452 25.3181 47.4452 24.7227C47.4452 24.1272 46.9625 23.6445 46.367 23.6445C45.7716 23.6445 45.2889 24.1272 45.2889 24.7227C45.2889 25.3181 45.7716 25.8008 46.367 25.8008Z" fill="#00A1D3"/>
<path d="M40.0752 44.9862C40.6707 44.9862 41.1534 44.5035 41.1534 43.9081C41.1534 43.3127 40.6707 42.83 40.0752 42.83C39.4798 42.83 38.9971 43.3127 38.9971 43.9081C38.9971 44.5035 39.4798 44.9862 40.0752 44.9862Z" fill="#00A1D3"/>
<path d="M29.9997 13.8912C30.5952 13.8912 31.0779 13.4085 31.0779 12.8131C31.0779 12.2177 30.5952 11.735 29.9997 11.735C29.4043 11.735 28.9216 12.2177 28.9216 12.8131C28.9216 13.4085 29.4043 13.8912 29.9997 13.8912Z" fill="#00A1D3"/>
</g>
<defs>
<clipPath id="clip0">
<rect width="60" height="60" fill="white"/>
</clipPath>
</defs>
</svg>
