<svg width="60" height="60" viewBox="0 0 60 60" fill="none" xmlns="http://www.w3.org/2000/svg">
<path d="M59.5104 33.5361C56.0995 28.3422 55.1782 22.4727 58.5833 17.2634C59.6056 15.6998 58.4322 13.6352 56.5718 13.6986C54.7856 13.7574 52.5684 13.6933 49.9823 13.5087C49.4992 13.4737 49.0779 13.8385 49.0433 14.3225C49.0087 14.8064 49.3731 15.2268 49.8571 15.2614C56.7639 15.7544 56.8013 15.1502 57.131 15.737C57.4402 16.2858 56.7665 16.4234 55.7638 18.8427C53.627 18.9527 46.1764 19.5646 39.0161 22.8831C37.2862 23.6847 37.4069 26.1864 39.207 26.8121C45.8729 28.9842 47.1867 29.9617 50.0429 29.9617C52.0642 29.9617 52.6914 29.4986 55.4452 29.0513C55.7072 29.9037 56.0189 30.7035 56.3528 31.4389C52.7591 32.77 48.2485 32.2505 42.2625 29.8312C41.8122 29.6489 41.3004 29.8667 41.1187 30.3165C40.9368 30.7665 41.1542 31.2785 41.604 31.4602C48.1198 34.094 53.0898 34.5972 57.1468 33.0189C57.4022 33.4803 57.7213 34.0127 58.0416 34.5005C58.3636 34.9907 58.2851 35.615 57.9181 36.0139C57.6897 36.262 57.8728 36.083 53.2511 38.7643C49.7207 40.7955 45.4771 40.7847 42.0265 38.9448C35.5612 35.5796 35.41 35.2214 34.1525 35.0154C35.3285 33.3304 34.1089 30.9819 32.0173 31.0176L26.8889 31.1049C26.8872 31.0352 26.8739 30.8749 26.8481 30.7497C26.5796 29.4419 25.3284 29.2413 25.341 29.2482C25.1303 29.2052 24.9017 29.1622 24.6898 29.1255L28.8533 27.033C31.515 27.6449 34.5584 28.5432 37.8276 29.8616C38.2775 30.0426 38.7895 29.8252 38.971 29.3753C39.1524 28.9253 38.9347 28.4135 38.4848 28.2321C31.8432 25.5538 26.1655 24.5528 22.5555 24.1847C28.477 22.0763 34.8697 20.7634 41.1869 20.0171C43.1735 19.7824 43.2294 16.9168 41.2531 16.6075C31.8363 15.1336 21.7022 15.5121 12.6009 18.344C16.174 15.7677 20.2915 14.3028 24.6326 13.6657C32.1478 12.5624 37.0648 14.0031 45.7451 14.8984C46.2293 14.9485 46.6594 14.5973 46.709 14.1146C46.759 13.632 46.408 13.2003 45.9253 13.1505C37.3351 12.2643 32.1808 10.7819 24.3774 11.927C11.8738 13.7618 3.01291 21.8092 0.0666921 36.4769C-0.112254 37.3694 0.0684499 38.2961 0.61431 39.0707C0.713803 39.2117 1.64111 40.1219 2.37283 40.3469C2.7906 40.4761 6.86088 41.0441 6.93542 41.0441C7.36456 41.0441 7.73991 40.7294 7.80366 40.2922C7.87374 39.8121 7.54128 39.3661 7.06116 39.2959C3.24178 38.6704 2.90123 38.8661 2.30474 38.3398C5.55049 32.8753 12.7521 28.2985 18.6263 25.7367C19.299 25.7287 22.0415 25.7508 26.069 26.4656L21.4273 28.7985C16.2265 28.6555 11.7856 30.3349 8.2955 33.2866C7.02167 34.3632 7.64511 36.4545 9.31784 36.6464C15.0353 37.3022 20.9767 36.1569 25.8282 32.8805C33.7856 32.7452 31.7109 32.7746 32.0634 32.7746C32.7684 32.7746 33.1208 33.6382 32.6088 34.1325L31.0706 35.617L26.5229 38.2808C17.5999 43.5077 10.5005 38.1062 10.1318 40.6322C10.0618 41.1123 10.3942 41.5583 10.8743 41.6285C15.7826 42.3369 18.6679 43.0252 23.4024 41.5602C33.4194 47.2081 33.8586 48.0633 36.2526 48.4124C38.5624 48.7496 40.9663 47.9736 42.6443 46.2637C43.9206 46.4325 44.5158 46.5879 45.5358 46.5879C48.9906 46.5879 52.1757 44.6366 53.726 41.4556L54.3608 40.1532C58.1911 37.8096 59.4823 37.7026 59.919 35.8697C60.1092 35.0717 59.9603 34.2213 59.5104 33.5361ZM47.1626 27.7167L39.7841 25.152C39.4734 25.044 39.453 24.6173 39.7551 24.4771C42.2474 23.3221 44.804 22.5083 47.1426 21.9349C43.8711 24.9901 45.8028 27.6705 54.8846 26.6515C54.9175 26.8592 54.9645 27.1222 55.0086 27.3417C52.146 27.8218 50.2873 28.8025 47.1626 27.7167ZM54.7064 24.9035C51.5858 25.2547 49.1578 25.1701 47.8173 24.6574C47.5464 24.5537 47.4558 24.4632 47.434 24.437C47.441 24.3578 47.5527 23.7598 49.2271 22.4764C50.0707 21.8297 50.9252 21.3071 51.2607 21.1081C52.8945 20.8495 54.2488 20.7151 55.1548 20.6463C54.7911 22.0219 54.641 23.4429 54.7064 24.9035ZM23.8167 17.8612C23.8879 17.9099 23.958 17.9649 24.0065 18.0141C23.894 18.1291 23.5838 18.3731 22.7882 18.6782C22.3983 18.8277 21.8492 18.9995 21.2135 19.1984C19.5192 19.7282 17.0291 20.5076 14.3253 21.8791C14.4168 21.1002 14.207 20.3975 13.7723 19.8237C17.1979 18.8077 20.5928 18.195 23.8167 17.8612ZM9.06097 21.4842C9.98898 21.1017 10.9734 20.7351 11.8441 20.4379C13.0988 21.1676 12.5842 22.3044 11.6516 23.4092C7.93972 25.8073 5.00709 28.9064 2.81978 32.7492C4.10662 28.5865 6.10432 24.6838 9.06097 21.4842ZM5.29373 32.084C13.2803 20.0645 25.6821 21.9169 25.808 18.0664C25.8124 17.934 25.7998 17.8088 25.7749 17.6903C30.8124 17.33 35.9599 17.5777 40.7201 18.3027C28.338 19.7955 14.4228 23.6608 5.29373 32.084ZM9.88456 34.9393C9.51659 34.9031 9.42284 34.9187 9.38335 34.7877C9.34702 34.6677 9.38581 34.6523 9.87777 34.2635C12.1139 32.4942 14.6519 31.3797 17.3664 30.8716C16.1159 31.8243 14.8297 33.1662 13.8702 35.0157C12.5015 35.0969 11.127 35.0627 9.88456 34.9393ZM25.0521 31.2842C22.0393 33.3734 18.865 34.3688 16.0448 34.7915C18.1005 31.7382 21.1172 30.7417 21.7121 30.5705C22.8151 30.6174 23.9174 30.751 24.9911 30.9698C25.1445 31.0012 25.1839 31.1929 25.0521 31.2842ZM33.1943 36.72C33.7074 36.6775 34.2316 36.7796 34.6958 37.0271L40.6613 40.2081L39.4633 42.2693C38.7778 43.4479 37.2684 43.8487 36.0887 43.1628L28.8489 38.9545C31.8839 37.2614 32.1685 36.8048 33.1943 36.72ZM41.6512 44.7462C40.3501 46.2655 38.3742 46.9463 36.5067 46.6733C34.6607 46.4042 34.4111 45.7891 25.529 40.7633C26.0667 40.5238 26.6279 40.24 27.104 39.9729L35.2057 44.6822C37.2247 45.8551 39.8081 45.1721 40.9826 43.1525L42.2382 40.9923C42.7006 41.1906 43.1703 41.3621 43.6456 41.5058C42.0996 44.207 41.9506 44.3961 41.6512 44.7462ZM44.4538 44.7514L43.8432 44.6624L45.4404 41.9149C47.5574 42.2456 49.7272 42.0593 51.7764 41.3559C50.2392 43.8309 47.3871 45.1806 44.4538 44.7514Z" fill="#00A1D3"/>
</svg>
