<svg width="60" height="60" viewBox="0 0 60 60" fill="none" xmlns="http://www.w3.org/2000/svg">
<path d="M24.6967 23.8873C24.685 23.8311 24.6686 23.776 24.6463 23.7232C24.624 23.6705 24.5971 23.6189 24.5655 23.5709C24.5326 23.5229 24.4963 23.4783 24.4554 23.4373C24.4155 23.3975 24.3709 23.36 24.3217 23.3283C24.2749 23.2967 24.2233 23.2697 24.1705 23.2475C24.1179 23.2252 24.0627 23.2088 24.0066 23.1971C23.7206 23.1396 23.4171 23.2334 23.2132 23.4373C23.0493 23.6014 22.9554 23.8275 22.9554 24.0596C22.9554 24.2904 23.0493 24.5166 23.2132 24.6807C23.3761 24.8447 23.6033 24.9385 23.8342 24.9385C23.8916 24.9385 23.949 24.9326 24.0066 24.9209C24.0628 24.9092 24.1179 24.8928 24.1705 24.8705C24.2233 24.8482 24.2749 24.8213 24.3217 24.7896C24.3709 24.758 24.4155 24.7217 24.4554 24.6807C24.4964 24.6396 24.5326 24.5951 24.5655 24.5471C24.5972 24.499 24.624 24.4486 24.6463 24.3959C24.6685 24.342 24.685 24.2869 24.6967 24.2307C24.7073 24.1744 24.7131 24.117 24.7131 24.0596C24.7131 24.0021 24.7073 23.9447 24.6967 23.8873Z" fill="#00A1D3"/>
<path d="M28.9739 23.8873C28.9621 23.8311 28.9457 23.776 28.9235 23.7232C28.9012 23.6705 28.8742 23.6189 28.8426 23.5709C28.8098 23.5229 28.7735 23.4783 28.7326 23.4373C28.5696 23.2744 28.3435 23.1807 28.1114 23.1807C27.8805 23.1807 27.6533 23.2744 27.4903 23.4373C27.4492 23.4783 27.4129 23.5229 27.3813 23.5709C27.3496 23.6189 27.3215 23.6705 27.3004 23.7232C27.2783 23.776 27.2606 23.8311 27.25 23.8873C27.2383 23.9447 27.2325 24.0021 27.2325 24.0596C27.2325 24.2904 27.3263 24.5166 27.4903 24.6807C27.6533 24.8447 27.8805 24.9385 28.1114 24.9385C28.3434 24.9385 28.5696 24.8447 28.7326 24.6807C28.8965 24.5178 28.9903 24.2904 28.9903 24.0596C28.9903 24.0021 28.9844 23.9447 28.9739 23.8873Z" fill="#00A1D3"/>
<path d="M33.251 23.8874C33.2392 23.8311 33.2228 23.776 33.2006 23.7233C33.1783 23.6706 33.1513 23.619 33.1197 23.5709C33.0869 23.5229 33.0506 23.4784 33.0097 23.4374C32.9697 23.3975 32.9252 23.3612 32.876 23.3284C32.8292 23.2967 32.7775 23.2698 32.7248 23.2475C32.6722 23.2252 32.617 23.2088 32.5608 23.1971C32.4471 23.1749 32.3299 23.1749 32.2174 23.1971C32.1612 23.2088 32.1062 23.2252 32.0522 23.2475C31.9995 23.2698 31.9478 23.2967 31.9011 23.3284C31.853 23.3612 31.8072 23.3975 31.7674 23.4374C31.7264 23.4784 31.69 23.5229 31.6584 23.5709C31.6266 23.619 31.5986 23.6706 31.5775 23.7233C31.5554 23.776 31.5377 23.8311 31.5271 23.8874C31.5154 23.9448 31.5096 24.0022 31.5096 24.0596C31.5096 24.117 31.5155 24.1745 31.5271 24.2307C31.5377 24.287 31.5553 24.342 31.5775 24.3959C31.5987 24.4487 31.6267 24.4991 31.6584 24.5471C31.69 24.5952 31.7264 24.6409 31.7674 24.6807C31.8072 24.7217 31.8529 24.7581 31.9011 24.7897C31.9478 24.8213 31.9995 24.8495 32.0522 24.8706C32.1062 24.8928 32.1612 24.9092 32.2174 24.9209C32.2736 24.9327 32.3312 24.9385 32.3885 24.9385C32.4459 24.9385 32.5033 24.9327 32.5608 24.9209C32.617 24.9092 32.6722 24.8928 32.7248 24.8706C32.7775 24.8495 32.8292 24.8213 32.876 24.7897C32.9252 24.7581 32.9697 24.7217 33.0097 24.6807C33.1736 24.5166 33.2674 24.2905 33.2674 24.0596C33.2674 24.0022 33.2615 23.9448 33.251 23.8874Z" fill="#00A1D3"/>
<path d="M37.5283 23.8873C37.5166 23.8311 37.5001 23.776 37.4779 23.7232C37.4556 23.6705 37.4287 23.6189 37.397 23.5709C37.3654 23.5229 37.3279 23.4783 37.288 23.4373C37.2469 23.3975 37.2025 23.36 37.1544 23.3283C37.1064 23.2967 37.0547 23.2697 37.002 23.2475C36.9494 23.2252 36.8942 23.2088 36.838 23.1982C36.7242 23.1748 36.6071 23.1748 36.4946 23.1982C36.4384 23.2088 36.3833 23.2252 36.3294 23.2475C36.2767 23.2697 36.2262 23.2967 36.1783 23.3283C36.1302 23.36 36.0844 23.3975 36.0446 23.4373C36.0035 23.4783 35.9672 23.5229 35.9356 23.5709C35.9038 23.6189 35.8758 23.6705 35.8547 23.7232C35.8326 23.776 35.816 23.8311 35.8043 23.8873C35.7926 23.9447 35.7867 24.0022 35.7867 24.0596C35.7867 24.117 35.7927 24.1744 35.8043 24.2307C35.816 24.2869 35.8324 24.342 35.8547 24.3959C35.8759 24.4486 35.9039 24.499 35.9356 24.5471C35.9672 24.5951 36.0035 24.6408 36.0446 24.6807C36.0844 24.7217 36.1301 24.758 36.1783 24.7897C36.2262 24.8213 36.2767 24.8494 36.3294 24.8705C36.3833 24.8928 36.4384 24.9092 36.4946 24.9209C36.5508 24.9326 36.6083 24.9385 36.6657 24.9385C36.7231 24.9385 36.7805 24.9326 36.838 24.9209C36.8942 24.9092 36.9494 24.8928 37.002 24.8705C37.0547 24.8494 37.1064 24.8213 37.1544 24.7897C37.2024 24.758 37.2469 24.7217 37.288 24.6807C37.3279 24.6408 37.3654 24.5951 37.397 24.5471C37.4288 24.499 37.4556 24.4486 37.4779 24.3959C37.5 24.342 37.5166 24.2869 37.5283 24.2307C37.5388 24.1744 37.5447 24.117 37.5447 24.0596C37.5447 24.0022 37.5388 23.9447 37.5283 23.8873Z" fill="#00A1D3"/>
<path d="M26.2271 26.5134C26.0631 26.3505 25.8369 26.2567 25.6059 26.2567C25.374 26.2567 25.1477 26.3505 24.9836 26.5134C24.8196 26.6774 24.7258 26.9036 24.7258 27.1356C24.7257 27.193 24.7316 27.2505 24.7434 27.3067C24.7551 27.363 24.7714 27.418 24.7938 27.4719C24.8161 27.5247 24.843 27.5751 24.8747 27.6231C24.9063 27.6712 24.9425 27.7157 24.9836 27.7567C25.0247 27.7977 25.0691 27.8341 25.1172 27.8657C25.1653 27.8973 25.2157 27.9255 25.2684 27.9466C25.3223 27.9688 25.3775 27.9852 25.4336 27.9969C25.4899 28.0087 25.5485 28.0145 25.6059 28.0145C25.8369 28.0145 26.0629 27.9208 26.2271 27.7567C26.267 27.7157 26.3043 27.6712 26.3361 27.6231C26.3676 27.5751 26.3947 27.5247 26.4168 27.4719C26.4391 27.418 26.4555 27.363 26.4674 27.3067C26.4791 27.2505 26.4848 27.193 26.4848 27.1356C26.4848 26.9036 26.3899 26.6774 26.2271 26.5134Z" fill="#00A1D3"/>
<path d="M30.7449 26.9634C30.7331 26.9071 30.7168 26.852 30.6944 26.7993C30.6722 26.7466 30.6452 26.695 30.6136 26.6469C30.5819 26.5989 30.5445 26.5544 30.5047 26.5134C30.3406 26.3505 30.1144 26.2567 29.8835 26.2567C29.6516 26.2567 29.4253 26.3505 29.2612 26.5134C29.2214 26.5544 29.1839 26.5989 29.1522 26.6469C29.1205 26.695 29.0936 26.7466 29.0714 26.7993C29.0491 26.852 29.0327 26.9071 29.021 26.9634C29.0091 27.0208 29.0045 27.0782 29.0045 27.1356C29.0046 27.193 29.0093 27.2505 29.0211 27.3067C29.0328 27.363 29.0491 27.418 29.0715 27.4719C29.0937 27.5247 29.1207 27.5751 29.1523 27.6231C29.184 27.6712 29.2215 27.7169 29.2613 27.7567C29.4253 27.9208 29.6516 28.0145 29.8836 28.0145C29.9399 28.0145 29.9985 28.0087 30.0547 27.9969C30.1109 27.9852 30.166 27.9688 30.2187 27.9466C30.2726 27.9255 30.323 27.8973 30.3711 27.8657C30.4191 27.8341 30.4636 27.7977 30.5048 27.7567C30.6677 27.5938 30.7613 27.3665 30.7613 27.1356C30.7613 27.0782 30.7554 27.0208 30.7449 26.9634Z" fill="#00A1D3"/>
<path d="M35.0223 26.9634C35.0105 26.9072 34.9942 26.8521 34.9718 26.7993C34.9497 26.7466 34.9226 26.695 34.8911 26.647C34.8593 26.5989 34.822 26.5544 34.7821 26.5134C34.741 26.4736 34.6966 26.4361 34.6484 26.4044C34.6003 26.3728 34.55 26.3458 34.4961 26.3236C34.4433 26.3013 34.3882 26.2849 34.332 26.2732C34.2183 26.2509 34.1023 26.2509 33.9886 26.2732C33.9324 26.2849 33.8773 26.3013 33.8246 26.3236C33.7706 26.3458 33.7203 26.3728 33.6722 26.4044C33.6242 26.4361 33.5796 26.4736 33.5386 26.5134C33.4975 26.5544 33.4613 26.5989 33.4296 26.647C33.398 26.695 33.371 26.7466 33.3488 26.7993C33.3265 26.8521 33.3101 26.9072 33.2984 26.9634C33.2865 27.0208 33.2808 27.0782 33.2808 27.1357C33.2807 27.1931 33.2865 27.2505 33.2984 27.3068C33.3101 27.363 33.3264 27.4181 33.3488 27.472C33.371 27.5247 33.398 27.5751 33.4296 27.6232C33.4613 27.6712 33.4975 27.7169 33.5386 27.7568C33.5796 27.7978 33.624 27.8341 33.6722 27.8657C33.7203 27.8974 33.7706 27.9255 33.8246 27.9466C33.8773 27.9689 33.9325 27.9853 33.9886 27.997C34.0449 28.0087 34.1023 28.0146 34.1597 28.0146C34.2171 28.0146 34.2757 28.0087 34.332 27.997C34.3882 27.9853 34.4433 27.9689 34.4961 27.9466C34.55 27.9255 34.6003 27.8974 34.6484 27.8657C34.6964 27.8341 34.741 27.7978 34.7821 27.7568C34.822 27.7169 34.8593 27.6712 34.8911 27.6232C34.9227 27.5751 34.9497 27.5247 34.9718 27.472C34.9941 27.4181 35.0105 27.363 35.0223 27.3068C35.0341 27.2505 35.0388 27.1931 35.0388 27.1357C35.0388 27.0782 35.0341 27.0208 35.0223 26.9634Z" fill="#00A1D3"/>
<path d="M26.4672 20.8112C26.4554 20.7549 26.4391 20.6999 26.4167 20.6471C26.3945 20.5944 26.3675 20.5428 26.336 20.4948C26.3042 20.4467 26.2668 20.4022 26.227 20.3612C26.1858 20.3213 26.1414 20.2838 26.0933 20.2522C26.0452 20.2206 25.9948 20.1936 25.9409 20.1713C25.8882 20.1491 25.8331 20.1327 25.7768 20.1209C25.6632 20.0987 25.5472 20.0987 25.4335 20.1209C25.3774 20.1327 25.3222 20.1491 25.2683 20.1713C25.2155 20.1936 25.1651 20.2206 25.1171 20.2522C25.069 20.2838 25.0245 20.3213 24.9835 20.3612C24.9424 20.4022 24.9061 20.4467 24.8745 20.4948C24.8427 20.5428 24.8159 20.5944 24.7936 20.6471C24.7714 20.6999 24.755 20.7549 24.7433 20.8112C24.7314 20.8686 24.7257 20.926 24.7257 20.9834C24.7257 21.2143 24.8194 21.4416 24.9835 21.6045C25.0245 21.6456 25.069 21.6819 25.1171 21.7135C25.1651 21.7452 25.2155 21.7721 25.2683 21.7944C25.3222 21.8166 25.3774 21.8331 25.4335 21.8448C25.4897 21.8565 25.5483 21.8624 25.6058 21.8624C25.8367 21.8624 26.0628 21.7686 26.227 21.6045C26.3899 21.4416 26.4847 21.2143 26.4847 20.9834C26.4847 20.926 26.4788 20.8686 26.4672 20.8112Z" fill="#00A1D3"/>
<path d="M30.7449 20.8111C30.7331 20.7549 30.7168 20.6998 30.6944 20.6471C30.6722 20.5943 30.6452 20.5428 30.6136 20.4947C30.5819 20.4467 30.5445 20.4022 30.5047 20.3611C30.4635 20.3213 30.4191 20.2838 30.371 20.2522C30.3229 20.2205 30.2725 20.1936 30.2186 20.1713C30.1659 20.149 30.1108 20.1326 30.0546 20.1221C29.7687 20.0635 29.4652 20.1572 29.2612 20.3611C29.2214 20.4022 29.1839 20.4467 29.1522 20.4947C29.1205 20.5428 29.0936 20.5943 29.0714 20.6471C29.0491 20.6998 29.0327 20.7549 29.021 20.8111C29.0091 20.8686 29.0045 20.926 29.0045 20.9834C29.0045 21.0408 29.0091 21.0982 29.021 21.1545C29.0327 21.2108 29.0491 21.2658 29.0714 21.3197C29.0936 21.3725 29.1206 21.4229 29.1522 21.4709C29.1839 21.519 29.2214 21.5647 29.2612 21.6045C29.4241 21.7686 29.6514 21.8623 29.8835 21.8623C29.9398 21.8623 29.9984 21.8565 30.0546 21.8447C30.1108 21.833 30.1659 21.8166 30.2186 21.7943C30.2725 21.7733 30.3229 21.7451 30.371 21.7135C30.419 21.6818 30.4635 21.6455 30.5047 21.6045C30.5445 21.5635 30.5819 21.519 30.6136 21.4709C30.6453 21.4229 30.6722 21.3725 30.6944 21.3197C30.7166 21.2658 30.7331 21.2108 30.7449 21.1545C30.7554 21.0982 30.7613 21.0408 30.7613 20.9834C30.7613 20.926 30.7554 20.8686 30.7449 20.8111Z" fill="#00A1D3"/>
<path d="M35.0222 20.8112C35.0103 20.7549 34.994 20.6999 34.9717 20.6471C34.9495 20.5944 34.9224 20.5428 34.8909 20.4948C34.8592 20.4467 34.8218 20.4022 34.7819 20.3612C34.7408 20.3213 34.6964 20.2838 34.6482 20.2522C34.6002 20.2206 34.5498 20.1936 34.4959 20.1713C34.4431 20.1491 34.3881 20.1327 34.3318 20.1209C34.2181 20.0987 34.1021 20.0987 33.9884 20.1209C33.9322 20.1327 33.8771 20.1491 33.8244 20.1713C33.7705 20.1936 33.7201 20.2206 33.672 20.2522C33.624 20.2838 33.5795 20.3213 33.5385 20.3612C33.4973 20.4022 33.4611 20.4467 33.4295 20.4948C33.3978 20.5428 33.3709 20.5944 33.3486 20.6471C33.3263 20.6999 33.3099 20.7549 33.2982 20.8112C33.2864 20.8686 33.2806 20.926 33.2806 20.9834C33.2806 21.0409 33.2865 21.0983 33.2982 21.1545C33.3099 21.2108 33.3263 21.2659 33.3486 21.3198C33.3709 21.3725 33.3978 21.4229 33.4295 21.4709C33.4611 21.519 33.4973 21.5647 33.5385 21.6045C33.5795 21.6456 33.6239 21.6819 33.672 21.7135C33.7201 21.7452 33.7705 21.7733 33.8244 21.7944C33.8771 21.8166 33.9323 21.8331 33.9884 21.8448C34.0447 21.8565 34.1021 21.8624 34.1595 21.8624C34.217 21.8624 34.2756 21.8565 34.3318 21.8448C34.3881 21.8331 34.4431 21.8166 34.4959 21.7944C34.5498 21.7733 34.6002 21.7452 34.6482 21.7135C34.6963 21.6819 34.7408 21.6456 34.7819 21.6045C34.8218 21.5647 34.8592 21.519 34.8909 21.4709C34.9226 21.4229 34.9495 21.3725 34.9717 21.3198C34.9939 21.2659 35.0103 21.2108 35.0222 21.1545C35.0339 21.0983 35.0386 21.0409 35.0386 20.9834C35.0386 20.926 35.0339 20.8686 35.0222 20.8112Z" fill="#00A1D3"/>
<path d="M39.1632 30.9375C41.4327 29.1652 42.7147 26.7019 42.7147 24.0486C42.7147 20.5491 41.1827 17.8387 38.2778 16.1756V14.9409C38.2778 13.7375 37.3422 12.7511 36.1608 12.6645C38.2176 12.109 39.736 10.2279 39.736 7.99781C39.736 5.3325 37.5676 3.16395 34.9021 3.16395H33.4734V2.28504C33.4734 1.02516 32.4482 0 31.1883 0H28.8447C27.5847 0 26.5597 1.02516 26.5597 2.28504V3.16395H26.0364C25.5509 3.16395 25.1575 3.55746 25.1575 4.04285C25.1575 4.52824 25.5509 4.92176 26.0364 4.92176H27.5558V9.49195H27.1456C25.506 9.49195 24.3161 11.0756 24.7884 12.6559H24.0403C22.7803 12.6559 21.7552 13.6811 21.7552 14.9409V16.1759C20.7713 16.7401 19.9337 17.4325 19.262 18.2402C18.9515 18.6135 19.0025 19.1677 19.3757 19.478C19.7491 19.7884 20.303 19.7374 20.6136 19.3642C21.1994 18.6598 21.9509 18.0594 22.8496 17.5774H37.1841C39.6882 18.9184 40.9573 21.0945 40.9573 24.0485C40.9573 26.4375 39.6848 28.57 37.3736 30.0534C36.9861 30.3023 36.7549 30.7241 36.7549 31.1815C36.7549 31.7522 37.1616 32.2398 37.722 32.3411C39.5869 32.6777 40.9424 34.2887 40.9567 36.178H37.3714C36.8859 36.178 36.4925 36.5714 36.4925 37.0569C36.4925 37.5424 36.8859 37.9358 37.3714 37.9358H40.9572V39.2256H19.0439V37.9358H33.2697C33.7552 37.9358 34.1486 37.5424 34.1486 37.0569C34.1486 36.5714 33.7552 36.178 33.2697 36.178H19.0441C19.0597 34.1416 20.6553 32.4363 22.6903 32.2893C23.2828 32.2465 23.7469 31.7468 23.7469 31.1517C23.7469 30.7118 23.5244 30.3068 23.1508 30.068C20.5406 28.4019 19.0434 26.2078 19.0434 24.0485C19.0434 23.5849 19.0782 23.128 19.1469 22.6902C19.2221 22.2107 18.8943 21.7609 18.4148 21.6857C17.9352 21.6109 17.4855 21.9383 17.4104 22.4179C16.8534 25.9693 18.3568 28.662 21.1614 30.8188C18.9034 31.5829 17.2857 33.7295 17.2857 36.2079C17.2857 43.8952 17.2857 46.2805 17.2857 53.2936C17.2856 58.2934 22.5617 61.5272 26.9752 59.2651C28.8712 60.2368 31.1265 60.2381 33.0248 59.2651C37.4386 61.5272 42.7144 58.2928 42.7144 53.2937C42.7144 50.9125 42.7144 38.5588 42.7144 36.208C42.7147 33.8541 41.2757 31.7921 39.1632 30.9375ZM32.477 4.92176C33.2076 4.92176 33.8076 4.92176 34.9018 4.92176C36.5981 4.92176 37.9778 6.30176 37.9778 7.99781C37.9778 9.60082 36.7451 10.9206 35.1781 11.0609C34.8199 10.144 33.9291 9.49184 32.8872 9.49184H32.477V4.92176ZM28.317 2.28504C28.317 1.99922 28.5585 1.7577 28.8444 1.7577H31.188C31.4739 1.7577 31.7153 1.99922 31.7153 2.28504V3.16395C31.3198 3.16395 28.7133 3.16395 28.317 3.16395V2.28504ZM30.7194 4.92176V9.49195H29.3131V4.92176H30.7194ZM27.1453 11.2496C28.4815 11.2496 31.5548 11.2496 32.8872 11.2496C33.275 11.2496 33.5903 11.565 33.5903 11.9528C33.5903 12.3405 33.275 12.6559 32.8872 12.6559H27.1453C26.7575 12.6559 26.4421 12.3405 26.4421 11.9528C26.4421 11.565 26.7575 11.2496 27.1453 11.2496ZM36.5199 15.8198H23.5126V14.9409C23.5126 14.6551 23.7541 14.4136 24.0399 14.4136C26.3394 14.4136 33.0499 14.4136 35.9927 14.4136C36.2786 14.4136 36.52 14.6551 36.52 14.9409V15.8198H36.5199ZM40.9567 53.2938C40.9567 57.1645 36.7271 59.5124 33.487 57.5094C33.2038 57.3343 32.8458 57.3343 32.5627 57.5094C31.793 57.9853 30.9067 58.2368 30.0001 58.2368C27.736 58.2368 27.4052 56.9578 26.5132 57.5094C25.7435 57.9853 24.8572 58.2368 23.9505 58.2368C21.2448 58.2368 19.0434 56.0195 19.0434 53.2938V53.2086H40.9567V53.2938ZM40.9567 48.4035H25.8855C25.4 48.4035 25.0066 48.7969 25.0066 49.2824C25.0066 49.7679 25.4 50.1613 25.8855 50.1613H40.9567V51.4511H19.0434V50.1613H21.7841C22.2696 50.1613 22.663 49.7679 22.663 49.2824C22.663 48.7969 22.2696 48.4035 21.7841 48.4035H19.0434V40.9834H40.9567V48.4035Z" fill="#00A1D3"/>
</svg>
