<svg width="20" height="12" viewBox="0 0 20 12" fill="none" xmlns="http://www.w3.org/2000/svg">
<path d="M19.8216 10.4726C19.7679 10.3825 19.4353 9.65999 17.8352 8.17488C16.1601 6.61977 16.3851 6.87228 18.4028 4.18333C19.6316 2.54571 20.1229 1.54564 19.9691 1.11811C19.8229 0.710576 18.919 0.818084 18.919 0.818084L15.9138 0.835586C15.9138 0.835586 15.6913 0.805583 15.525 0.904341C15.3638 1.00185 15.26 1.22686 15.26 1.22686C15.26 1.22686 14.7837 2.49446 14.1487 3.57204C12.8098 5.84596 12.2736 5.96597 12.0548 5.82471C11.546 5.49593 11.6735 4.50211 11.6735 3.79706C11.6735 1.59314 12.0073 0.674324 11.0222 0.436806C10.6947 0.35805 10.4547 0.305546 9.61836 0.296796C8.54578 0.285545 7.63697 0.300546 7.12318 0.551814C6.78065 0.719327 6.51689 1.09311 6.67815 1.11436C6.87691 1.14061 7.32694 1.23562 7.56571 1.56064C7.87449 1.97942 7.86323 2.92199 7.86323 2.92199C7.86323 2.92199 8.04075 5.51593 7.44945 5.83846C7.04317 6.05972 6.48688 5.60844 5.29305 3.54454C4.68175 2.48821 4.21922 1.31937 4.21922 1.31937C4.21922 1.31937 4.13046 1.10186 3.9717 0.985597C3.77918 0.844336 3.50916 0.799333 3.50916 0.799333L0.651455 0.816834C0.651455 0.816834 0.222673 0.829336 0.0651618 1.0156C-0.0748485 1.18186 0.053911 1.52439 0.053911 1.52439C0.053911 1.52439 2.29158 6.75853 4.82426 9.39747C7.14818 11.8164 9.78588 11.6576 9.78588 11.6576H10.981C10.981 11.6576 11.3422 11.6176 11.526 11.4189C11.696 11.2364 11.6898 10.8938 11.6898 10.8938C11.6898 10.8938 11.666 9.28996 12.4111 9.0537C13.1449 8.82118 14.0874 10.6038 15.0863 11.2901C15.8413 11.8089 16.4151 11.6951 16.4151 11.6951L19.0866 11.6576C19.0866 11.6576 20.4842 11.5714 19.8216 10.4726Z" fill="#00A1D3"/>
</svg>
